<svg width="520" height="605" viewBox="0 0 520 605" fill="none" xmlns="http://www.w3.org/2000/svg">
<path d="M90.9826 394.616L99.17 423.359L93.3596 424.567L84.8084 402.09L87.3438 428.799L78.7397 429.098L76.9027 402.618L74.3203 429.597L66.6495 430.587L69.4373 400.584L60.5397 423.195L54.2188 417.667L66.9781 383.172L67.0133 383.166L66.2914 373.341L63.7325 338.595L84.6499 337.059L87.9072 381.308L100.948 393.367L96.0653 398.227L90.9826 394.616Z" fill="#C0512B"/>
<path d="M100.414 394.405L95.5193 398.52L90.9943 393.496L98.1369 423.33L93.2949 423.447L84.8024 402.325L86.6922 428.952L78.7748 429.21L76.973 402.372L73.2697 429.521L67.3771 429.064L69.5311 400.707L59.8236 421.941L54.2832 417.72L67.964 383.536L67.025 374.315L87.5256 374.098L87.1794 381.525L100.414 394.405Z" stroke="#000022" stroke-width="5" stroke-linecap="round" stroke-linejoin="round"/>
<path d="M264.073 315.62L243.684 320.55L233.436 278.235L218.846 266.692L222.35 260.918L228.594 265.989L215.26 237.773L220.794 235.633L232.902 256.415L226.035 230.48L234.481 228.78L240.62 254.604L238.754 227.567L246.16 225.339L248.309 255.395L253.391 231.635L260.54 236.061L253.585 272.174L253.555 272.185L255.874 281.764L264.073 315.62Z" fill="#C0512B"/>
<path d="M218.247 265.491L222.403 260.631L227.691 264.852L215.765 236.584L220.519 235.675L232.351 255.132L226.141 229.168L233.912 227.626L240.068 253.807L239.288 226.424L245.175 225.908L247.687 254.235L253.796 231.706L259.947 234.966L252.036 270.926L254.465 279.866L234.282 283.424L233.407 276.038L218.247 265.491Z" stroke="#000022" stroke-width="5" stroke-linecap="round" stroke-linejoin="round"/>
<path d="M234.945 211.826C234.898 213.816 234.073 215.708 232.647 217.098C231.221 218.488 229.308 219.266 227.315 219.266H227.145L219.914 219.113L219.885 220.549C219.734 227.613 217.041 234.385 212.298 239.626C207.556 244.868 201.081 248.226 194.061 249.088L184.935 266.546L165.361 256.333L172.158 243.337C168.448 240.539 165.456 236.901 163.43 232.722C161.403 228.543 160.4 223.943 160.502 219.301L160.86 202.364C161.029 194.579 164.287 187.18 169.916 181.793C175.545 176.407 183.086 173.473 190.88 173.638H191.467C199.261 173.806 206.67 177.059 212.063 182.683C217.456 188.306 220.392 195.839 220.225 203.625V203.918L227.462 204.07C229.484 204.109 231.407 204.947 232.81 206.401C234.213 207.856 234.981 209.807 234.945 211.826V211.826Z" fill="#C0512B"/>
<path d="M234.499 128.246C234.501 137.106 237.605 145.687 243.274 152.502C248.943 159.317 256.82 163.936 265.541 165.56C266.519 169.084 268.268 172.346 270.662 175.112C273.056 177.878 276.035 180.078 279.384 181.554C282.733 183.031 286.368 183.746 290.027 183.648C293.687 183.551 297.279 182.643 300.544 180.99C309.076 193.47 322.203 202.072 337.06 204.921C351.918 207.77 367.301 204.634 379.853 196.197C383.048 201.334 387.807 205.313 393.431 207.553C399.055 209.792 405.249 210.173 411.106 208.641C416.963 207.109 422.175 203.743 425.978 199.037C429.781 194.331 431.976 188.533 432.24 182.491C440.563 180.544 448.15 176.249 454.099 170.117C460.048 163.986 464.108 156.276 465.796 147.906C467.483 139.535 466.727 130.857 463.618 122.904C460.508 114.95 455.176 108.057 448.257 103.044C450.509 95.0414 450.233 86.5397 447.466 78.7003C444.698 70.8609 439.575 64.0662 432.796 59.2449C426.017 54.4236 417.913 51.8109 409.591 51.7638C401.269 51.7167 393.136 54.2375 386.303 58.9817C382.217 48.9435 375.049 40.4588 365.829 34.7484C356.61 29.038 345.814 26.3965 334.996 27.2039C324.178 28.0114 313.895 32.2262 305.628 39.2418C297.36 46.2574 291.534 55.7121 288.988 66.2452C285.177 64.2478 280.847 63.46 276.577 63.9872C272.306 64.5145 268.299 66.3316 265.09 69.1955C261.881 72.0595 259.625 75.8338 258.622 80.0136C257.619 84.1933 257.918 88.5794 259.478 92.585C252.157 95.2545 245.834 100.107 241.366 106.486C236.898 112.865 234.501 120.461 234.499 128.246V128.246Z" fill="#FCDBAA"/>
<path d="M322.529 225.222C328.192 225.222 332.782 220.636 332.782 214.98C332.782 209.324 328.192 204.738 322.529 204.738C316.866 204.738 312.276 209.324 312.276 214.98C312.276 220.636 316.866 225.222 322.529 225.222Z" fill="#FCDBAA"/>
<path d="M305.644 235.452C307.64 235.452 309.259 233.835 309.259 231.841C309.259 229.846 307.64 228.229 305.644 228.229C303.647 228.229 302.028 229.846 302.028 231.841C302.028 233.835 303.647 235.452 305.644 235.452Z" fill="#FCDBAA"/>
<path d="M290.572 242.083C291.904 242.083 292.984 241.004 292.984 239.673C292.984 238.342 291.904 237.264 290.572 237.264C289.24 237.264 288.16 238.342 288.16 239.673C288.16 241.004 289.24 242.083 290.572 242.083Z" fill="#FCDBAA"/>
<path d="M241.131 124.031C241.133 132.891 244.237 141.472 249.906 148.287C255.575 155.102 263.452 159.721 272.172 161.345C273.151 164.868 274.9 168.131 277.294 170.897C279.688 173.663 282.667 175.863 286.016 177.339C289.365 178.816 293 179.531 296.659 179.433C300.318 179.336 303.91 178.428 307.176 176.775C315.71 189.254 328.837 197.855 343.696 200.704C358.554 203.553 373.937 200.418 386.49 191.982C389.684 197.12 394.442 201.101 400.067 203.341C405.691 205.581 411.886 205.963 417.743 204.431C423.6 202.898 428.812 199.531 432.614 194.825C436.417 190.118 438.61 184.318 438.872 178.276C447.195 176.329 454.782 172.034 460.731 165.902C466.68 159.771 470.74 152.061 472.427 143.691C474.115 135.32 473.359 126.642 470.25 118.689C467.14 110.735 461.808 103.841 454.888 98.8285C457.141 90.8263 456.865 82.3246 454.097 74.4852C451.33 66.6458 446.207 59.8512 439.428 55.0299C432.649 50.2086 424.545 47.5958 416.223 47.5487C407.901 47.5016 399.768 50.0224 392.934 54.7667C388.849 44.7285 381.68 36.244 372.46 30.5341C363.24 24.8241 352.444 22.1831 341.626 22.9913C330.808 23.7994 320.525 28.0149 312.258 35.0311C303.991 42.0474 298.165 51.5026 295.619 62.036C291.81 60.0396 287.481 59.2524 283.211 59.7796C278.941 60.3068 274.935 62.1233 271.727 64.9863C268.518 67.8492 266.261 71.6223 265.258 75.8009C264.254 79.9795 264.551 84.3646 266.11 88.37C258.79 91.0416 252.468 95.895 248.001 102.273C243.533 108.651 241.135 116.247 241.131 124.031V124.031Z" stroke="#000022" stroke-width="5" stroke-miterlimit="10" stroke-linecap="round"/>
<path d="M325.845 226.125C331.508 226.125 336.098 221.54 336.098 215.883C336.098 210.227 331.508 205.642 325.845 205.642C320.182 205.642 315.592 210.227 315.592 215.883C315.592 221.54 320.182 226.125 325.845 226.125Z" stroke="#000022" stroke-width="5" stroke-miterlimit="10" stroke-linecap="round"/>
<path d="M308.96 236.36C310.957 236.36 312.575 234.743 312.575 232.749C312.575 230.755 310.957 229.138 308.96 229.138C306.963 229.138 305.345 230.755 305.345 232.749C305.345 234.743 306.963 236.36 308.96 236.36Z" stroke="#000022" stroke-width="5" stroke-miterlimit="10" stroke-linecap="round"/>
<path d="M293.888 242.985C295.22 242.985 296.3 241.906 296.3 240.575C296.3 239.245 295.22 238.166 293.888 238.166C292.556 238.166 291.476 239.245 291.476 240.575C291.476 241.906 292.556 242.985 293.888 242.985Z" stroke="#000022" stroke-width="5" stroke-miterlimit="10" stroke-linecap="round"/>
<path d="M89.9671 301.972L93.9992 373.969L60.1346 375.856L55.9734 301.474C55.9084 300.303 55.9084 299.128 55.9734 297.957L55.903 296.145C55.3161 281.395 64.3134 270.603 80.9639 266.399L159.298 249.398L161.881 299.153L89.9671 301.972Z" fill="#1A5FFE"/>
<path d="M90.8297 371.87L88.4233 298.156L145.177 294.211" stroke="#000022" stroke-width="5" stroke-miterlimit="10" stroke-linecap="round"/>
<path d="M64.7183 375.105L58.8081 290.951C58.8081 290.951 59.7119 270.69 81.0284 266.235C102.345 261.779 153.03 252.306 153.03 252.306" stroke="#000022" stroke-width="5" stroke-miterlimit="10" stroke-linecap="round"/>
<path d="M165.401 483.854L201.45 540.398C206.268 547.955 207.883 557.113 205.94 565.859C203.998 574.606 198.656 582.223 191.091 587.035V587.035L136.866 501.983L165.391 483.839L165.401 483.854Z" fill="#000022"/>
<path d="M288.867 464.328C300.214 457.111 303.554 442.072 296.328 430.739C289.103 419.405 274.047 416.069 262.701 423.286L166.166 484.692C154.82 491.909 151.479 506.948 158.705 518.281C165.931 529.615 180.986 532.951 192.333 525.734L288.867 464.328Z" fill="#C0512B" stroke="#000022" stroke-width="5" stroke-miterlimit="10"/>
<path d="M252.957 379.298L252.452 379.62C239.998 387.576 225.055 383.589 211.093 368.353L147.771 295.278L189.389 267.812L229.933 331.162L223.301 286.156L263.486 280.223L272.906 344.123C273.986 351.369 272.61 358.768 268.995 365.141C265.38 371.515 259.734 376.498 252.957 379.298V379.298Z" fill="#1A5FFE"/>
<path d="M251.507 557.11H318.62C327.589 557.11 336.191 560.669 342.533 567.004C348.875 573.339 352.438 581.931 352.438 590.89H251.49V557.11H251.507Z" fill="#000022"/>
<path d="M301.348 442.611V556.928C301.348 563.381 298.782 569.569 294.214 574.131C289.646 578.694 283.451 581.257 276.991 581.257C270.531 581.257 264.336 578.694 259.768 574.131C255.201 569.569 252.634 563.381 252.634 556.928V463.997H121.49C115.497 463.997 109.75 461.619 105.512 457.387C101.275 453.154 98.894 447.413 98.894 441.427C98.894 435.441 101.275 429.7 105.512 425.467C109.75 421.235 115.497 418.857 121.49 418.857C121.49 418.857 275.189 418.271 277.02 418.271C283.479 418.274 289.673 420.838 294.24 425.4C298.807 429.962 301.374 436.148 301.377 442.599L301.348 442.611Z" fill="#C0512B" stroke="#000022" stroke-width="5" stroke-miterlimit="10"/>
<path d="M314.547 539.928C314.547 539.928 247.64 549.894 245.879 549.894C244.705 549.894 244.834 509.772 245.046 480.682L120.686 468.002C109.74 467.552 99.3873 462.913 91.7727 455.046C84.158 447.179 79.8654 436.688 79.7842 425.746L81.5801 381.057L192.506 406.851L305.192 413.886L304.658 414.554L314.547 539.928Z" fill="#FCDBAA"/>
<path d="M163.718 478.355L205.969 530.53L254.688 496.534L252.341 461.36L188.368 456.664L163.718 478.355Z" fill="#FCDBAA"/>
<path d="M199.382 191.251L199.376 191.251C193.805 191.133 189.194 195.549 189.076 201.113L189.009 204.267C188.892 209.831 193.312 214.437 198.883 214.555L198.889 214.555C204.46 214.672 209.071 210.257 209.189 204.692L209.255 201.539C209.373 195.975 204.952 191.369 199.382 191.251Z" fill="#F8FAFC"/>
<path d="M209.616 199.792C209.687 196.432 207.869 193.669 205.555 193.62C203.241 193.571 201.308 196.255 201.237 199.615C201.166 202.975 202.984 205.739 205.298 205.788C207.612 205.836 209.545 203.152 209.616 199.792Z" fill="#010024"/>
<path d="M180.668 169.752L180.609 169.781V169.699L180.668 169.752Z" fill="#010024"/>
<path d="M180.668 169.752L180.609 169.781V169.699L180.668 169.752Z" fill="#010024"/>
<path d="M180.668 169.752L180.609 169.781V169.699L180.668 169.752Z" fill="#010024"/>
<path d="M211.064 224.448C211.038 225.874 210.73 227.281 210.159 228.588C209.588 229.895 208.763 231.076 207.734 232.064C206.704 233.052 205.49 233.827 204.16 234.345C202.83 234.863 201.41 235.114 199.983 235.083V235.083C198.558 235.053 197.154 234.743 195.849 234.171C194.545 233.599 193.366 232.776 192.38 231.749C191.394 230.721 190.62 229.51 190.103 228.184C189.586 226.858 189.335 225.443 189.366 224.021" stroke="#010024" stroke-width="5" stroke-miterlimit="10" stroke-linecap="round"/>
<path d="M209.432 425.288L70.9863 386.901L156.211 247.165L194.313 262.888L209.432 425.288Z" fill="#1A5FFE"/>
<path d="M208.293 425.177L76.562 383.677L158.764 247.839L193.362 262.911L193.175 266.593" stroke="#000022" stroke-width="5" stroke-miterlimit="10" stroke-linecap="round"/>
<path d="M188.081 259.981L194.137 248.596C194.137 248.596 217.191 248.303 220.102 218.961H228.09C230.078 218.961 231.988 218.189 233.417 216.809C234.846 215.428 235.682 213.547 235.749 211.563V211.563C235.785 210.536 235.613 209.513 235.244 208.554C234.875 207.595 234.316 206.72 233.601 205.982C232.887 205.243 232.03 204.656 231.083 204.255C230.137 203.854 229.118 203.648 228.09 203.649H220.413C220.413 203.649 220.936 188.061 210.007 182.345" stroke="#000022" stroke-width="5" stroke-miterlimit="10" stroke-linecap="round"/>
<path d="M168.712 251.186L172.627 243.653C172.627 243.653 163.777 237.756 161.012 222.912" stroke="#010024" stroke-width="5" stroke-miterlimit="10" stroke-linecap="round"/>
<path d="M83.0181 393.057L83.7576 406.405C83.7553 414.469 85.3432 422.454 88.4308 429.905C91.5184 437.356 96.0452 444.126 101.752 449.829C107.46 455.532 114.236 460.056 121.694 463.143C129.152 466.23 137.146 467.819 145.219 467.82H250.023C250.023 467.82 250.609 543.445 250.023 544.031C249.436 544.617 306.366 532.306 306.366 532.306" stroke="#000022" stroke-width="5" stroke-miterlimit="10" stroke-linecap="round"/>
<path d="M128.21 418.265C128.21 418.265 131.731 425.3 121.754 432.921" stroke="#000022" stroke-width="5" stroke-miterlimit="10" stroke-linecap="round"/>
<path d="M253.832 523.676L307.211 515" stroke="#000022" stroke-width="5" stroke-miterlimit="10" stroke-linecap="round"/>
<path d="M246.765 469.859L190.422 503.855" stroke="#000022" stroke-width="5" stroke-miterlimit="10" stroke-linecap="round"/>
<path d="M165.972 479.169L205.676 530.236L218.688 521.167L204.508 498.579" stroke="#000022" stroke-width="5" stroke-miterlimit="10" stroke-linecap="round"/>
<path d="M159.909 300.431L206.274 356.123C212.278 363.34 221.387 369.543 230.056 372.896C245.486 378.875 268.011 369.906 271.28 352.577C272.577 345.688 270.365 338.917 269.332 332.158C268.299 325.399 267.988 318.428 267.184 311.599L263.521 280.223L223.612 286.085L231.095 333.682L181.941 262.636" stroke="#000022" stroke-width="5" stroke-miterlimit="10" stroke-linecap="round"/>
<path d="M397.923 94.5491C397.928 101.043 396.302 107.434 393.196 113.139C390.089 118.843 385.6 123.678 380.14 127.203V154.17H337.8V127.214C332.134 123.548 327.519 118.473 324.409 112.488C321.298 106.502 319.799 99.8119 320.057 93.073C320.316 86.3342 322.324 79.7783 325.885 74.0485C329.445 68.3187 334.435 63.6117 340.366 60.3894C346.297 57.1671 352.965 55.5402 359.715 55.6681C366.465 55.7961 373.066 57.6746 378.87 61.1194C384.675 64.5641 389.483 69.4568 392.823 75.3174C396.163 81.1781 397.921 87.8054 397.923 94.5491V94.5491Z" fill="#FBD206"/>
<path d="M391.139 152.053H330.177V165.161H391.139V152.053Z" fill="#1A5FFE"/>
<path d="M380.557 169.395H339.068V182.503H380.557V169.395Z" fill="#1A5FFE"/>
<path d="M398.551 86.9162C398.558 93.4129 396.934 99.8077 393.828 105.516C390.723 111.224 386.235 116.064 380.774 119.593V146.56H338.434V119.593C332.766 115.927 328.15 110.852 325.039 104.866C321.927 98.8803 320.427 92.1892 320.685 85.4494C320.944 78.7096 322.952 72.1528 326.513 66.4223C330.074 60.6918 335.066 55.9845 340.998 52.7624C346.93 49.5403 353.599 47.9141 360.35 48.0433C367.101 48.1725 373.703 50.0527 379.507 53.4994C385.311 56.9461 390.118 61.8409 393.457 67.7035C396.796 73.566 398.551 80.1949 398.551 86.9396V86.9162Z" stroke="#000022" stroke-width="5" stroke-miterlimit="10" stroke-linecap="round"/>
<path d="M390.927 154.381H329.965V167.489H390.927V154.381Z" stroke="#000022" stroke-width="5" stroke-miterlimit="10" stroke-linecap="round"/>
<path d="M380.768 171.3H339.279V184.408H380.768V171.3Z" stroke="#000022" stroke-width="5" stroke-miterlimit="10" stroke-linecap="round"/>
<path d="M350.712 147.615L342.46 108.923L352.62 114.422L359.815 108.079L364.469 114.422L376.536 108.29L369.341 148.037" stroke="#000022" stroke-width="5" stroke-miterlimit="10" stroke-linecap="round"/>
<path d="M211.756 159.457C211.243 159.445 210.729 159.463 210.218 159.51C210.175 157.727 209.473 156.024 208.247 154.727C207.022 153.43 205.359 152.633 203.58 152.487C201.801 152.341 200.03 152.859 198.61 153.939C197.189 155.019 196.219 156.586 195.886 158.338C194.157 157.506 192.256 157.094 190.337 157.136C188.419 157.178 186.537 157.672 184.846 158.578C183.636 157.04 181.98 155.912 180.104 155.349C178.229 154.786 176.225 154.815 174.366 155.432C172.508 156.049 170.885 157.224 169.72 158.796C168.554 160.369 167.903 162.262 167.855 164.218C167.855 164.37 167.855 164.517 167.855 164.663C167.351 164.61 166.84 164.581 166.324 164.569C162.959 164.497 159.632 165.299 156.671 166.897C153.71 168.495 151.216 170.834 149.432 173.685C145.52 170.691 140.848 168.85 135.942 168.37C131.037 167.891 126.096 168.791 121.677 170.971C117.257 173.15 113.537 176.521 110.936 180.703C108.335 184.884 106.957 189.709 106.958 194.632C106.957 196.648 107.185 198.658 107.639 200.623C103.652 202.968 100.351 206.317 98.0679 210.336C95.7845 214.356 94.5981 218.903 94.6275 223.525C94.6569 228.146 95.9011 232.678 98.2356 236.668C100.57 240.658 103.913 243.965 107.929 246.259C111.946 248.553 116.495 249.752 121.121 249.738C125.748 249.723 130.289 248.495 134.291 246.176C138.293 243.857 141.615 240.528 143.924 236.524C146.233 232.519 147.448 227.979 147.449 223.358C147.449 222.906 147.449 222.455 147.413 222.009C148.527 223.607 149.988 224.933 151.686 225.887C153.385 226.842 155.277 227.401 157.223 227.523C159.168 227.645 161.115 227.327 162.92 226.592C164.725 225.857 166.34 224.724 167.645 223.278C168.95 221.832 169.911 220.11 170.457 218.241C171.003 216.372 171.119 214.404 170.796 212.484C170.474 210.565 169.722 208.742 168.596 207.153C167.47 205.564 165.999 204.25 164.293 203.308C164.692 203.343 165.097 203.367 165.508 203.373C170.099 203.469 174.576 201.937 178.145 199.049C181.713 196.161 184.141 192.104 184.999 187.597C186.528 187.312 187.969 186.67 189.204 185.725C190.438 184.78 191.433 183.557 192.106 182.157C192.587 183.297 193.353 184.295 194.332 185.055C195.31 185.814 196.468 186.31 197.693 186.494C198.918 186.677 200.171 186.543 201.329 186.104C202.488 185.665 203.513 184.935 204.308 183.986C206.043 185.093 208.01 185.784 210.057 186.005C212.104 186.225 214.174 185.97 216.105 185.257C218.036 184.545 219.775 183.396 221.187 181.899C222.599 180.403 223.644 178.6 224.242 176.632C224.839 174.665 224.972 172.586 224.631 170.558C224.289 168.53 223.482 166.609 222.272 164.945C221.063 163.282 219.484 161.92 217.659 160.968C215.835 160.016 213.814 159.499 211.756 159.457ZM178.42 169.195V169.113L178.478 169.166C178.457 169.172 178.437 169.182 178.42 169.195Z" fill="#010024"/>
<path d="M173.085 213.333C178.764 213.333 183.367 208.734 183.367 203.062C183.367 197.389 178.764 192.791 173.085 192.791C167.406 192.791 162.802 197.389 162.802 203.062C162.802 208.734 167.406 213.333 173.085 213.333Z" fill="#C0512B"/>
<path d="M129.067 491.076V579.856C129.067 581.722 129.809 583.512 131.13 584.831C132.451 586.15 134.242 586.891 136.11 586.891V586.891C137.978 586.891 139.769 586.15 141.09 584.831C142.411 583.512 143.153 581.722 143.153 579.856V491.703" stroke="#000022" stroke-width="5" stroke-miterlimit="10" stroke-linecap="round"/>
<path d="M198.909 584.429C198.025 584.701 197.096 584.796 196.175 584.709C195.254 584.623 194.359 584.356 193.542 583.923C192.724 583.491 192 582.902 191.411 582.19C190.821 581.478 190.377 580.658 190.105 579.774L161.869 488.028H140.224V579.862C140.224 581.728 139.482 583.518 138.161 584.837C136.84 586.156 135.049 586.897 133.181 586.897C131.313 586.897 129.522 586.156 128.201 584.837C126.88 583.518 126.138 581.728 126.138 579.862V488.028H109.165L80.9347 579.792C80.3173 581.491 79.069 582.888 77.4486 583.692C75.8281 584.496 73.9599 584.647 72.2314 584.112C70.5029 583.578 69.0466 582.399 68.1647 580.821C67.2828 579.243 67.0428 577.386 67.4945 575.636L94.4923 488.028H92.1446C89.265 488.028 86.5032 486.885 84.467 484.851C82.4308 482.817 81.2868 480.059 81.2868 477.182C81.2868 474.306 82.4308 471.547 84.467 469.514C86.5032 467.48 89.265 466.337 92.1446 466.337H187.224C190.103 466.337 192.865 467.48 194.901 469.514C196.937 471.547 198.081 474.306 198.081 477.182C198.081 480.059 196.937 482.817 194.901 484.851C192.865 486.885 190.103 488.028 187.224 488.028H176.659L203.622 575.636C203.893 576.522 203.986 577.453 203.896 578.376C203.805 579.298 203.533 580.194 203.095 581.011C202.657 581.828 202.062 582.551 201.344 583.137C200.625 583.724 199.798 584.163 198.909 584.429V584.429Z" fill="#FBD206"/>
<path d="M104.47 491.856L77.4131 579.792C77.1411 580.675 76.6976 581.496 76.1079 582.208C75.5183 582.919 74.794 583.508 73.9765 583.941C73.159 584.373 72.2643 584.64 71.3434 584.727C70.4225 584.814 69.4935 584.718 68.6095 584.447V584.447C67.7254 584.175 66.9036 583.732 66.1909 583.143C65.4782 582.554 64.8887 581.83 64.456 581.014C64.0232 580.197 63.7558 579.304 63.6689 578.384C63.5819 577.464 63.6773 576.536 63.9494 575.653L89.8672 491.445" stroke="#000022" stroke-width="5" stroke-miterlimit="10" stroke-linecap="round"/>
<path d="M90.4248 490.824C87.8731 490.422 85.5483 489.125 83.8681 487.165C82.1878 485.205 81.2621 482.711 81.2573 480.131V480.131C81.2573 477.254 82.4013 474.496 84.4375 472.462C86.4737 470.428 89.2354 469.285 92.1151 469.285H187.223C190.103 469.287 192.863 470.43 194.899 472.463C196.935 474.497 198.08 477.255 198.081 480.131V480.131C198.081 483.007 196.937 485.766 194.901 487.799C192.865 489.833 190.103 490.976 187.223 490.976H92.1445C91.5783 490.976 91.0131 490.931 90.4542 490.841" stroke="#000022" stroke-width="5" stroke-miterlimit="10" stroke-linecap="round"/>
<path d="M158.583 490.684L186.003 579.792C186.275 580.675 186.718 581.496 187.308 582.208C187.898 582.92 188.622 583.509 189.439 583.941C190.257 584.373 191.152 584.64 192.073 584.727C192.993 584.814 193.922 584.719 194.806 584.447C195.691 584.176 196.513 583.733 197.227 583.144C197.94 582.556 198.53 581.832 198.964 581.016C199.397 580.199 199.665 579.305 199.752 578.385C199.839 577.465 199.744 576.537 199.472 575.653L173.989 491.545" stroke="#000022" stroke-width="5" stroke-miterlimit="10" stroke-linecap="round"/>
</svg>
