<svg width="22" height="24" viewBox="0 0 22 24" fill="none" xmlns="http://www.w3.org/2000/svg">
<path d="M12.9975 24C12.7812 24 12.5706 23.9298 12.3975 23.8L8.39754 20.8C8.27334 20.7069 8.17254 20.5861 8.10311 20.4472C8.03368 20.3084 7.99754 20.1552 7.99754 20V14.38L0.981539 6.487C0.483259 5.92488 0.157918 5.23082 0.0446191 4.48823C-0.0686803 3.74565 0.0348833 2.98615 0.342862 2.30101C0.650841 1.61588 1.15013 1.03426 1.78072 0.626066C2.41131 0.217873 3.14636 0.000474419 3.89754 0L18.0975 0C18.8486 0.000881051 19.5835 0.218639 20.2139 0.627107C20.8442 1.03557 21.3432 1.61737 21.6508 2.30259C21.9585 2.9878 22.0617 3.74727 21.9481 4.48975C21.8345 5.23222 21.509 5.9261 21.0105 6.488L13.9975 14.38V23C13.9975 23.2652 13.8922 23.5196 13.7046 23.7071C13.5171 23.8946 13.2628 24 12.9975 24Z" fill="black"/>
</svg>
