<svg width="34" height="38" viewBox="0 0 34 38" fill="none" xmlns="http://www.w3.org/2000/svg">
<path d="M18.875 33.3755H7.87498C6.35619 33.3755 5.12498 32.1443 5.12498 30.6255V11.3755C5.12498 9.85671 6.35619 8.62549 7.87498 8.62549H27.125C28.6438 8.62549 29.875 9.85671 29.875 11.3755V22.3755C29.8744 22.3914 29.8716 22.4071 29.8667 22.4222C29.8628 22.4348 29.86 22.4477 29.8585 22.4607C29.8507 22.582 29.8271 22.7017 29.7884 22.8169L29.776 22.854C29.7667 22.885 29.7553 22.9154 29.7416 22.9447C29.675 23.0945 29.5819 23.231 29.4666 23.3476L19.8416 32.9726C19.5852 33.2292 19.2377 33.374 18.875 33.3755ZM7.87498 11.3755V30.6255H17.5V22.3755C17.5 21.6161 18.1156 21.0005 18.875 21.0005H27.125V11.3755H7.87498ZM20.25 23.7505V28.6826L25.1807 23.7505H20.25Z" fill="#6F4C47"/>
<rect width="16" height="24" fill="white"/>
<path d="M14.52 14.76C14.52 15.8667 14.12 16.8267 13.32 17.64C12.5333 18.44 11.3867 18.9533 9.88002 19.18V21.4H7.48002V19.26C6.48002 19.1933 5.53335 19.0267 4.64002 18.76C3.74668 18.48 3.00668 18.14 2.42002 17.74L3.72002 14.82C4.34668 15.2333 5.07335 15.5667 5.90002 15.82C6.72668 16.0733 7.54002 16.2 8.34002 16.2C9.86002 16.2 10.62 15.82 10.62 15.06C10.62 14.66 10.4 14.3667 9.96002 14.18C9.53335 13.98 8.84002 13.7733 7.88002 13.56C6.82668 13.3333 5.94668 13.0933 5.24002 12.84C4.53335 12.5733 3.92668 12.1533 3.42002 11.58C2.91335 11.0067 2.66002 10.2333 2.66002 9.26C2.66002 8.11333 3.07335 7.13333 3.90002 6.32C4.72668 5.49333 5.92002 4.98667 7.48002 4.8V2.6H9.88002V4.76C10.64 4.82667 11.3667 4.96 12.06 5.16C12.7667 5.36 13.3933 5.62 13.94 5.94L12.72 8.88C11.3867 8.16 10.0933 7.8 8.84002 7.8C8.05335 7.8 7.48002 7.92 7.12002 8.16C6.76002 8.38667 6.58002 8.68667 6.58002 9.06C6.58002 9.43333 6.79335 9.71333 7.22002 9.9C7.64668 10.0867 8.33335 10.28 9.28002 10.48C10.3467 10.7067 11.2267 10.9533 11.92 11.22C12.6267 11.4733 13.2333 11.8867 13.74 12.46C14.26 13.02 14.52 13.7867 14.52 14.76Z" fill="#FFB934"/>
</svg>
