<svg width="200" height="183" viewBox="0 0 200 183" fill="none" xmlns="http://www.w3.org/2000/svg">
<path d="M123.815 28.4852C123.8 29.1291 123.534 29.7417 123.074 30.1918C122.615 30.6419 121.997 30.8938 121.355 30.8936H121.3L118.969 30.8443V31.3089C118.92 33.5937 118.052 35.7846 116.523 37.48C114.994 39.1754 112.907 40.2619 110.643 40.5404L107.701 46.1878L101.391 42.8844L103.576 38.6858C102.38 37.7805 101.416 36.6036 100.763 35.2518C100.11 33.9001 99.7871 32.4122 99.8202 30.9107L99.9356 25.4321C99.9902 22.9138 101.04 20.5203 102.855 18.7778C104.67 17.0353 107.101 16.0864 109.614 16.1398H109.803C112.316 16.1941 114.704 17.2465 116.443 19.0655C118.182 20.8846 119.128 23.3213 119.075 25.8398V25.9346L121.408 25.9839C122.057 25.9979 122.675 26.2687 123.126 26.7373C123.576 27.2059 123.824 27.8343 123.815 28.4852Z" fill="#C0512B"/>
<path d="M157.52 38.358L147.414 44.597L147.404 44.5914L145.631 47.2387L139.363 56.5935L133.749 52.8159L141.58 41.1267L141.149 35.1266L143.287 34.698L143.44 37.2922L147.247 27.9507L148.961 28.8003L146.657 36.2265L151.33 28.9216L153.574 30.562L148.768 37.6696L154.795 31.3149L156.937 32.5911L150.256 39.6741L157.016 35.6898L157.52 38.358Z" fill="#C0512B"/>
<path d="M141.166 35.0735L143.228 35.0014L143.376 37.1822L147.504 28.1631L148.755 29.098L146.704 36.1696L151.527 29.0127L153.587 30.526L148.7 37.717L155.044 31.5424L156.45 32.8339L150.257 39.6248L156.948 36.1544L157.514 38.3314L147.236 44.3088L145.637 46.8424L140.394 42.8126L141.958 40.9902L141.166 35.0735Z" stroke="#000022" stroke-width="5" stroke-linecap="round" stroke-linejoin="round"/>
<path d="M147.529 48.6498L133.775 68.4176C133.559 68.7296 133.324 69.0285 133.073 69.3127L132.734 69.7868C129.945 73.6592 125.514 74.615 120.454 72.3659L97.1807 61.0862L106.431 47.9027L125.241 61.5167L138.554 42.3823L147.529 48.6498Z" fill="#1A5FFE"/>
<path d="M138.939 43.5332L124.897 62.7966L109.697 52.5087" stroke="#000022" stroke-width="3" stroke-miterlimit="10" stroke-linecap="round"/>
<path d="M146.216 47.9272L130.961 70.532C130.961 70.532 126.698 75.51 120.401 72.3962C114.104 69.2823 99.3569 61.5868 99.3569 61.5868" stroke="#000022" stroke-width="5" stroke-miterlimit="10" stroke-linecap="round"/>
<path d="M30.6602 106.417L17.8449 123.889C16.1322 126.224 13.5642 127.782 10.7058 128.219C7.84739 128.656 4.93269 127.938 2.60292 126.221L21.8757 99.945L30.6602 106.417Z" fill="#000022"/>
<path d="M75.8753 107.2C75.8775 108.767 75.3235 110.283 74.3124 111.478L55.2358 134.119C54.2485 135.291 52.8868 136.084 51.3822 136.363C49.8775 136.643 48.3228 136.391 46.9822 135.651C46.622 135.471 46.2793 135.258 45.9586 135.014L22.354 117.164C20.9517 116.103 20.0271 114.528 19.7837 112.784C19.5402 111.04 19.9979 109.271 21.056 107.866C22.1141 106.46 23.686 105.534 25.4258 105.29C27.1656 105.046 28.9309 105.504 30.3332 106.565L49.1336 120.788L64.197 102.916C65.0732 101.878 66.2462 101.135 67.5575 100.787C68.8689 100.439 70.2552 100.503 71.529 100.97C72.8029 101.438 73.9029 102.286 74.6802 103.4C75.4575 104.514 75.8747 105.841 75.8753 107.2Z" fill="#C0512B" stroke="#000022" stroke-width="2" stroke-miterlimit="10"/>
<path d="M107.366 73.4976C103.47 70.9966 98.8334 69.9159 94.2359 70.437C89.6383 70.9581 85.3598 73.0493 82.1192 76.3592L45.4116 113.754L72.4693 129.304L97.9565 95.359L107.366 73.4976Z" fill="#FCDBAA"/>
<path d="M76.5262 82.5586C76.1175 82.9625 46.6416 111.383 46.6416 111.383L73.8885 128.072" stroke="#000022" stroke-width="2" stroke-miterlimit="10" stroke-linecap="round"/>
<path d="M144.2 172.588L160.912 158.815C163.146 156.975 166.017 156.099 168.895 156.38C171.773 156.661 174.422 158.077 176.258 160.315L151.12 181.032L144.196 172.592L144.2 172.588Z" fill="#000022"/>
<path d="M105.31 114.757L105.308 114.758C102.482 117.087 102.075 121.271 104.399 124.103L144.8 173.345C147.124 176.177 151.298 176.585 154.124 174.256L154.125 174.255C156.951 171.926 157.358 167.742 155.035 164.91L114.634 115.668C112.31 112.836 108.135 112.428 105.31 114.757Z" fill="#C0512B" stroke="#000022" stroke-width="2" stroke-miterlimit="10"/>
<path d="M77.2714 76.3804C74.3044 79.9366 72.6487 84.4077 72.5822 89.0429C72.5157 93.6781 74.0425 98.1951 76.9062 101.835L102.176 134.237L126.395 116.601L97.7236 88.5077L77.2714 76.3804Z" fill="#FCDBAA"/>
<path d="M112.351 21.8335L112.35 21.8335C110.554 21.7955 109.067 23.2238 109.029 25.0238L109.007 26.0438C108.97 27.8438 110.395 29.3338 112.191 29.3718L112.193 29.3718C113.989 29.4098 115.475 27.9815 115.513 26.1815L115.535 25.1615C115.573 23.3615 114.147 21.8715 112.351 21.8335Z" fill="#F8FAFC"/>
<path d="M115.651 25.7313C115.673 24.6444 115.087 23.7505 114.341 23.7347C113.595 23.7189 112.972 24.5872 112.949 25.6741C112.926 26.761 113.512 27.6549 114.258 27.6707C115.004 27.6865 115.628 26.8182 115.651 25.7313Z" fill="#010024"/>
<path d="M121.251 16.1193C121.235 16.8835 121.016 17.6295 120.617 18.2809C120.218 18.9323 119.653 19.4654 118.98 19.8257C118.307 20.1859 117.551 20.3602 116.789 20.3308C116.027 20.3013 115.287 20.069 114.644 19.6579C114.387 19.9646 114.057 20.2002 113.683 20.3421C113.31 20.484 112.907 20.5274 112.512 20.4682C112.117 20.409 111.744 20.2492 111.428 20.004C111.113 19.7589 110.865 19.4366 110.71 19.0681C110.494 19.5221 110.174 19.9186 109.776 20.2253C109.378 20.5321 108.914 20.7405 108.42 20.8337C108.193 22.0279 107.626 23.1305 106.786 24.008C105.946 24.8855 104.871 25.5001 103.69 25.7775C103.605 26.286 103.434 26.7761 103.183 27.2263C103.586 27.8219 103.828 28.5117 103.887 29.2288C103.946 29.9459 103.82 30.6662 103.52 31.3199C103.22 31.9736 102.757 32.5387 102.175 32.9605C101.593 33.3822 100.913 33.6464 100.199 33.7275C99.4859 33.8086 98.7638 33.7037 98.1026 33.4232C97.4415 33.1426 96.8638 32.6958 96.4253 32.126C95.9869 31.5562 95.7027 30.8826 95.6 30.1705C95.4974 29.4583 95.5798 28.7316 95.8394 28.0607C95.4311 27.6068 95.1181 27.0752 94.9192 26.4974C94.7203 25.9197 94.6396 25.3077 94.6818 24.698C94.724 24.0883 94.8883 23.4934 95.1649 22.9487C95.4414 22.404 95.8246 21.9208 96.2916 21.5277C95.9985 20.5777 95.9346 19.5715 96.1052 18.5918C96.2758 17.6122 96.6759 16.6871 97.2728 15.8927C97.8696 15.0983 98.6461 14.4572 99.5383 14.0222C100.431 13.5872 101.413 13.3706 102.405 13.3904C102.572 13.3904 102.736 13.4037 102.899 13.4207C102.899 13.3733 102.899 13.3259 102.899 13.2766C102.909 12.6405 103.117 12.0233 103.492 11.5102C103.867 10.997 104.392 10.6131 104.994 10.4115C105.596 10.2099 106.245 10.2005 106.853 10.3845C107.461 10.5685 107.996 10.937 108.386 11.439C108.931 11.146 109.538 10.9861 110.157 10.9726C110.775 10.9591 111.388 11.0923 111.945 11.3613C112.062 10.8027 112.379 10.3063 112.836 9.96577C113.293 9.62525 113.859 9.46417 114.426 9.51294C114.993 9.56171 115.523 9.81695 115.916 10.2305C116.308 10.644 116.536 11.1872 116.557 11.7576C117.158 11.7031 117.764 11.7758 118.335 11.971C118.906 12.1663 119.43 12.4797 119.873 12.8909C120.315 13.3022 120.667 13.8021 120.904 14.3583C121.142 14.9144 121.26 15.5144 121.251 16.1193Z" fill="#010024"/>
<path d="M104.292 30.2699C106.122 30.2699 107.607 28.7824 107.607 26.9474C107.607 25.1125 106.122 23.625 104.292 23.625C102.461 23.625 100.977 25.1125 100.977 26.9474C100.977 28.7824 102.461 30.2699 104.292 30.2699Z" fill="#C0512B"/>
<path d="M116.116 32.57C116.096 33.4997 115.708 34.3834 115.038 35.0267C114.368 35.6701 113.471 36.0203 112.543 36.0005V36.0005C111.617 35.9816 110.735 35.5946 110.094 34.9245C109.452 34.2545 109.102 33.3564 109.12 32.4277" stroke="#010024" stroke-width="2" stroke-miterlimit="10" stroke-linecap="round"/>
<path d="M109.26 99.1765L68.2515 79.8278L100.24 39.729L111.703 46.4725L109.26 99.1765Z" fill="#1A5FFE"/>
<path d="M73.6615 82.3711C73.6615 82.3711 68.9841 91.8226 84.477 111.109C99.97 130.395 102.642 133.952 102.642 133.952" stroke="#000022" stroke-width="2" stroke-miterlimit="10" stroke-linecap="round"/>
<path d="M100.549 131.369C100.802 130.962 121.854 113.945 121.854 113.945" stroke="#000022" stroke-width="2" stroke-miterlimit="10" stroke-linecap="round"/>
<path d="M108.42 44.5365L110.651 40.3815C110.651 40.3815 118.084 40.2867 119.022 30.7954H121.597C122.238 30.7953 122.854 30.5456 123.315 30.0991C123.775 29.6525 124.045 29.0441 124.067 28.4022V28.4022C124.078 28.0701 124.023 27.739 123.904 27.4289C123.785 27.1187 123.605 26.8357 123.374 26.5968C123.144 26.3579 122.868 26.1679 122.562 26.0383C122.257 25.9086 121.929 25.8419 121.597 25.8421H119.13C119.13 25.8421 119.298 20.7996 115.775 18.9487" stroke="#000022" stroke-width="2" stroke-miterlimit="10" stroke-linecap="round"/>
<path d="M102.689 40.6206L103.724 38.783C103.724 38.783 100.87 36.8753 99.979 32.0718" stroke="#010024" stroke-width="2" stroke-miterlimit="10" stroke-linecap="round"/>
<path d="M51.2979 106.842L76.5372 122.195" stroke="#000022" stroke-width="2" stroke-miterlimit="10" stroke-linecap="round"/>
<path d="M195.024 31.0567L195.022 70.7061L127.065 70.7023L127.067 22.542H158.861V31.0567H195.024Z" fill="#FBD206"/>
<path d="M193.09 31.0645L193.088 70.7119L125.131 70.71L125.133 22.5479H156.927V31.0626L193.09 31.0645Z" stroke="#000022" stroke-width="3" stroke-miterlimit="10" stroke-linecap="round"/>
<path d="M149.637 69.4223L157.387 70.6303L156.091 73.014L144.327 71.4287L144.322 71.4154L141.279 72.3389L130.516 75.6026L128.558 69.1151L142.007 65.036L145.461 60.1187L147.387 61.1447L145.864 63.2553L154.717 58.4404L155.508 60.1851L149.029 64.4709L157.264 61.7837L157.964 64.4766L149.752 66.9267L158.431 65.8344L159.283 68.1821L149.637 69.4223Z" fill="#C0512B"/>
<path d="M142.318 75.9915L117.622 81.9632C116.157 82.3173 114.637 82.3789 113.148 82.1442C111.66 81.9096 110.232 81.3834 108.946 80.5958C107.661 79.8081 106.543 78.7744 105.656 77.5535C104.769 76.3327 104.13 74.9488 103.777 73.4807L103.398 71.9029L104.912 71.5369L96.0493 50.2539L111.695 46.5352L116.653 68.7057L139.247 63.2422L142.318 75.9915Z" fill="#1A5FFE"/>
<path d="M109.277 99.1426L72.5107 81.1859L101.4 40.1123L112.299 46.8065L116.312 70.1528L139.012 65.0098" stroke="#000022" stroke-width="3" stroke-miterlimit="10" stroke-linecap="round"/>
<path d="M101.843 58.4614C101.843 58.4614 102.978 80.9335 114.899 80.5485C126.819 80.1635 141.996 74.3834 141.996 74.3834" stroke="#000022" stroke-width="3" stroke-miterlimit="10" stroke-linecap="round"/>
<path d="M145.508 60.0902L147.151 61.3418L145.887 63.1243L154.78 58.7627L155.158 60.2798L149.103 64.4518L157.357 61.9732L157.996 64.4518L149.671 66.9171L158.481 66.1642L158.753 68.0549L149.671 69.3824L157.043 70.9412L156.102 72.9855L144.373 71.0891L141.533 72.0373L140.021 65.5896L142.384 65.1724L145.508 60.0902Z" stroke="#000022" stroke-linecap="round" stroke-linejoin="round"/>
<path d="M123.024 4.68999L115.8 10.7356L93.6709 29.963C91.5245 27.0342 90.4769 23.4409 90.7122 19.8147C90.9475 16.1885 92.4506 12.7615 94.9573 10.1359C97.464 7.51042 100.814 5.85447 104.418 5.45916C108.022 5.06386 111.65 5.95449 114.664 7.97451L121.209 2.50537L123.024 4.68999Z" fill="#1A5FFE"/>
<path d="M94.0718 29.3161L122.933 4.7145L121.133 2.5166" stroke="#000022" stroke-width="3" stroke-miterlimit="10" stroke-linecap="round"/>
<path d="M105.498 87.4399L61.3193 69.9717L49.2695 100.583L93.4486 118.052L105.498 87.4399Z" fill="#FBD206"/>
<path d="M64.4917 71.4819L79.9581 94.7201L107.264 88.3919" stroke="#000022" stroke-width="2" stroke-miterlimit="10" stroke-linecap="round"/>
<path d="M53.6196 97.5571L64.3803 70.2134L107.709 87.3433L98.3367 111.152" stroke="#000022" stroke-width="2" stroke-miterlimit="10" stroke-linecap="round"/>
<path d="M72.8477 73.1736L101.421 40.1768L104.679 42.4221L81.9262 77.12L72.8477 73.1736Z" fill="#FBD206"/>
<path d="M98.9214 84.0604C98.9214 84.0604 105.203 73.5526 105.203 73.9319C105.203 74.3112 108.365 78.0224 108.365 78.0224L104.857 86.2223L98.9214 84.0604Z" fill="#FBD206"/>
<path d="M71.9014 72.9821C72.2798 72.7925 100.662 39.606 100.662 39.606L103.69 42.2609L79.6592 76.206L71.9014 72.9821Z" stroke="#000022" stroke-width="3" stroke-miterlimit="10" stroke-linecap="round"/>
<path d="M97.7163 83.1485L104.92 72.8892L107.569 77.0612L103.595 85.5948L97.7163 83.1485Z" stroke="#000022" stroke-width="3" stroke-miterlimit="10" stroke-linecap="round"/>
</svg>
