<svg width="30" height="30" viewBox="0 0 30 30" fill="none" xmlns="http://www.w3.org/2000/svg">
<g clip-path="url(#clip0)">
<path d="M0.364178 10.6904C0.0948304 10.1908 -0.0299542 9.62607 0.00382804 9.0595C0.0376103 8.49293 0.228622 7.94698 0.555428 7.48294C1.0895 6.69933 1.80473 6.05614 2.64043 5.60794L12.0167 0.727935C12.9383 0.248724 13.9617 -0.00146484 15.0004 -0.00146484C16.0392 -0.00146484 17.0626 0.248724 17.9842 0.727935L27.3592 5.61169C28.1949 6.05989 28.9101 6.70308 29.4442 7.48669C29.771 7.95073 29.962 8.49668 29.9958 9.06325C30.0296 9.62982 29.9048 10.1946 29.6354 10.6942C29.3454 11.2427 28.9105 11.7012 28.378 12.0197C27.8455 12.3382 27.2359 12.5044 26.6154 12.5004H3.38543C2.76438 12.5043 2.15419 12.3376 1.62141 12.0184C1.08864 11.6992 0.653751 11.2399 0.364178 10.6904V10.6904ZM28.7504 27.5004C28.7504 26.8374 28.487 26.2015 28.0182 25.7327C27.5494 25.2638 26.9135 25.0004 26.2504 25.0004V15.0004H23.7504V25.0004H20.0004V15.0004H17.5004V25.0004H12.5004V15.0004H10.0004V25.0004H6.25043V15.0004H3.75043V25.0004C3.08739 25.0004 2.4515 25.2638 1.98266 25.7327C1.51382 26.2015 1.25043 26.8374 1.25043 27.5004C0.918907 27.5004 0.600965 27.6321 0.366544 27.8666C0.132124 28.101 0.000427508 28.4189 0.000427508 28.7504C0.000427508 29.082 0.132124 29.3999 0.366544 29.6343C0.600965 29.8687 0.918907 30.0004 1.25043 30.0004H28.7504C29.0819 30.0004 29.3999 29.8687 29.6343 29.6343C29.8687 29.3999 30.0004 29.082 30.0004 28.7504C30.0004 28.4189 29.8687 28.101 29.6343 27.8666C29.3999 27.6321 29.0819 27.5004 28.7504 27.5004Z" fill="black"/>
</g>
<defs>
<clipPath id="clip0">
<rect width="30" height="30" fill="white"/>
</clipPath>
</defs>
</svg>
