<svg width="26" height="21" viewBox="0 0 26 21" fill="none" xmlns="http://www.w3.org/2000/svg">
<path d="M23 20.0002H3C1.66314 20.0402 0.54552 18.9918 0.5 17.6552V2.34392C0.545516 1.00743 1.66335 -0.0405431 3 0.000170659H23C24.3366 -0.0405431 25.4545 1.00743 25.5 2.34392V17.6564C25.4538 18.9926 24.3364 20.0402 23 20.0002ZM3 2.50017V17.4864L23 17.5002V2.51392L3 2.50017ZM14.7875 15.0002H5.5C5.59191 13.9652 6.08168 13.0063 6.86625 12.3252C7.73978 11.4586 8.91351 10.9617 10.1438 10.9377C11.374 10.9617 12.5477 11.4586 13.4212 12.3252C14.2056 13.0065 14.6953 13.9653 14.7875 15.0002ZM20.5 13.7502H16.75V11.2502H20.5V13.7502ZM10.1438 10.0002C9.47384 10.0234 8.82434 9.76754 8.35036 9.29356C7.87638 8.81958 7.62047 8.17008 7.64375 7.50017C7.62085 6.83037 7.87688 6.18109 8.35077 5.70719C8.82467 5.2333 9.47395 4.97727 10.1438 5.00017C10.8136 4.97727 11.4628 5.2333 11.9367 5.70719C12.4106 6.18109 12.6667 6.83037 12.6438 7.50017C12.667 8.17008 12.4111 8.81958 11.9371 9.29356C11.4632 9.76754 10.8137 10.0234 10.1438 10.0002ZM20.5 8.75017H15.5V6.25017H20.5V8.75017Z" fill="black"/>
</svg>
