<svg width="26" height="26" viewBox="0 0 26 26" fill="none" xmlns="http://www.w3.org/2000/svg">
<path d="M13.0637 25.4363C6.40761 25.4305 0.923445 20.2099 0.590205 13.5621C0.256966 6.91427 5.19155 1.17136 11.8137 0.5V5.55C8.05202 6.18572 5.36863 9.54652 5.58142 13.3556C5.7942 17.1648 8.83522 20.2058 12.6444 20.4186C16.4535 20.6314 19.8143 17.948 20.45 14.1863H25.5C24.8497 20.5694 19.4787 25.4276 13.0625 25.4363H13.0637ZM25.5012 11.6863H20.4512C19.9193 8.54337 17.4567 6.08133 14.3137 5.55V0.5C20.2226 1.10498 24.8944 5.77623 25.5 11.685L25.5012 11.6863Z" fill="black"/>
</svg>
