<svg width="43" height="40" viewBox="0 0 43 40" fill="none" xmlns="http://www.w3.org/2000/svg">
<path d="M29.1826 35.6677H9.72752C7.93674 35.6677 6.48502 34.216 6.48502 32.4252V6.48518C6.48502 4.6944 7.93674 3.24268 9.72752 3.24268H21.0763C21.094 3.24344 21.1114 3.24672 21.1282 3.2524C21.144 3.2573 21.1603 3.26055 21.1768 3.26213C21.3198 3.2713 21.4609 3.29909 21.5967 3.34481L21.6421 3.35941C21.6789 3.37186 21.7146 3.38703 21.7491 3.4048C21.9257 3.48331 22.0867 3.59317 22.2241 3.72905L31.9517 13.4566C32.0875 13.594 32.1974 13.755 32.2759 13.9316C32.2921 13.9673 32.3035 14.0046 32.3164 14.0418L32.331 14.084C32.3763 14.2192 32.403 14.3599 32.4105 14.5023C32.413 14.5172 32.4168 14.5318 32.4218 14.5461C32.4247 14.561 32.4258 14.5762 32.4253 14.5914V32.4252C32.4253 34.216 30.9733 35.6677 29.1826 35.6677ZM9.72752 6.48518V32.4252H29.1826V16.2127H21.0763C20.1809 16.2127 19.455 15.4868 19.455 14.5914V6.48518H9.72752ZM22.6975 8.77763V12.9702H26.8901L22.6975 8.77763Z" fill="#4A7244"/>
<rect x="20.6342" y="31.0005" width="5.89546" height="11.2014" transform="rotate(-41.1949 20.6342 31.0005)" fill="white"/>
<rect x="38.8967" y="20.0425" width="5.89546" height="20.5077" transform="rotate(45.8927 38.8967 20.0425)" fill="white"/>
<path d="M24.1714 30.0683L28.593 35.0795L39.4996 24.1729" stroke="#72D8A1" stroke-width="5"/>
</svg>
