<svg width="20" height="20" viewBox="0 0 20 20" fill="none" xmlns="http://www.w3.org/2000/svg">
<g clip-path="url(#clip0)">
<path d="M13.6667 3.39343C12.6667 2.54593 11.6367 1.66676 10.5942 0.627598L10 0.0375977L9.41667 0.628431C7.54 2.5101 6.65333 5.39926 6.26833 7.1326C5.97364 6.67585 5.75497 6.17435 5.62083 5.6476L5.26833 4.28676L4.24333 5.2501C2.4475 6.93593 1.25 8.60843 1.25 11.2868C1.23323 13.2186 1.86243 15.1007 3.03768 16.6341C4.21292 18.1675 5.86681 19.2642 7.73667 19.7501C8.30006 19.8871 8.87509 19.9708 9.45417 20.0001C9.63522 20.023 9.8175 20.035 10 20.0359C10.0958 20.0359 10.1892 20.0276 10.2825 20.0218C12.5526 19.9535 14.7068 19.0032 16.2877 17.3726C17.8686 15.7421 18.7519 13.5596 18.75 11.2884C18.75 7.7101 16.3942 5.7101 13.6667 3.39343ZM10.1667 18.3551C10.0833 18.3551 10 18.3634 9.91167 18.3626C9.1616 18.3397 8.44982 18.0261 7.92671 17.488C7.40361 16.95 7.11015 16.2297 7.10833 15.4793C7.10833 14.4226 7.675 13.8959 8.9575 12.8043C9.28083 12.5293 9.6325 12.2301 10.0025 11.8876C10.3267 12.1818 10.6417 12.4484 10.9325 12.6959C12.2208 13.7893 12.8933 14.4101 12.8933 15.4768C12.8919 16.2139 12.6088 16.9225 12.1019 17.4577C11.5949 17.9928 10.9026 18.3138 10.1667 18.3551ZM14.35 16.8793L14.3333 16.8909C14.4829 16.4353 14.5594 15.9588 14.56 15.4793C14.56 13.5918 13.3217 12.5401 12.0117 11.4276C11.5475 11.0343 11.0683 10.6276 10.59 10.1493L10 9.5601L9.41083 10.1493C8.87083 10.6884 8.3425 11.1384 7.87667 11.5351C6.57 12.6468 5.44083 13.6076 5.44083 15.4793C5.44261 15.9794 5.52708 16.4758 5.69083 16.9484C4.82338 16.2823 4.12164 15.4247 3.64041 14.4426C3.15918 13.4605 2.91148 12.3804 2.91667 11.2868C2.90296 9.82444 3.46895 8.4162 4.49083 7.3701C4.66685 7.7272 4.87552 8.06726 5.11417 8.38593C5.28847 8.62113 5.52778 8.80019 5.80261 8.90103C6.07744 9.00187 6.37578 9.02008 6.66083 8.95343C6.95082 8.88887 7.21608 8.74215 7.4249 8.53083C7.63371 8.3195 7.77724 8.0525 7.83833 7.76176C8.18726 5.84647 8.94193 4.02799 10.0517 2.42843C10.9308 3.26176 11.8017 3.99926 12.5875 4.66676C15.1975 6.88343 17.0875 8.4851 17.0875 11.2918C17.0895 12.3706 16.8437 13.4356 16.3689 14.4043C15.8941 15.3731 15.2031 16.2199 14.3492 16.8793H14.35Z" fill="#F17D01"/>
</g>
<defs>
<clipPath id="clip0">
<rect width="20" height="20" fill="white"/>
</clipPath>
</defs>
</svg>
