<svg width="44" height="44" viewBox="0 0 44 44" fill="none" xmlns="http://www.w3.org/2000/svg">
<path d="M22 40.3332L16.5 34.8332H9.16667C7.14162 34.8332 5.5 33.1915 5.5 31.1665V7.33317C5.5 5.30813 7.14162 3.6665 9.16667 3.6665H34.8333C36.8584 3.6665 38.5 5.30813 38.5 7.33317V31.1665C38.5 33.1915 36.8584 34.8332 34.8333 34.8332H27.5L22 40.3332ZM9.16667 7.33317V31.1665H18.3333L22 34.8332L25.6667 31.1665H34.8333V7.33317H9.16667ZM29.3333 27.4742H14.6667V26.7665C14.8836 22.9258 18.1578 19.9791 22 20.1665C25.8422 19.9791 29.1164 22.9258 29.3333 26.7665V27.4723V27.4742ZM22 18.3332C21.0175 18.3673 20.0649 17.992 19.3697 17.2968C18.6745 16.6016 18.2992 15.649 18.3333 14.6665C18.2997 13.6841 18.6753 12.7319 19.3703 12.0368C20.0653 11.3418 21.0176 10.9662 22 10.9998C22.9824 10.9662 23.9347 11.3418 24.6297 12.0368C25.3248 12.7319 25.7003 13.6841 25.6667 14.6665C25.7008 15.649 25.3255 16.6016 24.6303 17.2968C23.9351 17.992 22.9825 18.3673 22 18.3332Z" fill="#CF15B9"/>
</svg>
