<svg width="45" height="44" viewBox="0 0 45 44" fill="none" xmlns="http://www.w3.org/2000/svg">
<path d="M35.6203 36.6668C19.6235 36.689 7.4829 24.6759 7.50002 9.17143C7.50002 8.15891 8.33948 7.3335 9.37502 7.3335H14.3238C15.253 7.3335 16.0424 8.00107 16.1788 8.89977C16.5058 11.0537 17.1472 13.1506 18.0834 15.1265L18.2761 15.5331C18.544 16.0985 18.3624 16.7703 17.8438 17.1324C16.3112 18.2026 15.7255 20.3567 16.9194 22.0375C18.4177 24.1467 20.3063 25.993 22.463 27.4573C24.1819 28.6244 26.3846 28.0518 27.4791 26.5535C27.8497 26.0461 28.5371 25.8685 29.1157 26.1306L29.5297 26.3181C31.5506 27.2334 33.6953 27.8606 35.8984 28.1802C36.8176 28.3136 37.5 29.0854 37.5 29.994V34.8335C37.5 35.846 36.6585 36.6668 35.623 36.6668L35.6203 36.6668Z" fill="#00B3FF"/>
</svg>
