<svg width="349" height="434" viewBox="0 0 349 434" fill="none" xmlns="http://www.w3.org/2000/svg">
<path d="M35.1943 61.7437L46.8964 80.4946H46.9176L47.692 86.3701L50.4239 107.133L62.9006 105.484L59.4822 79.5394L65.1501 69.9067L61.9395 67.4254L59.542 71.6196L60.9009 52.9111L57.3417 52.9076L55.0604 67.1822L53.2932 51.1523L48.2025 52.0264L50.3536 67.8378L45.5446 52.2696L40.9222 52.6221L46.217 69.9455L38.236 57.7187L35.1943 61.7437Z" fill="#C0512B"/>
<path d="M65.1641 69.8084L61.7844 67.9792L59.7425 71.4897L60.2987 53.056L57.4401 53.5742L55.0286 67.0487L52.8916 51.1387L48.2094 51.9564L50.4238 67.9721L44.9389 52.4428L41.5345 53.4297L46.2555 69.8613L37.9648 58.5438L35.2258 61.7054L47.4313 80.1601L48.0052 85.7043L60.0699 83.3323L58.9645 79.0006L65.1641 69.8084Z" stroke="#000022" stroke-width="3" stroke-linecap="round" stroke-linejoin="round"/>
<path d="M184.242 358.132L143.997 357.154C138.619 357.023 133.409 359.037 129.514 362.752C125.618 366.467 123.357 371.579 123.226 376.964L183.761 378.435L184.253 358.132L184.242 358.132Z" fill="#000022"/>
<path d="M172.284 314.793L172.288 314.793C179.093 314.959 184.475 320.616 184.31 327.429L183.523 359.916C183.358 366.729 177.707 372.118 170.902 371.952L170.899 371.952C164.094 371.787 158.711 366.13 158.876 359.317L159.663 326.83C159.829 320.017 165.479 314.628 172.284 314.793Z" fill="#C0512B" stroke="#000022" stroke-width="3" stroke-miterlimit="10"/>
<path d="M94.8215 360.246L54.5766 359.268C49.1982 359.138 43.9883 361.151 40.093 364.866C36.1976 368.581 33.9359 373.694 33.8054 379.078L94.34 380.549L94.832 360.246L94.8215 360.246Z" fill="#000022"/>
<path d="M83.5706 316.911L83.5742 316.911C90.3792 317.076 95.7619 322.733 95.5968 329.546L94.8094 362.033C94.6443 368.846 88.9939 374.235 82.1888 374.07L82.1853 374.07C75.3803 373.904 69.9976 368.247 70.1627 361.434L70.9501 328.947C71.1152 322.134 76.7656 316.745 83.5706 316.911Z" fill="#C0512B" stroke="#000022" stroke-width="3" stroke-miterlimit="10"/>
<path d="M117.155 145.375C125.732 144.658 134.295 146.918 141.404 151.776C148.513 156.635 153.735 163.794 156.193 172.053L204.702 335.041L140.161 339.517L113.659 189.5L117.155 145.375Z" fill="#FCDBAA"/>
<path d="M111.378 142.569C119.502 145.429 126.394 151.003 130.897 158.352C135.399 165.702 137.236 174.38 136.099 182.926L113.754 351.518L53.0326 329.165L90.1597 181.403L111.378 142.569Z" fill="#FCDBAA"/>
<path d="M74.2223 66.0153C74.2297 67.2256 74.7152 68.3838 75.5727 69.237C76.4301 70.0902 77.59 70.5691 78.7989 70.5691H78.82L83.1573 70.5479V71.4115C83.1783 75.6583 84.7269 79.7555 87.5193 82.9525C90.3117 86.1494 94.161 88.2323 98.3623 88.8194L103.664 99.3932L115.507 93.4613L111.561 85.5838C113.813 83.9377 115.643 81.7793 116.899 79.2865C118.155 76.7937 118.801 74.0378 118.785 71.2458L118.739 61.0633C118.729 58.7441 118.262 56.4496 117.366 54.3108C116.47 52.1721 115.162 50.231 113.517 48.5984C111.872 46.9659 109.921 45.6738 107.777 44.796C105.633 43.9182 103.337 43.4719 101.02 43.4826H100.668C98.3517 43.4928 96.0598 43.9597 93.9236 44.8567C91.7874 45.7538 89.8485 47.0633 88.2179 48.7106C86.5872 50.3579 85.2966 52.3107 84.4199 54.4574C83.5431 56.6041 83.0973 58.9027 83.108 61.2219V61.3981L78.7708 61.4192C77.5594 61.4267 76.4004 61.9147 75.5478 62.7762C74.6952 63.6377 74.2185 64.8025 74.2223 66.0153Z" fill="#C0512B"/>
<path d="M95.7464 53.9845L95.7499 53.9845C99.0921 53.9693 101.814 56.6696 101.829 60.0157L101.838 61.9119C101.853 65.2581 99.1556 67.983 95.8134 67.9982L95.8099 67.9982C92.4676 68.0134 89.7459 65.3131 89.7308 61.967L89.7222 60.0707C89.707 56.7246 92.4041 53.9997 95.7464 53.9845Z" fill="#F8FAFC"/>
<path d="M89.5109 61.1388C89.5017 59.1182 90.6197 57.4752 92.0079 57.4689C93.3961 57.4625 94.5289 59.0954 94.5381 61.1159C94.5473 63.1365 93.4293 64.7795 92.0411 64.7858C90.6529 64.7921 89.5201 63.1593 89.5109 61.1388Z" fill="#010024"/>
<path d="M88.4206 73.8402C88.429 75.5683 89.1223 77.2224 90.3481 78.4391C91.5739 79.6558 93.232 80.3355 94.9582 80.329V80.329C95.8133 80.3253 96.6593 80.1529 97.4479 79.8218C98.2364 79.4906 98.9521 79.0072 99.554 78.399C100.156 77.7909 100.632 77.07 100.956 76.2775C101.279 75.4849 101.444 74.6364 101.439 73.7803" stroke="#010024" stroke-width="3" stroke-miterlimit="10" stroke-linecap="round"/>
<path d="M100.876 94.6744L98.3307 88.524C98.3307 88.524 84.4916 88.1151 83.0518 70.4534L78.2639 70.3759C77.0715 70.356 75.9334 69.8734 75.0895 69.0298C74.2456 68.1862 73.7618 67.0475 73.7401 65.8538V65.8538C73.7296 65.2361 73.8434 64.6226 74.0746 64.0497C74.3058 63.4769 74.6497 62.9565 75.0859 62.5195C75.5221 62.0825 76.0416 61.7378 76.6136 61.5059C77.1855 61.2739 77.7983 61.1596 78.4153 61.1696L83.0201 61.2472C83.0201 61.2472 82.8617 51.8682 89.4696 48.541" stroke="#000022" stroke-width="3" stroke-miterlimit="10" stroke-linecap="round"/>
<path d="M113.152 89.2148L111.283 85.7677C111.283 85.7677 116.648 82.3101 118.454 73.4141" stroke="#010024" stroke-width="3" stroke-miterlimit="10" stroke-linecap="round"/>
<path d="M136.612 205.522L111.976 349.678L51.4236 328.182" stroke="#000022" stroke-width="3" stroke-miterlimit="10" stroke-linecap="round"/>
<path d="M129.145 253.718C129.047 256.1 143.132 334.699 143.132 334.699L201.425 328.591" stroke="#000022" stroke-width="3" stroke-miterlimit="10" stroke-linecap="round"/>
<path d="M112.504 337.519L58.2852 318.489" stroke="#000022" stroke-width="3" stroke-miterlimit="10" stroke-linecap="round"/>
<path d="M94.5426 203.587C94.5426 203.587 96.3028 225.087 110.033 229.669" stroke="#000022" stroke-width="3" stroke-miterlimit="10" stroke-linecap="round"/>
<path d="M24.3018 47.624L24.3053 77.2306H73.6907V66.6568H85.5618V69.4765H88.7302L88.7267 52.9109H85.5583V57.1404H73.6907V47.624H24.3018Z" fill="#000022"/>
<path d="M78.2709 34.3895C78.2851 37.0284 78.9388 39.6245 80.1757 41.9548C81.4127 44.2852 83.1961 46.2802 85.3728 47.7685C87.5494 49.2569 90.0543 50.1942 92.6725 50.5C95.2906 50.8058 97.9438 50.4709 100.404 49.5241C103.543 54.0699 108.335 57.2049 113.754 58.258C112.886 59.4681 112.383 60.9023 112.306 62.3901C112.228 63.878 112.58 65.3567 113.318 66.6504C114.056 67.944 115.15 68.9982 116.469 69.6874C117.788 70.3766 119.277 70.6718 120.76 70.5378C122.242 70.4039 123.654 69.8465 124.829 68.932C126.004 68.0175 126.891 66.7843 127.386 65.3792C127.881 63.9741 127.962 62.4563 127.62 61.0064C127.277 59.5565 126.526 58.2355 125.456 57.2007C128.296 56.0781 130.86 54.3524 132.969 52.1424C135.079 49.9325 136.686 47.2908 137.677 44.3995C138.669 41.5081 139.023 38.4359 138.715 35.3944C138.406 32.3529 137.443 29.4146 135.891 26.7818C134.339 24.149 132.235 21.8844 129.725 20.1441C127.214 18.4037 124.357 17.229 121.349 16.7008C118.342 16.1726 115.255 16.3036 112.303 17.0847C109.351 17.8658 106.603 19.2784 104.249 21.2252C101.821 19.4223 98.9406 18.3316 95.9291 18.0751C92.9177 17.8187 89.8944 18.4066 87.1978 19.7731C84.5012 21.1396 82.2379 23.2307 80.6612 25.8122C79.0846 28.3937 78.2569 31.3637 78.2709 34.3895Z" fill="#010024"/>
<path d="M40.7178 87.4101L49.5508 133.899C50.2379 137.526 51.8522 140.913 54.2363 143.729C56.6204 146.545 59.6928 148.695 63.1539 149.968C69.4415 153.359 76.662 152.245 83.5551 146.616L119.792 114.965L96.7358 95.8691L72.7965 125.617L64.6536 82.8281L40.7178 87.4101Z" fill="#1A5FFE"/>
<path d="M94.5391 96.2981L72.8353 124.742L64.615 82.9082L42.4676 86.5526C38.1374 87.4726 50.8358 135.157 54.3281 140.176C55.9867 142.567 58.1639 144.551 60.6967 145.981C77.6161 155.437 92.9549 135.795 101.58 123.776" stroke="#000022" stroke-width="3" stroke-miterlimit="10" stroke-linecap="round"/>
<path d="M35.8984 59.7672L47.6005 78.518H47.6217L48.3961 84.3935L51.128 105.157L63.6047 103.511L60.1863 77.5663L65.8542 67.9336L62.6436 65.4488L60.2461 69.6431L61.605 50.9345H58.0458L55.7645 65.2091L53.9973 49.1758L48.9066 50.0499L51.0577 65.8612L46.2487 50.2931L41.6263 50.6491L46.9211 67.9689L38.9401 55.7421L35.8984 59.7672Z" fill="#C0512B"/>
<path d="M65.8682 67.8303L62.4885 66.001L60.4466 69.5115L61.0028 51.0779L58.1442 51.5996L55.7327 65.0705L53.5957 49.1641L48.9135 49.9782L51.1279 65.9975L45.643 50.4682L42.2386 51.455L46.9596 67.8832L38.6689 56.5692L35.9299 59.7273L48.1355 78.1855L48.7093 83.7262L60.774 81.3541L59.6686 77.0224L65.8682 67.8303Z" stroke="#000022" stroke-width="2" stroke-linecap="round" stroke-linejoin="round"/>
<path d="M81.3867 191.847L162.812 169.882L117.317 86.0352L94.1238 94.6211L81.3867 191.847Z" fill="#1A5FFE"/>
<path d="M41.422 85.4261L50.2549 131.912C50.9415 135.536 52.5541 138.92 54.9355 141.735C57.317 144.55 60.3862 146.699 63.8439 147.973C70.1351 151.375 77.3591 150.264 84.2628 144.632L120.496 112.978L97.4399 93.8886L73.5006 123.636L65.3754 80.8652L41.422 85.4261Z" fill="#1A5FFE"/>
<path d="M81.3514 192.132L154.549 171.323L115.053 86.7045L95.9966 94.0286L95.2432 94.3212L73.5394 122.765L65.3191 80.9277L43.1717 84.5898C38.8415 85.5097 51.5399 133.197 55.0322 138.213C56.6899 140.605 58.8673 142.589 61.4008 144.018C78.3202 153.478 93.659 133.832 102.284 121.813" stroke="#000022" stroke-width="3" stroke-miterlimit="10" stroke-linecap="round"/>
<path d="M313.806 108.744L302.104 127.495H302.082L301.308 133.37L298.576 154.133L286.099 152.484L289.518 126.539L283.85 116.907L287.061 114.425L289.458 118.62L288.099 99.9111L291.658 99.9076L293.94 114.182L295.707 98.1523L300.797 99.0264L298.646 114.838L303.455 99.2696L308.078 99.6221L302.783 116.945L310.764 104.719L313.806 108.744Z" fill="#C0512B"/>
<path d="M283.836 116.808L287.216 114.979L289.257 118.49L288.701 100.056L291.56 100.574L293.971 114.049L296.108 98.1387L300.791 98.9564L298.576 114.972L304.061 99.4428L307.465 100.43L302.744 116.861L311.035 105.544L313.774 108.705L301.569 127.16L300.995 132.704L288.93 130.332L290.036 126.001L283.836 116.808Z" stroke="#000022" stroke-width="3" stroke-linecap="round" stroke-linejoin="round"/>
<path d="M164.758 405.132L205.003 404.154C210.381 404.023 215.591 406.037 219.486 409.752C223.382 413.467 225.643 418.579 225.774 423.964L165.239 425.435L164.747 405.132L164.758 405.132Z" fill="#000022"/>
<path d="M176.716 361.793L176.712 361.793C169.907 361.959 164.525 367.616 164.69 374.429L165.477 406.916C165.642 413.729 171.293 419.118 178.098 418.952L178.101 418.952C184.906 418.787 190.289 413.13 190.124 406.317L189.337 373.83C189.171 367.017 183.521 361.628 176.716 361.793Z" fill="#C0512B" stroke="#000022" stroke-width="3" stroke-miterlimit="10"/>
<path d="M254.179 407.246L294.423 406.268C299.802 406.138 305.012 408.151 308.907 411.866C312.802 415.581 315.064 420.694 315.195 426.078L254.66 427.549L254.168 407.246L254.179 407.246Z" fill="#000022"/>
<path d="M265.429 363.911L265.426 363.911C258.621 364.076 253.238 369.733 253.403 376.546L254.191 409.033C254.356 415.846 260.006 421.235 266.811 421.07L266.815 421.07C273.62 420.904 279.002 415.247 278.837 408.434L278.05 375.947C277.885 369.134 272.234 363.745 265.429 363.911Z" fill="#C0512B" stroke="#000022" stroke-width="3" stroke-miterlimit="10"/>
<path d="M231.845 192.375C223.268 191.658 214.705 193.918 207.596 198.776C200.487 203.635 195.265 210.794 192.807 219.053L144.298 382.041L208.839 386.517L235.341 236.5L231.845 192.375Z" fill="#FCDBAA"/>
<path d="M237.622 189.569C229.498 192.429 222.606 198.003 218.103 205.352C213.601 212.702 211.764 221.38 212.901 229.926L235.246 398.518L295.967 376.165L258.84 228.403L237.622 189.569Z" fill="#FCDBAA"/>
<path d="M274.778 113.015C274.77 114.226 274.285 115.384 273.427 116.237C272.57 117.09 271.41 117.569 270.201 117.569H270.18L265.843 117.548V118.411C265.822 122.658 264.273 126.755 261.481 129.952C258.688 133.149 254.839 135.232 250.638 135.819L245.336 146.393L233.493 140.461L237.439 132.584C235.187 130.938 233.357 128.779 232.101 126.287C230.845 123.794 230.199 121.038 230.215 118.246L230.261 108.063C230.271 105.744 230.738 103.45 231.634 101.311C232.53 99.1721 233.838 97.231 235.483 95.5984C237.128 93.9659 239.079 92.6738 241.223 91.796C243.367 90.9182 245.663 90.4719 247.98 90.4826H248.332C250.648 90.4928 252.94 90.9597 255.076 91.8567C257.213 92.7538 259.151 94.0633 260.782 95.7106C262.413 97.3579 263.703 99.3107 264.58 101.457C265.457 103.604 265.903 105.903 265.892 108.222V108.398L270.229 108.419C271.441 108.427 272.6 108.915 273.452 109.776C274.305 110.638 274.781 111.803 274.778 113.015Z" fill="#C0512B"/>
<path d="M253.254 100.985L253.25 100.985C249.908 100.969 247.186 103.67 247.171 107.016L247.162 108.912C247.147 112.258 249.844 114.983 253.187 114.998L253.19 114.998C256.532 115.013 259.254 112.313 259.269 108.967L259.278 107.071C259.293 103.725 256.596 101 253.254 100.985Z" fill="#F8FAFC"/>
<path d="M259.489 108.139C259.498 106.118 258.38 104.475 256.992 104.469C255.604 104.463 254.471 106.095 254.462 108.116C254.453 110.136 255.571 111.78 256.959 111.786C258.347 111.792 259.48 110.159 259.489 108.139Z" fill="#010024"/>
<path d="M260.579 120.84C260.571 122.568 259.878 124.222 258.652 125.439C257.426 126.656 255.768 127.336 254.042 127.329V127.329C253.187 127.325 252.341 127.153 251.552 126.822C250.764 126.491 250.048 126.007 249.446 125.399C248.844 124.791 248.368 124.07 248.044 123.277C247.721 122.485 247.556 121.636 247.561 120.78" stroke="#010024" stroke-width="3" stroke-miterlimit="10" stroke-linecap="round"/>
<path d="M248.124 141.674L250.669 135.524C250.669 135.524 264.508 135.115 265.948 117.453L270.736 117.376C271.928 117.356 273.067 116.873 273.91 116.03C274.754 115.186 275.238 114.048 275.26 112.854V112.854C275.27 112.236 275.157 111.623 274.925 111.05C274.694 110.477 274.35 109.957 273.914 109.519C273.478 109.082 272.958 108.738 272.386 108.506C271.814 108.274 271.202 108.16 270.585 108.17L265.98 108.247C265.98 108.247 266.138 98.8682 259.53 95.541" stroke="#000022" stroke-width="3" stroke-miterlimit="10" stroke-linecap="round"/>
<path d="M235.848 136.215L237.717 132.768C237.717 132.768 232.352 129.31 230.546 120.414" stroke="#010024" stroke-width="3" stroke-miterlimit="10" stroke-linecap="round"/>
<path d="M212.388 252.522L237.024 396.678L297.576 375.182" stroke="#000022" stroke-width="3" stroke-miterlimit="10" stroke-linecap="round"/>
<path d="M219.855 300.718C219.953 303.1 205.868 381.699 205.868 381.699L147.575 375.591" stroke="#000022" stroke-width="3" stroke-miterlimit="10" stroke-linecap="round"/>
<path d="M236.496 384.519L290.715 365.489" stroke="#000022" stroke-width="3" stroke-miterlimit="10" stroke-linecap="round"/>
<path d="M254.457 250.587C254.457 250.587 252.697 272.087 238.967 276.669" stroke="#000022" stroke-width="3" stroke-miterlimit="10" stroke-linecap="round"/>
<path d="M324.698 94.624L324.695 124.231H275.309V113.657H263.438V116.476H260.27L260.273 99.9109H263.442V104.14H275.309V94.624H324.698Z" fill="#000022"/>
<path d="M270.729 81.3895C270.715 84.0284 270.061 86.6245 268.824 88.9548C267.587 91.2852 265.804 93.2802 263.627 94.7685C261.451 96.2569 258.946 97.1942 256.328 97.5C253.709 97.8058 251.056 97.4709 248.596 96.5241C245.457 101.07 240.665 104.205 235.246 105.258C236.114 106.468 236.617 107.902 236.694 109.39C236.772 110.878 236.42 112.357 235.682 113.65C234.944 114.944 233.85 115.998 232.531 116.687C231.212 117.377 229.723 117.672 228.24 117.538C226.758 117.404 225.346 116.847 224.171 115.932C222.996 115.017 222.109 113.784 221.614 112.379C221.119 110.974 221.038 109.456 221.38 108.006C221.723 106.556 222.474 105.236 223.544 104.201C220.704 103.078 218.14 101.352 216.031 99.1424C213.921 96.9325 212.314 94.2908 211.323 91.3995C210.331 88.5081 209.977 85.4359 210.285 82.3944C210.594 79.3529 211.557 76.4146 213.109 73.7818C214.661 71.149 216.765 68.8844 219.275 67.1441C221.786 65.4037 224.643 64.229 227.651 63.7008C230.658 63.1726 233.745 63.3036 236.697 64.0847C239.649 64.8658 242.397 66.2784 244.751 68.2252C247.179 66.4223 250.059 65.3316 253.071 65.0751C256.082 64.8187 259.106 65.4066 261.802 66.7731C264.499 68.1396 266.762 70.2307 268.339 72.8122C269.915 75.3937 270.743 78.3637 270.729 81.3895Z" fill="#010024"/>
<path d="M308.282 134.41L299.449 180.899C298.762 184.526 297.148 187.913 294.764 190.729C292.38 193.545 289.307 195.695 285.846 196.968C279.558 200.359 272.338 199.245 265.445 193.616L229.208 161.965L252.264 142.869L276.203 172.617L284.346 129.828L308.282 134.41Z" fill="#1A5FFE"/>
<path d="M254.461 143.298L276.165 171.742L284.385 129.908L306.532 133.553C310.863 134.473 298.164 182.157 294.672 187.176C293.013 189.567 290.836 191.551 288.303 192.981C271.384 202.437 256.045 182.795 247.42 170.776" stroke="#000022" stroke-width="3" stroke-miterlimit="10" stroke-linecap="round"/>
<path d="M313.102 106.767L301.399 125.518H301.378L300.604 131.393L297.872 152.157L285.395 150.511L288.814 124.566L283.146 114.934L286.356 112.449L288.754 116.643L287.395 97.9345H290.954L293.235 112.209L295.003 96.1758L300.093 97.0499L297.942 112.861L302.751 97.2931L307.374 97.6491L302.079 114.969L310.06 102.742L313.102 106.767Z" fill="#C0512B"/>
<path d="M283.132 114.83L286.512 113.001L288.553 116.512L287.997 98.0779L290.856 98.5996L293.267 112.071L295.404 96.1641L300.087 96.9782L297.872 112.998L303.357 97.4682L306.761 98.455L302.04 114.883L310.331 103.569L313.07 106.727L300.865 125.186L300.291 130.726L288.226 128.354L289.331 124.022L283.132 114.83Z" stroke="#000022" stroke-width="2" stroke-linecap="round" stroke-linejoin="round"/>
<path d="M267.613 238.847L186.188 216.882L231.683 133.035L254.876 141.621L267.613 238.847Z" fill="#1A5FFE"/>
<path d="M307.578 132.426L298.745 178.912C298.059 182.536 296.446 185.92 294.064 188.735C291.683 191.55 288.614 193.699 285.156 194.973C278.865 198.375 271.641 197.264 264.737 191.632L228.504 159.978L251.56 140.889L275.499 170.636L283.625 127.865L307.578 132.426Z" fill="#1A5FFE"/>
<path d="M267.649 239.132L194.451 218.323L233.947 133.705L253.003 141.029L253.757 141.321L275.461 169.765L283.681 127.928L305.828 131.59C310.158 132.51 297.46 180.197 293.968 185.213C292.31 187.605 290.133 189.589 287.599 191.018C270.68 200.478 255.341 180.832 246.716 168.813" stroke="#000022" stroke-width="3" stroke-miterlimit="10" stroke-linecap="round"/>
</svg>
