<svg width="44" height="44" viewBox="0 0 44 44" fill="none" xmlns="http://www.w3.org/2000/svg">
<path d="M16.5 5.5C11.4374 5.5 7.33334 9.60406 7.33334 14.6667C7.33334 19.7293 11.4374 23.8333 16.5 23.8333C21.5626 23.8333 25.6667 19.7293 25.6667 14.6667C25.6667 9.60406 21.5626 5.5 16.5 5.5ZM11 14.6667C11 11.6291 13.4624 9.16667 16.5 9.16667C19.5376 9.16667 22 11.6291 22 14.6667C22 17.7042 19.5376 20.1667 16.5 20.1667C13.4624 20.1667 11 17.7042 11 14.6667Z" fill="#FF725E"/>
<path d="M30.9988 15.0668C30.483 14.8039 29.9123 14.6668 29.3333 14.6668V11.0001C30.4913 11.0001 31.6327 11.2742 32.6643 11.8002C32.7779 11.8581 32.8899 11.9189 33 11.9825C33.8899 12.4963 34.6632 13.1921 35.2684 14.026C35.9485 14.9632 36.397 16.048 36.5773 17.1918C36.7575 18.3357 36.6643 19.5059 36.3054 20.6068C35.9464 21.7076 35.3318 22.7079 34.512 23.5256C33.6921 24.3433 32.6903 24.9552 31.5885 25.3113C30.608 25.6282 29.5732 25.7344 28.5515 25.6249C28.4251 25.6113 28.2988 25.5944 28.1729 25.5743C27.0303 25.3912 25.9473 24.9403 25.0124 24.2585L25.0105 24.2571L27.1719 21.2952C27.6396 21.6365 28.1815 21.8621 28.7531 21.9537C29.3248 22.0453 29.91 22.0003 30.4609 21.8222C31.0118 21.6442 31.5127 21.3382 31.9226 20.9294C32.3325 20.5205 32.6398 20.0204 32.8193 19.47C32.9987 18.9196 33.0453 18.3345 32.9552 17.7626C32.8651 17.1907 32.6408 16.6483 32.3008 16.1797C31.9607 15.7112 31.5146 15.3298 30.9988 15.0668Z" fill="#FF725E"/>
<path d="M36.6632 38.5C36.6632 37.5374 36.4736 36.5843 36.1052 35.695C35.7369 34.8057 35.197 33.9977 34.5163 33.317C33.8357 32.6364 33.0277 32.0965 32.1384 31.7281C31.2491 31.3597 30.2959 31.1701 29.3333 31.1701V27.5C30.5838 27.5 31.8237 27.7132 33 28.1291C33.1826 28.1936 33.3636 28.2631 33.5429 28.3373C34.8774 28.8901 36.0901 29.7004 37.1115 30.7218C38.133 31.7433 38.9432 32.9559 39.496 34.2905C39.5703 34.4698 39.6397 34.6508 39.7042 34.8333C40.1201 36.0096 40.3333 37.2495 40.3333 38.5H36.6632Z" fill="#FF725E"/>
<path d="M29.3333 38.5H25.6667C25.6667 33.4374 21.5626 29.3333 16.5 29.3333C11.4374 29.3333 7.33334 33.4374 7.33334 38.5H3.66667C3.66667 31.4123 9.41235 25.6667 16.5 25.6667C23.5877 25.6667 29.3333 31.4123 29.3333 38.5Z" fill="#FF725E"/>
</svg>
