<svg width="657" height="328" viewBox="0 0 657 328" fill="none" xmlns="http://www.w3.org/2000/svg">
<path fill-rule="evenodd" clip-rule="evenodd" d="M254.867 124.927L208.942 70.807L204.269 74.907L206.134 78.3674C206.313 78.5688 206.451 78.8035 206.54 79.0581C206.629 79.3128 206.666 79.5824 206.651 79.8516C206.635 80.1207 206.567 80.3842 206.449 80.6269C206.331 80.8696 206.167 81.0868 205.965 81.2661C205.764 81.4454 205.529 81.5833 205.274 81.6719C205.019 81.7604 204.749 81.798 204.479 81.7824C204.209 81.7668 203.946 81.6983 203.702 81.5809C203.459 81.4635 203.242 81.2994 203.062 81.098C202.751 80.7545 202.568 80.3142 202.545 79.8516C202.528 79.4523 202.634 79.0574 202.849 78.72L201.116 77.695L194.3 83.64L196.862 86.5838C197.041 86.7852 197.179 87.0199 197.268 87.2745C197.357 87.5292 197.395 87.7988 197.379 88.068C197.363 88.3371 197.295 88.6006 197.177 88.8433C197.059 89.086 196.895 89.3032 196.693 89.4825C196.492 89.6618 196.257 89.7997 196.002 89.8883C195.747 89.9768 195.477 90.0144 195.207 89.9988C194.937 89.9832 194.674 89.9147 194.431 89.7973C194.187 89.6799 193.97 89.5158 193.79 89.3144C193.482 88.9701 193.302 88.5297 193.281 88.068C193.251 87.6926 193.331 87.3164 193.511 86.9856L191.951 85.7064L184.847 91.963L186.021 94.136C186.149 94.1198 186.279 94.1198 186.407 94.136C186.73 94.1921 187.035 94.3246 187.297 94.5225C187.558 94.7205 187.768 94.978 187.909 95.2737C188.05 95.5693 188.119 95.8944 188.108 96.2217C188.097 96.549 188.008 96.8691 187.849 97.155C187.689 97.441 187.463 97.6845 187.189 97.8653C186.916 98.046 186.603 98.1587 186.277 98.1939C185.95 98.2291 185.621 98.1858 185.315 98.0675C185.009 97.9493 184.736 97.7596 184.518 97.5144C184.204 97.1728 184.021 96.7314 184.001 96.268C183.977 95.9362 184.036 95.6035 184.174 95.3004L182.531 93.9474L175.312 100.294L176.733 102.344C177.077 102.34 177.416 102.422 177.72 102.583C178.023 102.744 178.282 102.979 178.471 103.265C178.66 103.552 178.774 103.881 178.803 104.224C178.832 104.566 178.774 104.909 178.635 105.223C178.496 105.537 178.28 105.811 178.007 106.02C177.734 106.229 177.413 106.367 177.074 106.42C176.734 106.472 176.386 106.439 176.063 106.323C175.739 106.207 175.45 106.012 175.222 105.755C174.914 105.41 174.731 104.971 174.705 104.509C174.696 104.389 174.696 104.268 174.705 104.148L172.38 102.877L166.106 108.404L167.313 110.577C167.485 110.556 167.659 110.556 167.831 110.577C168.287 110.651 168.703 110.884 169.005 111.233C169.221 111.478 169.376 111.77 169.456 112.087C169.536 112.403 169.539 112.734 169.465 113.052C169.392 113.37 169.243 113.665 169.032 113.914C168.821 114.163 168.553 114.358 168.251 114.483C167.949 114.608 167.622 114.659 167.296 114.632C166.97 114.605 166.656 114.501 166.379 114.328C166.101 114.156 165.869 113.919 165.702 113.639C165.535 113.359 165.437 113.043 165.416 112.717C165.401 112.533 165.415 112.348 165.457 112.168C164.833 111.774 164.02 111.266 163.322 110.815L156.481 116.834L157.491 118.9C157.83 118.776 158.196 118.745 158.551 118.81C159.006 118.893 159.422 119.124 159.733 119.466C160.068 119.877 160.231 120.402 160.187 120.93C160.144 121.459 159.899 121.95 159.502 122.302C159.105 122.654 158.587 122.84 158.056 122.82C157.526 122.8 157.023 122.577 156.653 122.196C156.346 121.851 156.167 121.411 156.144 120.95C156.111 120.552 156.203 120.154 156.407 119.81L154.592 118.506L150.305 122.27L198.759 174.627C200.044 175.96 201.795 176.744 203.646 176.816C205.497 176.888 207.304 176.241 208.688 175.013L247.615 140.458L254.045 134.759C255.417 133.537 256.267 131.836 256.42 130.006C256.573 128.177 256.017 126.359 254.867 124.927Z" fill="url(#paint0_linear)"/>
<path d="M220.408 87.9129L165.376 136.749L165.66 137.068L220.691 88.2316L220.408 87.9129Z" fill="#E54D98"/>
<path d="M224.734 93.9299L169.703 142.766L169.987 143.085L225.018 94.2486L224.734 93.9299Z" fill="#C9A4AC"/>
<path d="M230.21 98.9307L175.179 147.767L175.463 148.085L230.494 99.2494L230.21 98.9307Z" fill="#C9A4AC"/>
<path d="M235.118 104.439L180.087 153.274L180.371 153.593L235.402 104.757L235.118 104.439Z" fill="#C9A4AC"/>
<path d="M240.013 109.94L184.982 158.776L185.266 159.095L240.297 110.259L240.013 109.94Z" fill="#C9A4AC"/>
<path d="M244.906 116.679L189.889 164.263L190.169 164.586L245.185 117.001L244.906 116.679Z" fill="#C9A4AC"/>
<path d="M248.776 121.059L194.784 169.787L195.071 170.103L249.062 121.375L248.776 121.059Z" fill="#C9A4AC"/>
<path d="M253.886 126.791L201.187 173.987L201.472 174.304L254.171 127.109L253.886 126.791Z" fill="#C9A4AC"/>
<path d="M197.048 81.3463L196.724 81.624L247.495 140.686L247.819 140.408L197.048 81.3463Z" fill="#E54D98"/>
<g style="mix-blend-mode:multiply" opacity="0.5">
<path d="M143.555 292.445L112.922 296.127H282.83H561.078L518.036 291.248H222.444L143.555 292.445Z" fill="#B589B6"/>
</g>
<path fill-rule="evenodd" clip-rule="evenodd" d="M173.12 279.153L177.801 292.076L480.037 293.691L487.313 280.776L173.12 279.153Z" fill="url(#paint1_linear)"/>
<path fill-rule="evenodd" clip-rule="evenodd" d="M219.643 253.077L148.679 266.623L152.482 279.054L505.751 280.776L508.682 268.706L432.01 251.486L219.643 253.077Z" fill="url(#paint2_linear)"/>
<path d="M397.674 253.79C396.886 253.744 396.116 253.538 395.41 253.185C394.704 252.833 394.077 252.341 393.567 251.74C392.557 250.707 391.407 249.28 390.085 247.64C384.731 240.908 376.65 230.764 364.183 230.764H363.986C338.749 230.986 332.286 249.411 332.228 249.624L332.138 249.879H331.867C328.499 249.826 325.133 250.065 321.807 250.592L317.84 251.223C309.167 252.626 309.167 252.626 304.47 252.347C302.392 252.224 299.255 252.043 293.95 251.912V251.182C299.271 251.314 302.417 251.494 304.495 251.617C309.118 251.888 309.118 251.888 317.708 250.502L321.675 249.87C324.962 249.353 328.285 249.109 331.612 249.141C332.499 246.869 339.825 230.281 363.961 230.067H364.167C376.986 230.067 385.199 240.375 390.636 247.214C391.958 248.854 393.099 250.289 394.077 251.314C396.36 253.651 398.676 253.774 400.95 251.584C403.028 249.608 404.695 246.262 405.837 242.827C404.657 241.064 403.821 239.094 403.373 237.021C403.1 235.918 403.13 234.762 403.461 233.675C403.792 232.588 404.412 231.61 405.254 230.846C406.551 229.682 407.307 230.117 407.644 230.477C408.875 231.806 408.342 237.333 406.617 242.671C409.237 246.697 413.187 250.338 415.766 251.355C422.336 253.979 431.961 252.814 432.051 252.798L432.15 253.528C431.747 253.577 422.245 254.725 415.495 252.035C412.891 250.994 409.007 247.525 406.313 243.565C405.122 246.976 403.447 250.207 401.443 252.117C400.447 253.135 399.098 253.734 397.674 253.79ZM406.789 230.74C406.398 230.809 406.04 231.005 405.771 231.297C405.027 231.982 404.482 232.855 404.193 233.823C403.904 234.791 403.881 235.82 404.129 236.8C404.501 238.576 405.191 240.27 406.165 241.802C407.676 236.841 408.103 231.962 407.134 230.879C407.09 230.833 407.036 230.796 406.977 230.772C406.918 230.748 406.854 230.737 406.789 230.74Z" fill="url(#paint3_linear)"/>
<path fill-rule="evenodd" clip-rule="evenodd" d="M426.968 112.906L425.161 140.433L424.085 156.702L420.48 211.06L420.028 217.923C419.912 219.582 419.168 221.135 417.949 222.268C416.729 223.4 415.124 224.028 413.458 224.024H223.717C222.026 224.026 220.399 223.376 219.175 222.211C217.952 221.046 217.225 219.454 217.147 217.767L212.704 113.496C212.656 112.606 212.79 111.714 213.099 110.877C213.407 110.04 213.884 109.275 214.499 108.628C215.114 107.981 215.854 107.466 216.675 107.114C217.496 106.763 218.381 106.582 219.274 106.584L243.599 106.493L259.137 106.436L320.361 106.206L370.244 106.034L386.078 105.977L420.373 105.854C421.281 105.848 422.181 106.03 423.015 106.388C423.848 106.747 424.599 107.274 425.219 107.937C425.838 108.599 426.314 109.383 426.615 110.238C426.916 111.094 427.036 112.002 426.968 112.906Z" fill="url(#paint4_radial)"/>
<path fill-rule="evenodd" clip-rule="evenodd" d="M219.019 111.053L421.424 110.323L416.045 210.519L221.581 211.199L219.019 111.053Z" fill="url(#paint5_radial)"/>
<path fill-rule="evenodd" clip-rule="evenodd" d="M216.966 213.659H420.34V218.505C420.338 219.968 419.755 221.371 418.719 222.405C417.683 223.44 416.278 224.022 414.813 224.024H222.493C221.027 224.024 219.621 223.443 218.585 222.408C217.548 221.373 216.966 219.969 216.966 218.505V213.659Z" fill="url(#paint6_radial)"/>
<path d="M414.288 223.04H359.872V219.383H414.288V223.04ZM360.241 222.671H413.91V219.76H360.241V222.671Z" fill="#835D9D"/>
<path d="M374.761 219.604H374.392V222.892H374.761V219.604Z" fill="#835D9D"/>
<path d="M388.944 219.604H388.574V222.892H388.944V219.604Z" fill="#835D9D"/>
<path d="M402.585 219.604H402.215V222.892H402.585V219.604Z" fill="#835D9D"/>
<path d="M231.921 217.546H223.01V220.145H231.921V217.546Z" fill="#00F1FF"/>
<g style="mix-blend-mode:soft-light">
<path fill-rule="evenodd" clip-rule="evenodd" d="M360.299 219.875L361.186 220.695L373.669 220.662L374.276 219.809L360.299 219.875Z" fill="white"/>
</g>
<g style="mix-blend-mode:soft-light">
<path fill-rule="evenodd" clip-rule="evenodd" d="M374.843 219.875L375.566 220.695L388.041 220.662L388.534 219.809L374.843 219.875Z" fill="white"/>
</g>
<g style="mix-blend-mode:soft-light">
<path fill-rule="evenodd" clip-rule="evenodd" d="M388.969 219.826L389.642 220.695L401.616 220.678L402.232 219.826H388.969Z" fill="white"/>
</g>
<g style="mix-blend-mode:soft-light">
<path fill-rule="evenodd" clip-rule="evenodd" d="M402.601 219.875L403.48 220.695L413.253 220.687L413.86 219.834L402.601 219.875Z" fill="white"/>
</g>
<g style="mix-blend-mode:soft-light">
<path fill-rule="evenodd" clip-rule="evenodd" d="M216.966 213.659L217.245 214.487L420.34 214.389V213.659H216.966Z" fill="white"/>
</g>
<path opacity="0.39" fill-rule="evenodd" clip-rule="evenodd" d="M337 106.6L339.685 110.036L423.018 109.306L418.624 185.935L422.123 186.755L427.223 113.25C427.285 112.305 427.153 111.357 426.834 110.464C426.515 109.572 426.016 108.755 425.368 108.063C424.72 107.371 423.936 106.819 423.066 106.442C422.195 106.065 421.256 105.87 420.308 105.87L337 106.6Z" fill="#C7D3FF"/>
<path opacity="0.39" fill-rule="evenodd" clip-rule="evenodd" d="M215.636 182.425L219.742 185.254L220.933 213.659H216.966L215.636 182.425Z" fill="#C7D3FF"/>
<path fill-rule="evenodd" clip-rule="evenodd" d="M308.642 224.016L311.549 241.342H329.683L331.883 224.016H308.642Z" fill="url(#paint7_radial)"/>
<path fill-rule="evenodd" clip-rule="evenodd" d="M311.566 241.375H305.776L302.787 253.077H337.739L335.242 241.375H329.691H311.566Z" fill="url(#paint8_radial)"/>
<path fill-rule="evenodd" clip-rule="evenodd" d="M269.896 252.191L271.908 255.233H279.775L320.263 253.077L361.949 255.233H373.603V252.191L327.358 242.991H305.365L269.896 252.191Z" fill="url(#paint9_radial)"/>
<path fill-rule="evenodd" clip-rule="evenodd" d="M311.278 239.719L269.896 252.191H279.291L320.263 243.663L362.376 252.191H373.603L329.633 239.793L311.278 239.719Z" fill="url(#paint10_radial)"/>
<g style="mix-blend-mode:multiply" opacity="0.5">
<path fill-rule="evenodd" clip-rule="evenodd" d="M320.263 243.663V253.077L361.949 255.233L362.376 252.191L320.263 243.663Z" fill="#400079"/>
</g>
<path style="mix-blend-mode:multiply" opacity="0.5" fill-rule="evenodd" clip-rule="evenodd" d="M311.278 239.719L311.344 245.516L320.263 243.663L329.839 245.598L329.88 239.801L311.278 239.719Z" fill="url(#paint11_linear)"/>
<path fill-rule="evenodd" clip-rule="evenodd" d="M148.679 266.623L508.682 268.706L505.512 281.768L152.482 279.054L148.679 266.623Z" fill="url(#paint12_linear)"/>
<g style="mix-blend-mode:soft-light" opacity="0.8">
<path fill-rule="evenodd" clip-rule="evenodd" d="M148.679 266.623L342.272 266.131L508.682 268.706L148.679 266.623Z" fill="#FBF9FA"/>
</g>
<g style="mix-blend-mode:multiply" opacity="0.5">
<path fill-rule="evenodd" clip-rule="evenodd" d="M173.12 279.153L176.01 287.107L335.423 283.13L482.665 289.034L486.837 281.621L173.12 279.153Z" fill="#9A2463"/>
</g>
<g style="mix-blend-mode:multiply" opacity="0.5">
<path fill-rule="evenodd" clip-rule="evenodd" d="M426.073 256.053L427.863 258.185L442.736 261.892C451.757 263.418 461.02 262.588 469.624 259.481L426.073 256.053Z" fill="#9A2463"/>
</g>
<path fill-rule="evenodd" clip-rule="evenodd" d="M426.073 256.053C426.073 256.053 429.785 246.213 442.999 243.819C456.213 241.424 466.716 253.61 469.624 259.481C469.624 259.481 460.097 262.129 442.999 260.055C442.999 260.055 433.587 255.643 428.389 257.464L426.073 256.053Z" fill="url(#paint13_radial)"/>
<path fill-rule="evenodd" clip-rule="evenodd" d="M428.389 257.48C428.389 257.48 436.749 250.379 440.412 251.437C444.075 252.494 442.999 260.071 442.999 260.071C442.999 260.071 435.566 257.324 428.389 257.48Z" fill="url(#paint14_radial)"/>
<g style="mix-blend-mode:multiply" opacity="0.5">
<g style="mix-blend-mode:multiply" opacity="0.5">
<path d="M438.416 245.049C439.4 244.97 440.389 245.005 441.364 245.155C442.343 245.289 443.305 245.531 444.23 245.877C445.162 246.209 446.059 246.632 446.908 247.14C447.757 247.655 448.562 248.239 449.314 248.886H449.24C450.832 249.213 452.452 249.388 454.077 249.411C455.703 249.466 457.329 249.292 458.906 248.895L458.832 249.157C458.207 248.549 457.54 247.984 456.837 247.468C456.128 246.948 455.391 246.469 454.627 246.033C453.869 245.591 453.088 245.188 452.287 244.827C451.466 244.458 450.644 244.147 449.823 243.852C451.531 244.342 453.182 245.01 454.751 245.844C456.325 246.678 457.78 247.717 459.079 248.936L459.276 249.124L459.005 249.198C457.398 249.623 455.739 249.817 454.077 249.772C452.42 249.749 450.769 249.56 449.15 249.206C448.405 248.537 447.606 247.931 446.76 247.394C445.935 246.877 445.063 246.438 444.157 246.082C443.247 245.726 442.307 245.451 441.348 245.262C440.382 245.075 439.398 245.004 438.416 245.049Z" fill="#9A2463"/>
</g>
</g>
<g style="mix-blend-mode:soft-light" opacity="0.5">
<path fill-rule="evenodd" clip-rule="evenodd" d="M435.583 249.157C435.583 249.157 438.506 246.697 440.6 246.098C440.6 246.098 445.799 247.066 448.09 250.674C449.463 252.829 450.073 255.381 449.823 257.923H444.017C444.017 257.923 444.477 248.001 435.583 249.157Z" fill="#FBF9FA"/>
</g>
<g style="mix-blend-mode:multiply" opacity="0.5">
<path fill-rule="evenodd" clip-rule="evenodd" d="M223.208 265.869L427.682 264.909L387.006 257.324L223.208 265.869Z" fill="#9A2463"/>
</g>
<g style="mix-blend-mode:soft-light" opacity="0.5">
<path fill-rule="evenodd" clip-rule="evenodd" d="M334.035 110.643L416.973 193.299L421.424 110.323L334.035 110.643Z" fill="#FBF9FA"/>
</g>
<g style="mix-blend-mode:soft-light" opacity="0.5">
<path fill-rule="evenodd" clip-rule="evenodd" d="M220.678 176.029L254.792 211.084L221.581 211.199L220.678 176.029Z" fill="#FBF9FA"/>
</g>
<g style="mix-blend-mode:multiply" opacity="0.5">
<path fill-rule="evenodd" clip-rule="evenodd" d="M257.199 211.101L251.385 106.493L401.238 105.854L387.006 210.65L257.199 211.101Z" fill="#9A2463"/>
</g>
<path fill-rule="evenodd" clip-rule="evenodd" d="M223.208 265.869L222.797 260.079L437.053 248.608L437.636 254.643L223.208 265.869Z" fill="url(#paint15_linear)"/>
<path fill-rule="evenodd" clip-rule="evenodd" d="M222.797 260.079L265.494 247.197L402.445 239.62L437.053 248.608L222.797 260.079Z" fill="url(#paint16_radial)"/>
<path fill-rule="evenodd" clip-rule="evenodd" d="M232.077 258.497L429.366 247.943L428.298 245.647L399.629 239.26L268.253 246.5L233.424 255.692L232.077 258.497Z" fill="url(#paint17_linear)"/>
<path fill-rule="evenodd" clip-rule="evenodd" d="M233.424 255.692L428.298 245.647L399.628 239.26L268.253 246.5L233.424 255.692Z" fill="url(#paint18_radial)"/>
<path d="M421.277 244.163L241.53 253.593L242.622 253.314L420.48 243.991L421.277 244.163Z" fill="url(#paint19_linear)"/>
<path d="M414.288 242.63L249.931 251.396L250.908 251.141L413.516 242.458L414.288 242.63Z" fill="url(#paint20_linear)"/>
<path d="M409.779 241.654L255.622 249.887L256.599 249.633L409.122 241.474L409.779 241.654Z" fill="url(#paint21_linear)"/>
<path d="M404.983 240.334L261.511 248.321L262.578 248.034L404.343 240.153L404.983 240.334Z" fill="url(#paint22_linear)"/>
<path d="M402.445 239.62L266.602 246.951L267.341 246.746L401.336 239.571L402.445 239.62Z" fill="url(#paint23_linear)"/>
<path d="M261.264 250.797L261.149 250.608L265.855 249.132L265.822 249.255L265.88 249.346L261.264 250.797Z" fill="url(#paint24_linear)"/>
<path d="M270.782 247.788L270.659 247.591L274.429 246.377L274.552 246.574L270.782 247.788Z" fill="url(#paint25_linear)"/>
<path d="M247.976 254.913L246.958 254.995L254.423 252.708L254.53 252.896L247.976 254.913Z" fill="url(#paint26_linear)"/>
<path d="M282.953 246.115L282.781 245.934L283.832 245.541L284.004 245.721L282.953 246.115Z" fill="url(#paint27_linear)"/>
<path d="M266.151 252.306H266.085L266.118 252.183L266.044 252.101L271.735 250.034H271.793L271.76 250.149L271.842 250.239L266.151 252.306Z" fill="url(#paint28_linear)"/>
<path d="M275.66 248.829H275.611L275.636 248.714L275.554 248.624L279.701 247.091L279.874 247.271L275.66 248.829Z" fill="url(#paint29_linear)"/>
<path d="M406.667 243.064L402.864 241.998L403.012 241.818L406.814 242.884L406.667 243.064Z" fill="url(#paint30_linear)"/>
<path d="M398.248 240.678L396.064 240.047L396.212 239.875L398.396 240.506L398.248 240.678Z" fill="url(#paint31_linear)"/>
<path d="M418.09 246.254L412.333 244.606L412.481 244.426L419.084 246.18L418.09 246.254Z" fill="url(#paint32_linear)"/>
<path d="M395.226 242.4L391.35 241.055L391.539 240.891L395.415 242.236L395.226 242.4Z" fill="url(#paint33_linear)"/>
<path d="M403.234 245.073L398.454 243.491L398.544 243.409L398.479 243.302H398.561L398.643 243.327L403.423 244.909L403.234 245.073Z" fill="url(#paint34_linear)"/>
<path d="M389.453 240.391L388.229 239.957L388.418 239.793L389.642 240.227L389.453 240.391Z" fill="url(#paint35_linear)"/>
<path d="M390.718 243.925L390.603 243.934L388.196 242.761L388.467 242.622L390.783 243.753L390.652 243.819L390.718 243.925Z" fill="url(#paint36_linear)"/>
<path d="M385.405 241.375L384.017 240.67L384.279 240.531L385.667 241.236L385.405 241.375Z" fill="url(#paint37_linear)"/>
<path d="M397.502 247.246L393.962 245.549L394.233 245.41L398.085 247.214L397.502 247.246Z" fill="url(#paint38_linear)"/>
<path d="M378.251 240.965L377.594 240.514L377.898 240.399L378.563 240.85L378.251 240.965Z" fill="url(#paint39_linear)"/>
<path d="M385.79 245.959L383.187 244.27L383.507 244.155L386.111 245.844L385.79 245.959Z" fill="url(#paint40_linear)"/>
<path d="M381.643 243.155L381.512 243.163L379.327 241.695L379.631 241.58L381.742 242.991L381.586 243.048L381.643 243.155Z" fill="url(#paint41_linear)"/>
<path d="M375.73 244.663L374.244 243.483L374.58 243.384L376.075 244.557L375.73 244.663Z" fill="url(#paint42_linear)"/>
<path d="M372.478 242.064L371.558 241.318L371.895 241.219L372.815 241.966L372.478 242.064Z" fill="url(#paint43_linear)"/>
<path d="M380.222 248.132L377.923 246.369L378.268 246.271L380.847 248.099L380.222 248.132Z" fill="url(#paint44_linear)"/>
<path d="M366.992 243.86L365.678 242.433L366.039 242.351L367.361 243.778L366.992 243.86Z" fill="url(#paint45_linear)"/>
<path d="M364.972 241.654L364.824 241.498L365.185 241.416L365.333 241.58L364.972 241.654Z" fill="url(#paint46_linear)"/>
<path d="M369.751 246.787L368.109 245.049L368.478 244.975L370.129 246.705L369.751 246.787Z" fill="url(#paint47_linear)"/>
<path d="M358.788 242.802L358.344 241.99L358.73 241.949L359.174 242.753L358.788 242.802Z" fill="url(#paint48_linear)"/>
<path d="M362.294 249.059L361.243 247.214L361.646 247.164L362.697 249.009L362.294 249.059Z" fill="url(#paint49_linear)"/>
<path d="M360.25 245.451L359.576 244.245L359.97 244.196L360.644 245.401L360.25 245.451Z" fill="url(#paint50_linear)"/>
<path d="M288.497 246.787L288.292 246.615L291.7 245.114L291.905 245.278L288.497 246.787Z" fill="url(#paint51_linear)"/>
<path d="M272.039 253.815L271.842 253.642L276.876 251.535L277.073 251.707L272.039 253.815Z" fill="url(#paint52_linear)"/>
<path d="M281.787 249.698L281.582 249.526L284.81 248.14L285.015 248.312L281.787 249.698Z" fill="url(#paint53_linear)"/>
<path d="M294.377 247.796L294.13 247.64L297.054 246.131L297.3 246.287L294.377 247.796Z" fill="url(#paint54_linear)"/>
<path d="M299.271 245.254L299.198 245.262L299.206 245.147L299.091 245.073L299.206 245.008L299.452 245.164L299.271 245.254Z" fill="url(#paint55_linear)"/>
<path d="M287.791 251.133L287.528 250.994L291.453 249.009L291.7 249.165L287.791 251.133Z" fill="url(#paint56_linear)"/>
<path d="M304.519 245.885L304.256 245.738L305.973 244.754L306.236 244.901L304.519 245.885Z" fill="url(#paint57_linear)"/>
<path d="M292.677 252.716L292.381 252.585L295.551 250.576L295.847 250.707L292.677 252.716Z" fill="url(#paint58_linear)"/>
<path d="M299.403 248.755L299.14 248.608L301.571 247.255L301.834 247.402L299.403 248.755Z" fill="url(#paint59_linear)"/>
<path d="M308.782 247.017L308.478 246.894L310.589 245.393L310.892 245.516L308.782 247.017Z" fill="url(#paint60_linear)"/>
<path d="M303.887 250.412L303.575 250.28L303.78 250.141L306.572 248.222L306.884 248.345L303.887 250.412Z" fill="url(#paint61_linear)"/>
<path d="M315.122 247.894L314.777 247.796L316.173 246.492L316.51 246.59L315.122 247.894Z" fill="url(#paint62_linear)"/>
<path d="M312.683 249.756V249.747L313.093 249.723L312.683 249.756Z" fill="url(#paint63_linear)"/>
<path d="M318.07 245.106L317.725 245.008L318.735 244.04L318.916 244.081L319.08 244.13L318.07 245.106Z" fill="url(#paint64_linear)"/>
<path d="M326.315 243.745L325.954 243.663L325.971 243.638L326.332 243.72L326.315 243.745Z" fill="url(#paint65_linear)"/>
<path d="M322.259 249.214L321.881 249.141L323.236 247.361L323.614 247.427L322.259 249.214Z" fill="url(#paint66_linear)"/>
<path d="M324.566 246.148L324.197 246.074L325.273 244.598L325.642 244.672L324.566 246.148Z" fill="url(#paint67_linear)"/>
<path d="M331.539 247L331.145 246.959L331.67 245.688L332.064 245.729L331.539 247Z" fill="url(#paint68_linear)"/>
<path d="M332.656 244.27L332.27 244.229L332.639 243.278L333.025 243.335L333 243.376L332.656 244.27Z" fill="url(#paint69_linear)"/>
<path d="M339.069 245.344L338.667 245.328L338.897 243.868L339.299 243.884L339.069 245.344Z" fill="url(#paint70_linear)"/>
<path d="M339.422 243.015L339.02 242.999L339.028 242.95L339.431 242.966L339.422 243.015Z" fill="url(#paint71_linear)"/>
<path d="M338.585 248.411H338.174L338.478 246.574L338.881 246.59L338.585 248.411Z" fill="url(#paint72_linear)"/>
<path d="M346.264 243.483L345.869 243.499L345.664 242.605L346.058 242.581L346.264 243.483Z" fill="url(#paint73_linear)"/>
<path d="M346.879 246.148L346.469 246.172L346.198 244.942L346.6 244.918L346.879 246.148Z" fill="url(#paint74_linear)"/>
<path d="M352.522 242.302L352.497 242.228L352.891 242.195L352.916 242.261L352.522 242.302Z" fill="url(#paint75_linear)"/>
<path d="M354.533 247.484L353.876 245.787L354.279 245.746L354.944 247.451L354.533 247.484Z" fill="url(#paint76_linear)"/>
<path d="M353.392 244.565L352.833 243.122L353.228 243.089L353.794 244.524L353.392 244.565Z" fill="url(#paint77_linear)"/>
<path d="M234.368 258.374L234.155 259.071L426.656 248.772L427.058 248.083L234.368 258.374Z" fill="url(#paint78_linear)"/>
<g style="mix-blend-mode:soft-light" opacity="0.5">
<path fill-rule="evenodd" clip-rule="evenodd" d="M410.108 248.977L409.853 246.599L424.406 245.852L423.609 248.206L410.108 248.977Z" fill="#FBF9FA"/>
</g>
<g style="mix-blend-mode:soft-light" opacity="0.5">
<path fill-rule="evenodd" clip-rule="evenodd" d="M405.911 250.272L406.199 252.027L425.457 250.945L425.383 249.231L405.911 250.272Z" fill="#FBF9FA"/>
</g>
<path fill-rule="evenodd" clip-rule="evenodd" d="M199.752 182.425C199.752 182.425 201.715 179.08 218.387 176.899L217.163 152.7C217.163 152.7 201.822 153.217 194.39 157.473L199.752 182.425Z" fill="url(#paint79_linear)"/>
<g style="mix-blend-mode:multiply" opacity="0.3">
<path fill-rule="evenodd" clip-rule="evenodd" d="M215.414 177.317L214.371 152.84L217.163 152.7L218.387 176.899L215.414 177.317Z" fill="#953345"/>
</g>
<path fill-rule="evenodd" clip-rule="evenodd" d="M216.974 148.879C216.974 148.879 201.576 149.543 191.983 150.454L191.392 138.744C191.392 138.744 205.961 137.711 216.399 137.424L216.974 148.879Z" fill="url(#paint80_linear)"/>
<g style="mix-blend-mode:multiply" opacity="0.3">
<path fill-rule="evenodd" clip-rule="evenodd" d="M214.207 149.002L216.974 148.879L216.399 137.424L213.714 137.465L214.207 149.002Z" fill="#953345"/>
</g>
<path fill-rule="evenodd" clip-rule="evenodd" d="M57.9062 86.2148C57.9062 86.2148 65.741 88.2484 73.1569 96.0548L79.4476 89.3062C79.4476 89.3062 75.6699 80.7372 64.3284 76.3256L57.9062 86.2148Z" fill="url(#paint81_linear)"/>
<path fill-rule="evenodd" clip-rule="evenodd" d="M75.21 160.597C75.21 160.597 81.936 147.092 95.7412 141.639L107.239 159.433C100.556 162.409 94.8984 167.283 90.9697 173.446L75.21 160.597Z" fill="url(#paint82_linear)"/>
<path fill-rule="evenodd" clip-rule="evenodd" d="M394.898 90.0442L393.855 105.977L391.711 138.654L387.006 210.65L257.199 211.101L251.385 106.493L250.588 92.3238L383.959 90.2164L394.898 90.0442Z" fill="url(#paint83_linear)"/>
<g style="mix-blend-mode:multiply" opacity="0.2">
<path fill-rule="evenodd" clip-rule="evenodd" d="M283.643 96.2762L284.949 108.142L359.666 107.346L360.947 95.7842L283.643 96.2762Z" fill="#3117D6"/>
</g>
<path d="M271.907 112.799H266.791V117.908H271.907V112.799Z" fill="#FF3B60"/>
<path d="M271.907 141.286H266.791V146.395H271.907V141.286Z" fill="#FF3B60"/>
<path d="M271.907 168.994H266.791V174.102H271.907V168.994Z" fill="#FF3B60"/>
<path d="M271.907 197.374H266.791V202.483H271.907V197.374Z" fill="#FF3B60"/>
<path d="M281.171 134.66C280.448 134.66 279.742 134.446 279.141 134.045C278.54 133.644 278.071 133.075 277.795 132.408C277.518 131.741 277.446 131.007 277.587 130.3C277.728 129.592 278.076 128.941 278.587 128.431C279.098 127.921 279.749 127.573 280.458 127.433C281.167 127.292 281.902 127.364 282.57 127.64C283.237 127.916 283.808 128.384 284.21 128.984C284.611 129.584 284.826 130.29 284.826 131.011C284.824 131.979 284.438 132.905 283.753 133.589C283.068 134.273 282.14 134.658 281.171 134.66ZM281.171 128.15C280.604 128.15 280.05 128.317 279.579 128.632C279.107 128.946 278.74 129.393 278.523 129.916C278.306 130.439 278.249 131.015 278.36 131.57C278.471 132.125 278.744 132.635 279.144 133.035C279.545 133.435 280.056 133.708 280.612 133.818C281.168 133.929 281.744 133.872 282.268 133.655C282.792 133.439 283.239 133.072 283.554 132.601C283.869 132.131 284.037 131.577 284.037 131.011C284.037 130.252 283.735 129.524 283.198 128.988C282.66 128.451 281.931 128.15 281.171 128.15Z" fill="#FF3B60"/>
<path d="M281.171 162.836C280.448 162.836 279.742 162.622 279.141 162.221C278.54 161.82 278.071 161.25 277.795 160.583C277.518 159.916 277.446 159.183 277.587 158.475C277.728 157.767 278.076 157.117 278.587 156.606C279.098 156.096 279.749 155.749 280.458 155.608C281.167 155.467 281.902 155.539 282.57 155.815C283.237 156.092 283.808 156.559 284.21 157.159C284.611 157.759 284.826 158.465 284.826 159.187C284.824 160.154 284.438 161.081 283.753 161.764C283.068 162.448 282.14 162.833 281.171 162.836ZM281.171 156.325C280.604 156.325 280.05 156.493 279.579 156.807C279.107 157.122 278.74 157.569 278.523 158.091C278.306 158.614 278.249 159.19 278.36 159.745C278.471 160.3 278.744 160.81 279.144 161.21C279.545 161.61 280.056 161.883 280.612 161.993C281.168 162.104 281.744 162.047 282.268 161.831C282.792 161.614 283.239 161.247 283.554 160.777C283.869 160.306 284.037 159.753 284.037 159.187C284.037 158.811 283.963 158.439 283.819 158.091C283.675 157.744 283.464 157.429 283.198 157.163C282.932 156.897 282.616 156.686 282.268 156.543C281.92 156.399 281.548 156.325 281.171 156.325Z" fill="#FF3B60"/>
<path d="M281.171 193.471C280.448 193.471 279.742 193.257 279.141 192.856C278.54 192.455 278.071 191.885 277.795 191.218C277.518 190.551 277.446 189.818 277.587 189.11C277.728 188.402 278.076 187.752 278.587 187.242C279.098 186.731 279.749 186.384 280.458 186.243C281.167 186.102 281.902 186.174 282.57 186.451C283.237 186.727 283.808 187.194 284.21 187.795C284.611 188.395 284.826 189.1 284.826 189.822C284.826 190.79 284.441 191.718 283.755 192.402C283.07 193.086 282.14 193.471 281.171 193.471ZM281.171 186.96C280.604 186.96 280.05 187.128 279.579 187.442C279.107 187.757 278.74 188.204 278.523 188.727C278.306 189.25 278.249 189.825 278.36 190.38C278.471 190.935 278.744 191.445 279.144 191.845C279.545 192.246 280.056 192.518 280.612 192.629C281.168 192.739 281.744 192.682 282.268 192.466C282.792 192.249 283.239 191.882 283.554 191.412C283.869 190.941 284.037 190.388 284.037 189.822C284.035 189.063 283.733 188.337 283.195 187.801C282.658 187.264 281.931 186.962 281.171 186.96Z" fill="#FF3B60"/>
<path d="M346.436 134.66C345.713 134.66 345.006 134.446 344.405 134.045C343.804 133.644 343.336 133.075 343.059 132.408C342.783 131.741 342.71 131.007 342.851 130.3C342.992 129.592 343.341 128.941 343.852 128.431C344.363 127.921 345.014 127.573 345.723 127.433C346.432 127.292 347.167 127.364 347.834 127.64C348.502 127.916 349.073 128.384 349.475 128.984C349.876 129.584 350.09 130.29 350.09 131.011C350.088 131.979 349.703 132.905 349.018 133.589C348.333 134.273 347.404 134.658 346.436 134.66ZM346.436 128.15C345.869 128.15 345.315 128.317 344.843 128.632C344.372 128.946 344.005 129.393 343.788 129.916C343.571 130.439 343.514 131.015 343.625 131.57C343.735 132.125 344.008 132.635 344.409 133.035C344.81 133.435 345.321 133.708 345.877 133.818C346.433 133.929 347.009 133.872 347.533 133.655C348.056 133.439 348.504 133.072 348.819 132.601C349.134 132.131 349.302 131.577 349.302 131.011C349.303 130.635 349.23 130.263 349.086 129.915C348.942 129.567 348.731 129.251 348.465 128.985C348.199 128.719 347.882 128.509 347.534 128.365C347.186 128.222 346.813 128.149 346.436 128.15Z" fill="#FF3B60"/>
<path d="M346.436 162.836C345.713 162.836 345.006 162.622 344.405 162.221C343.804 161.82 343.336 161.25 343.059 160.583C342.783 159.916 342.71 159.183 342.851 158.475C342.992 157.767 343.341 157.117 343.852 156.606C344.363 156.096 345.014 155.749 345.723 155.608C346.432 155.467 347.167 155.539 347.834 155.815C348.502 156.092 349.073 156.559 349.475 157.159C349.876 157.759 350.09 158.465 350.09 159.187C350.088 160.154 349.703 161.081 349.018 161.764C348.333 162.448 347.404 162.833 346.436 162.836ZM346.436 156.325C345.869 156.325 345.315 156.493 344.843 156.807C344.372 157.122 344.005 157.569 343.788 158.091C343.571 158.614 343.514 159.19 343.625 159.745C343.735 160.3 344.008 160.81 344.409 161.21C344.81 161.61 345.321 161.883 345.877 161.993C346.433 162.104 347.009 162.047 347.533 161.831C348.056 161.614 348.504 161.247 348.819 160.777C349.134 160.306 349.302 159.753 349.302 159.187C349.303 158.81 349.23 158.438 349.086 158.09C348.942 157.742 348.731 157.427 348.465 157.161C348.199 156.895 347.882 156.684 347.534 156.54C347.186 156.397 346.813 156.324 346.436 156.325Z" fill="#FF3B60"/>
<path d="M346.436 193.471C345.713 193.471 345.006 193.257 344.405 192.856C343.804 192.455 343.336 191.885 343.059 191.218C342.783 190.551 342.71 189.818 342.851 189.11C342.992 188.402 343.341 187.752 343.852 187.242C344.363 186.731 345.014 186.384 345.723 186.243C346.432 186.102 347.167 186.174 347.834 186.451C348.502 186.727 349.073 187.194 349.475 187.795C349.876 188.395 350.09 189.1 350.09 189.822C350.09 190.79 349.705 191.718 349.02 192.402C348.335 193.086 347.405 193.471 346.436 193.471ZM346.436 186.96C345.869 186.96 345.315 187.128 344.843 187.442C344.372 187.757 344.005 188.204 343.788 188.727C343.571 189.25 343.514 189.825 343.625 190.38C343.735 190.935 344.008 191.445 344.409 191.845C344.81 192.246 345.321 192.518 345.877 192.629C346.433 192.739 347.009 192.682 347.533 192.466C348.056 192.249 348.504 191.882 348.819 191.412C349.134 190.941 349.302 190.388 349.302 189.822C349.302 189.446 349.228 189.074 349.084 188.727C348.94 188.379 348.729 188.064 348.463 187.798C348.196 187.532 347.88 187.322 347.533 187.178C347.185 187.034 346.812 186.96 346.436 186.96Z" fill="#FF3B60"/>
<g style="mix-blend-mode:multiply" opacity="0.2">
<g style="mix-blend-mode:multiply" opacity="0.2">
<path d="M377.849 141.286H350.583V144.705H377.849V141.286Z" fill="#6A1760"/>
</g>
<g style="mix-blend-mode:multiply" opacity="0.2">
<path d="M348.998 141.286H336.491V144.705H348.998V141.286Z" fill="#6A1760"/>
</g>
<g style="mix-blend-mode:multiply" opacity="0.2">
<path d="M334.035 112.799H273.706V116.219H334.035V112.799Z" fill="#6A1760"/>
</g>
<g style="mix-blend-mode:multiply" opacity="0.2">
<path d="M298.294 118.506H273.706V121.926H298.294V118.506Z" fill="#6A1760"/>
</g>
<g style="mix-blend-mode:multiply" opacity="0.2">
<path d="M366.787 112.799H350.583V116.219H366.787V112.799Z" fill="#6A1760"/>
</g>
<g style="mix-blend-mode:multiply" opacity="0.2">
<path d="M339.045 118.506H300.931V121.926H339.045V118.506Z" fill="#6A1760"/>
</g>
<g style="mix-blend-mode:multiply" opacity="0.2">
<path d="M341.607 112.799H336.491V116.219H341.607V112.799Z" fill="#6A1760"/>
</g>
<g style="mix-blend-mode:multiply" opacity="0.2">
<path d="M348.998 112.799H343.882V116.219H348.998V112.799Z" fill="#6A1760"/>
</g>
<g style="mix-blend-mode:multiply" opacity="0.2">
<path d="M334.035 141.286H273.706V144.705H334.035V141.286Z" fill="#6A1760"/>
</g>
<g style="mix-blend-mode:multiply" opacity="0.2">
<path d="M298.294 146.985H273.706V150.404H298.294V146.985Z" fill="#6A1760"/>
</g>
<g style="mix-blend-mode:multiply" opacity="0.2">
<path d="M348.998 146.985H300.931V150.404H348.998V146.985Z" fill="#6A1760"/>
</g>
<g style="mix-blend-mode:multiply" opacity="0.2">
<path d="M377.849 197.374H350.583V200.793H377.849V197.374Z" fill="#6A1760"/>
</g>
<g style="mix-blend-mode:multiply" opacity="0.2">
<path d="M348.998 197.374H336.491V200.793H348.998V197.374Z" fill="#6A1760"/>
</g>
<g style="mix-blend-mode:multiply" opacity="0.2">
<path d="M334.035 197.374H273.706V200.793H334.035V197.374Z" fill="#6A1760"/>
</g>
<g style="mix-blend-mode:multiply" opacity="0.2">
<path d="M298.294 203.073H273.706V206.492H298.294V203.073Z" fill="#6A1760"/>
</g>
<g style="mix-blend-mode:multiply" opacity="0.2">
<path d="M348.998 203.073H300.931V206.492H348.998V203.073Z" fill="#6A1760"/>
</g>
<g style="mix-blend-mode:multiply" opacity="0.2">
<path d="M377.849 168.994H350.583V172.413H377.849V168.994Z" fill="#6A1760"/>
</g>
<g style="mix-blend-mode:multiply" opacity="0.2">
<path d="M348.998 168.994H336.491V172.413H348.998V168.994Z" fill="#6A1760"/>
</g>
<g style="mix-blend-mode:multiply" opacity="0.2">
<path d="M334.035 168.994H273.706V172.413H334.035V168.994Z" fill="#6A1760"/>
</g>
<g style="mix-blend-mode:multiply" opacity="0.2">
<path d="M298.294 174.693H273.706V178.112H298.294V174.693Z" fill="#6A1760"/>
</g>
<g style="mix-blend-mode:multiply" opacity="0.2">
<path d="M348.998 174.693H300.931V178.112H348.998V174.693Z" fill="#6A1760"/>
</g>
<g style="mix-blend-mode:multiply" opacity="0.2">
<path d="M310.153 129.634H287.101V132.135H310.153V129.634Z" fill="#6A1760"/>
</g>
<g style="mix-blend-mode:multiply" opacity="0.2">
<path d="M375.714 188.575H352.661V191.076H375.714V188.575Z" fill="#6A1760"/>
</g>
<g style="mix-blend-mode:multiply" opacity="0.2">
<path d="M310.153 157.932H287.101V160.433H310.153V157.932Z" fill="#6A1760"/>
</g>
<g style="mix-blend-mode:multiply" opacity="0.2">
<path d="M310.153 187.493H287.101V189.994H310.153V187.493Z" fill="#6A1760"/>
</g>
<g style="mix-blend-mode:multiply" opacity="0.2">
<path d="M295.929 191.831H287.101V194.332H295.929V191.831Z" fill="#6A1760"/>
</g>
<g style="mix-blend-mode:multiply" opacity="0.2">
<path d="M375.746 157.932H352.694V160.433H375.746V157.932Z" fill="#6A1760"/>
</g>
<g style="mix-blend-mode:multiply" opacity="0.2">
<path d="M375.746 127.682H352.694V130.183H375.746V127.682Z" fill="#6A1760"/>
</g>
<g style="mix-blend-mode:multiply" opacity="0.2">
<path d="M366.786 131.577H352.694V134.078H366.786V131.577Z" fill="#6A1760"/>
</g>
</g>
<path d="M273.016 132.93H271.07L270.585 134.078H269.452L272.097 127.986H272.162L274.807 134.078H273.476L273.016 132.93ZM272.63 131.963L272.064 130.536L271.472 131.963H272.63Z" fill="#967EA5"/>
<path d="M340.342 131.553C340.519 131.788 340.609 132.078 340.597 132.373C340.61 132.62 340.563 132.867 340.458 133.091C340.354 133.316 340.195 133.511 339.997 133.66C339.567 133.95 339.055 134.096 338.536 134.078H336.581V128.215H338.355C338.869 128.189 339.379 128.321 339.817 128.592C339.992 128.715 340.133 128.88 340.227 129.073C340.32 129.265 340.363 129.478 340.351 129.691C340.357 129.959 340.295 130.225 340.17 130.462C340.046 130.679 339.868 130.859 339.653 130.987C339.925 131.117 340.161 131.311 340.342 131.553ZM337.747 130.618H338.453C338.545 130.624 338.637 130.609 338.722 130.575C338.807 130.541 338.884 130.488 338.946 130.421C339.064 130.288 339.129 130.115 339.127 129.937C339.13 129.851 339.114 129.766 339.078 129.687C339.042 129.609 338.989 129.54 338.922 129.486C338.763 129.37 338.568 129.315 338.371 129.33H337.747V130.618ZM339.176 132.84C339.258 132.788 339.325 132.715 339.37 132.628C339.415 132.542 339.436 132.445 339.431 132.348C339.431 131.938 339.094 131.725 338.437 131.725H337.772V133.004H338.519C338.749 133.014 338.978 132.957 339.176 132.84Z" fill="#967EA5"/>
<path d="M273.016 161.294H271.07L270.585 162.442H269.452L272.097 156.341H272.162L274.807 162.442H273.476L273.016 161.294ZM272.63 160.318L272.064 158.891L271.472 160.318H272.63Z" fill="#967EA5"/>
<path d="M340.343 159.9C340.518 160.137 340.607 160.426 340.597 160.72C340.616 160.97 340.573 161.22 340.471 161.449C340.369 161.678 340.212 161.878 340.014 162.032C339.583 162.322 339.071 162.468 338.552 162.45H336.598V156.62H338.355C338.87 156.59 339.381 156.722 339.817 156.997C339.992 157.118 340.132 157.282 340.226 157.473C340.319 157.664 340.362 157.876 340.351 158.088C340.358 158.356 340.296 158.622 340.17 158.859C340.049 159.079 339.87 159.264 339.653 159.392C339.919 159.505 340.156 159.679 340.343 159.9ZM337.747 158.965H338.454C338.545 158.971 338.637 158.957 338.722 158.923C338.808 158.888 338.884 158.836 338.946 158.768C339.066 158.636 339.13 158.463 339.127 158.285C339.131 158.2 339.114 158.115 339.078 158.038C339.042 157.961 338.989 157.894 338.922 157.842C338.763 157.726 338.568 157.67 338.372 157.686H337.747V158.965ZM339.152 161.196C339.232 161.142 339.298 161.068 339.342 160.982C339.387 160.896 339.409 160.8 339.406 160.704C339.406 160.285 339.07 160.08 338.413 160.08H337.747V161.36H338.495C338.732 161.376 338.97 161.322 339.176 161.204L339.152 161.196Z" fill="#967EA5"/>
<path d="M273.016 191.675H271.07L270.585 192.823H269.452L272.097 186.73H272.162L274.807 192.823H273.476L273.016 191.675ZM272.63 190.707L272.064 189.281L271.472 190.707H272.63Z" fill="#967EA5"/>
<path d="M340.343 190.297C340.519 190.533 340.609 190.823 340.597 191.117C340.617 191.367 340.574 191.618 340.472 191.847C340.37 192.076 340.213 192.276 340.014 192.429C339.583 192.719 339.071 192.866 338.552 192.848H336.598V186.96H338.355C338.87 186.934 339.379 187.066 339.817 187.337C339.992 187.46 340.133 187.625 340.227 187.817C340.32 188.01 340.363 188.223 340.351 188.436C340.358 188.704 340.296 188.97 340.17 189.207C340.049 189.425 339.87 189.607 339.653 189.732C339.923 189.865 340.159 190.058 340.343 190.297ZM337.747 189.363H338.454C338.545 189.369 338.637 189.354 338.722 189.32C338.808 189.286 338.884 189.233 338.946 189.166C339.064 189.032 339.129 188.86 339.127 188.682C339.131 188.596 339.114 188.51 339.078 188.432C339.043 188.354 338.989 188.285 338.922 188.231C338.76 188.12 338.567 188.066 338.372 188.075H337.747V189.363ZM339.152 191.585C339.234 191.533 339.301 191.46 339.346 191.373C339.39 191.287 339.411 191.19 339.406 191.093C339.406 190.683 339.07 190.478 338.413 190.478H337.747V191.749H338.495C338.733 191.763 338.971 191.706 339.176 191.585H339.152Z" fill="#967EA5"/>
<path fill-rule="evenodd" clip-rule="evenodd" d="M282.814 131.011C282.814 131.336 282.717 131.653 282.537 131.923C282.357 132.192 282.1 132.402 281.8 132.527C281.5 132.651 281.17 132.683 280.851 132.62C280.532 132.557 280.24 132.4 280.01 132.171C279.78 131.942 279.624 131.649 279.56 131.331C279.497 131.013 279.53 130.683 279.654 130.384C279.778 130.084 279.989 129.828 280.259 129.648C280.529 129.468 280.846 129.371 281.171 129.371C281.607 129.371 282.025 129.544 282.333 129.852C282.641 130.159 282.814 130.576 282.814 131.011Z" fill="#967EA5"/>
<path fill-rule="evenodd" clip-rule="evenodd" d="M348.087 159.187C348.087 159.511 347.99 159.828 347.81 160.098C347.629 160.367 347.373 160.578 347.073 160.702C346.773 160.826 346.442 160.858 346.124 160.795C345.805 160.732 345.513 160.576 345.283 160.346C345.053 160.117 344.897 159.825 344.833 159.507C344.77 159.188 344.802 158.859 344.927 158.559C345.051 158.259 345.262 158.003 345.532 157.823C345.802 157.643 346.119 157.547 346.444 157.547C346.88 157.547 347.298 157.719 347.606 158.027C347.914 158.335 348.087 158.752 348.087 159.187Z" fill="#967EA5"/>
<path fill-rule="evenodd" clip-rule="evenodd" d="M348.087 189.994C348.087 190.318 347.99 190.635 347.81 190.905C347.629 191.175 347.373 191.385 347.073 191.509C346.773 191.633 346.442 191.666 346.124 191.603C345.805 191.539 345.513 191.383 345.283 191.154C345.053 190.924 344.897 190.632 344.833 190.314C344.77 189.996 344.802 189.666 344.927 189.366C345.051 189.067 345.262 188.811 345.532 188.63C345.802 188.45 346.119 188.354 346.444 188.354C346.88 188.354 347.298 188.527 347.606 188.834C347.914 189.142 348.087 189.559 348.087 189.994Z" fill="#967EA5"/>
<path fill-rule="evenodd" clip-rule="evenodd" d="M341.229 201.154L338.675 189.822L349.434 195.488L343.611 196.513L341.229 201.154Z" fill="white"/>
<path d="M341.098 202.179L338.166 189.158L350.485 195.66L343.833 196.833L341.098 202.179ZM339.176 190.494L341.352 200.129L343.373 196.201L348.35 195.324L339.176 190.494Z" fill="url(#paint84_linear)"/>
<g style="mix-blend-mode:multiply" opacity="0.5">
<path fill-rule="evenodd" clip-rule="evenodd" d="M257.339 255.414L246.958 258.784L246.276 264.663L232.077 266.41L179.09 266.853C179.09 266.853 176.93 272.355 177.62 276.209H161.614C161.614 276.209 162.254 269.936 164.578 266.853L156.251 265.869L257.339 255.414Z" fill="#6A1760"/>
</g>
<path fill-rule="evenodd" clip-rule="evenodd" d="M156.251 265.869C156.251 265.869 152.457 258.882 154.354 246.681L229.515 241.802L257.569 239.26V240.662L254.358 241.072L254.16 253.519H257.339V255.414L228.308 263.753L156.251 265.869Z" fill="url(#paint85_linear)"/>
<path fill-rule="evenodd" clip-rule="evenodd" d="M254.357 241.08L229.515 244.36L157.056 248.977C157.056 248.977 154.009 255.184 158.173 264.712L228.036 261.432L254.16 253.478L254.357 241.08Z" fill="url(#paint86_linear)"/>
<path fill-rule="evenodd" clip-rule="evenodd" d="M158.172 264.729H159.191C159.191 264.729 155.438 259.063 158.172 248.919H156.448C155.328 254.238 155.932 259.775 158.172 264.729Z" fill="url(#paint87_linear)"/>
<path fill-rule="evenodd" clip-rule="evenodd" d="M158.173 248.919L158.846 248.878C158.846 248.878 156.703 254.544 159.191 264.729C159.191 264.729 155.027 258.956 158.173 248.919Z" fill="#967EA5"/>
<g style="mix-blend-mode:multiply" opacity="0.2">
<path fill-rule="evenodd" clip-rule="evenodd" d="M159.191 251.806L226.648 246.566L253.676 242.195L226.558 246.968L159.191 251.806Z" fill="#6A1760"/>
</g>
<g style="mix-blend-mode:multiply" opacity="0.2">
<path fill-rule="evenodd" clip-rule="evenodd" d="M163.453 262.941L226.229 259.464L253.446 252.757L226.131 259.21L163.453 262.941Z" fill="#6A1760"/>
</g>
<g style="mix-blend-mode:multiply" opacity="0.2">
<path fill-rule="evenodd" clip-rule="evenodd" d="M160.406 262.195L226.065 258.292L254.16 252.339L226.008 257.849L160.406 262.195Z" fill="#6A1760"/>
</g>
<g style="mix-blend-mode:multiply" opacity="0.5">
<path fill-rule="evenodd" clip-rule="evenodd" d="M228.119 262.195L257.339 253.519V255.414L228.299 263.753L228.119 262.195Z" fill="#6A1760"/>
</g>
<g style="mix-blend-mode:multiply" opacity="0.5">
<path fill-rule="evenodd" clip-rule="evenodd" d="M257.568 239.26V240.662L254.357 241.072L254.16 253.519L228.036 261.473H226.615C224.488 251.929 226.558 246.959 226.558 246.959L157.803 250.239L156.448 248.944L229.539 244.401V241.834L257.568 239.26Z" fill="#6A1760"/>
</g>
<path fill-rule="evenodd" clip-rule="evenodd" d="M154.354 246.681L196.287 242.663L257.569 239.26L229.515 241.802L154.354 246.681Z" fill="#FF9B54"/>
<path fill-rule="evenodd" clip-rule="evenodd" d="M170.532 261.58C170.532 261.58 160.406 264.926 160.406 272.839L176.33 272.142C176.33 272.142 176.61 265.705 183.04 260.834L170.532 261.58Z" fill="url(#paint88_linear)"/>
<g style="mix-blend-mode:multiply" opacity="0.5">
<path fill-rule="evenodd" clip-rule="evenodd" d="M183.04 260.85V263.573L181.003 263.671V264.86L179.09 264.934C180.085 263.295 181.434 261.9 183.04 260.85Z" fill="#6A1760"/>
</g>
<path fill-rule="evenodd" clip-rule="evenodd" d="M71.58 225.27L130.891 215.726L166.377 211.855L166.13 209.723L130.505 212.938L71.9906 223.352C71.9906 223.352 69.5268 218.792 70.4138 214.282L123.844 186.665L164.25 188.6L163.913 186.599L124.009 184.295L68.7138 212.995C68.7138 212.995 67.6216 218.514 71.58 225.27Z" fill="url(#paint89_linear)"/>
<path fill-rule="evenodd" clip-rule="evenodd" d="M164.258 188.616L124.682 207.985L70.4141 214.282L124.633 186.255L164.258 188.616Z" fill="#AA330F"/>
<path fill-rule="evenodd" clip-rule="evenodd" d="M70.4139 214.282C69.8174 217.61 70.4135 221.042 72.0975 223.975L130.111 212.97L164.554 209.871C162.425 206.065 161.16 201.837 160.85 197.489L123.631 198.875L70.4139 214.282Z" fill="url(#paint90_linear)"/>
<path fill-rule="evenodd" clip-rule="evenodd" d="M74.0108 223.614C74.0108 223.614 71.3089 217.415 71.9659 213.84L70.4138 214.282C70.4138 214.282 69.4611 220.022 72.0973 223.975L74.0108 223.614Z" fill="#CA4F0F"/>
<g style="mix-blend-mode:multiply" opacity="0.5">
<path fill-rule="evenodd" clip-rule="evenodd" d="M123.631 198.875C123.631 198.875 124.296 209.239 127.154 213.241L164.554 209.871C162.548 206.014 161.291 201.812 160.85 197.489L123.631 198.875Z" fill="#6A1760"/>
</g>
<path fill-rule="evenodd" clip-rule="evenodd" d="M71.9658 213.831L123.861 192.552L160.825 194.619L156.645 197.645L123.631 198.875L71.9658 213.831Z" fill="url(#paint91_linear)"/>
<g style="mix-blend-mode:multiply" opacity="0.5">
<path fill-rule="evenodd" clip-rule="evenodd" d="M160.825 194.619L123.861 192.552L123.951 193.372L75.645 212.774L123.631 198.875L156.645 197.645L160.825 194.619Z" fill="#6A1760"/>
</g>
<g style="mix-blend-mode:multiply" opacity="0.3">
<path fill-rule="evenodd" clip-rule="evenodd" d="M160.825 194.619L123.951 193.372L75.645 212.774L123.631 198.875L156.645 197.645L160.825 194.619Z" fill="#6A1760"/>
</g>
<g style="mix-blend-mode:multiply" opacity="0.5">
<path fill-rule="evenodd" clip-rule="evenodd" d="M130.11 212.97L130.891 215.726L166.377 211.855L166.13 209.723L130.11 212.97Z" fill="#B61760"/>
</g>
<g style="mix-blend-mode:multiply" opacity="0.5">
<path fill-rule="evenodd" clip-rule="evenodd" d="M124.033 184.295L124.633 186.255L164.258 188.616L163.921 186.616L124.033 184.295Z" fill="#B61760"/>
</g>
<g style="mix-blend-mode:multiply" opacity="0.2">
<path fill-rule="evenodd" clip-rule="evenodd" d="M73.9043 217.193L124.707 206.583L124.633 205.902L73.9043 217.193Z" fill="#6A1760"/>
</g>
<g style="mix-blend-mode:multiply" opacity="0.2">
<path fill-rule="evenodd" clip-rule="evenodd" d="M125.766 210.437L115.435 212.446L126.078 211.224L125.766 210.437Z" fill="#6A1760"/>
</g>
<path fill-rule="evenodd" clip-rule="evenodd" d="M71.5801 225.27L166.377 211.855L130.891 215.726L71.5801 225.27Z" fill="#AA330F"/>
<path fill-rule="evenodd" clip-rule="evenodd" d="M141.715 243.327L206.084 238.3L244.732 235.578C244.732 235.578 248.839 226.615 244.732 217.021L207.497 215.16L141.345 219.391L141.567 221.851L145.016 221.744C145.016 221.744 148.589 230.764 145.361 240.326L141.411 240.859L141.715 243.327Z" fill="url(#paint92_linear)"/>
<path fill-rule="evenodd" clip-rule="evenodd" d="M145.024 221.728L206.084 217.882C206.084 217.882 208.926 223.106 207.505 235.578L145.361 240.309C146.913 234.197 146.796 227.781 145.024 221.728Z" fill="url(#paint93_linear)"/>
<g style="mix-blend-mode:multiply" opacity="0.5">
<path fill-rule="evenodd" clip-rule="evenodd" d="M207.505 215.16C207.505 215.16 210.946 222.54 209.369 237.98L244.732 235.578C244.732 235.578 248.945 226.017 244.732 217.021L207.505 215.16Z" fill="#6A1760"/>
</g>
<g style="mix-blend-mode:multiply" opacity="0.5">
<path fill-rule="evenodd" clip-rule="evenodd" d="M145.024 221.728L145.575 223.434C145.575 223.434 191.762 219.17 207.324 222.031C207.324 222.031 206.741 218.866 206.084 217.882L145.024 221.728Z" fill="#6A1760"/>
</g>
<g style="mix-blend-mode:multiply" opacity="0.2">
<path fill-rule="evenodd" clip-rule="evenodd" d="M146.084 226.32L195.917 223.434L146.298 226.73L146.084 226.32Z" fill="#6A1760"/>
</g>
<g style="mix-blend-mode:multiply" opacity="0.2">
<path fill-rule="evenodd" clip-rule="evenodd" d="M146.027 237.98L155.906 237.39L145.903 238.522L146.027 237.98Z" fill="#6A1760"/>
</g>
<g style="mix-blend-mode:soft-light">
<path fill-rule="evenodd" clip-rule="evenodd" d="M217.27 215.578C219.592 222.627 219.877 230.187 218.091 237.39L225.606 236.923C225.606 236.923 227.306 225.139 224.029 215.988L217.27 215.578Z" fill="#B5A4BF"/>
</g>
<g style="mix-blend-mode:soft-light">
<path fill-rule="evenodd" clip-rule="evenodd" d="M238.557 216.71C238.557 216.71 241.965 222.942 239.871 235.898L243.484 235.668C245.161 229.494 244.92 222.957 242.794 216.923L238.557 216.71Z" fill="#B5A4BF"/>
</g>
<g style="mix-blend-mode:multiply" opacity="0.5">
<path fill-rule="evenodd" clip-rule="evenodd" d="M169.506 225.188C169.506 225.188 165.983 228.747 165.4 231.511L157.664 231.789C157.664 231.789 159.142 227.648 162.254 225.672L169.506 225.188Z" fill="#6A1760"/>
</g>
<path fill-rule="evenodd" clip-rule="evenodd" d="M162.246 225.672C159.128 226.415 156.121 227.565 153.303 229.092L164.866 228.337C166.176 226.976 167.756 225.903 169.506 225.188L162.246 225.672Z" fill="url(#paint94_linear)"/>
<g style="mix-blend-mode:multiply" opacity="0.2">
<path fill-rule="evenodd" clip-rule="evenodd" d="M180.076 232.577L207.867 230.838L207.826 231.789L180.076 232.577Z" fill="#6A1760"/>
</g>
<g style="mix-blend-mode:multiply" opacity="0.5">
<path fill-rule="evenodd" clip-rule="evenodd" d="M190.842 232.101L189.002 233.979L182.777 234.307L183.434 232.404L190.842 232.101Z" fill="#6A1760"/>
</g>
<path fill-rule="evenodd" clip-rule="evenodd" d="M183.435 232.404L180.568 233.684L188.502 233.356L190.842 232.101L183.435 232.404Z" fill="url(#paint95_linear)"/>
<path fill-rule="evenodd" clip-rule="evenodd" d="M459.432 174.012C459.177 175.824 444.305 176.234 426.475 173.766C408.646 171.298 394.496 167.075 394.75 165.263C395.005 163.451 409.763 163.229 427.6 165.697C445.438 168.166 459.678 172.2 459.432 174.012Z" fill="url(#paint96_linear)"/>
<path fill-rule="evenodd" clip-rule="evenodd" d="M393.756 160.876L394.75 165.263L459.325 174.201L461.477 170.257L393.756 160.876Z" fill="url(#paint97_linear)"/>
<path fill-rule="evenodd" clip-rule="evenodd" d="M473.286 85.28C473.032 87.1004 456.689 87.0922 438.859 84.624C421.03 82.1558 405.303 77.7196 405.558 75.8992C405.812 74.0788 422.032 74.948 439.861 77.4162C458.438 80.0156 473.533 83.4842 473.286 85.28Z" fill="url(#paint98_radial)"/>
<path fill-rule="evenodd" clip-rule="evenodd" d="M405.558 75.9238L406.56 80.3108L471.126 89.257L473.286 85.3046L405.558 75.9238Z" fill="url(#paint99_radial)"/>
<path fill-rule="evenodd" clip-rule="evenodd" d="M461.477 170.257C461.23 172.069 445.873 171.446 427.157 168.854C408.441 166.263 393.486 162.688 393.757 160.876C394.028 159.064 409.36 159.679 428.077 162.27C446.793 164.861 461.731 168.436 461.477 170.257Z" fill="url(#paint100_linear)"/>
<path fill-rule="evenodd" clip-rule="evenodd" d="M406.56 80.3108C406.56 80.3108 432.684 86.264 471.126 89.257C471.126 89.257 453.404 82.7626 406.56 80.3108Z" fill="url(#paint101_linear)"/>
<path opacity="0.72" fill-rule="evenodd" clip-rule="evenodd" d="M466.691 88.7076C445.643 84.4518 430.893 82.1476 409.204 80.7454C409.204 80.7454 401.911 106.936 431.172 125.124L432.306 125.28L433.447 125.435C466.568 115.891 466.691 88.7076 466.691 88.7076Z" fill="url(#paint102_linear)"/>
<path opacity="0.72" fill-rule="evenodd" clip-rule="evenodd" d="M397.945 161.86C416.748 166.657 436.032 169.328 455.432 169.822C455.432 169.822 462.717 143.623 433.464 125.435L432.322 125.28L431.189 125.124C398.068 134.669 397.945 161.86 397.945 161.86Z" fill="url(#paint103_linear)"/>
<path fill-rule="evenodd" clip-rule="evenodd" d="M418.936 111.52C418.936 111.52 425.153 121.36 432.355 123C439.352 124.64 454.061 111.43 454.061 111.43C454.061 111.43 433.899 118.72 418.936 111.52Z" fill="url(#paint104_linear)"/>
<path fill-rule="evenodd" clip-rule="evenodd" d="M418.936 111.52C418.936 111.52 426.171 108.396 432.643 111.881C432.807 114.997 454.061 111.454 454.061 111.454C454.061 111.454 444.206 116.538 432.807 114.997C421.408 113.455 418.936 111.52 418.936 111.52Z" fill="url(#paint105_linear)"/>
<path fill-rule="evenodd" clip-rule="evenodd" d="M405.558 146.903C402.878 150.787 401.402 155.373 401.312 160.089C401.312 160.089 414.887 163.565 427.592 165.566C436.352 166.821 445.187 167.481 454.036 167.542C454.036 167.542 456.065 153.701 450.102 143.803C450.102 143.803 447.236 150.544 442.177 153.242C437.118 155.939 437.784 153.914 423.617 151.725C409.451 149.535 405.558 146.903 405.558 146.903Z" fill="url(#paint106_linear)"/>
<path fill-rule="evenodd" clip-rule="evenodd" d="M450.127 143.803C450.127 143.803 444.378 147.854 434.778 148.863C425.177 149.871 422.122 146.501 415.708 146.337C412.314 146.186 408.914 146.375 405.558 146.903C405.558 146.903 410.222 150.38 421.868 152.397C433.513 154.414 439.935 156.497 444.986 153.66C450.037 150.823 450.127 143.803 450.127 143.803Z" fill="url(#paint107_linear)"/>
<path fill-rule="evenodd" clip-rule="evenodd" d="M418.936 149.437C418.936 149.437 436.051 153.069 443.574 149.437C443.574 149.437 435.476 141.114 432.947 139.933C430.417 138.752 419.527 146.468 418.936 149.437Z" fill="url(#paint108_linear)"/>
<path fill-rule="evenodd" clip-rule="evenodd" d="M431.509 122.549C432.495 128.291 432.495 134.158 431.509 139.9L433.332 140.171C433.332 140.171 431.92 128.97 433.776 122.877L431.509 122.549Z" fill="url(#paint109_linear)"/>
<path fill-rule="evenodd" clip-rule="evenodd" d="M432.643 111.889C432.643 111.889 427.477 114.046 418.936 111.528C418.936 111.52 426.13 108.527 432.643 111.889Z" fill="#FFE74C"/>
<path fill-rule="evenodd" clip-rule="evenodd" d="M434.532 112.98L429.604 114.538C429.604 114.538 432.068 115.587 440.223 115.169C445.04 114.95 449.751 113.685 454.028 111.463C454.028 111.463 445.372 112.98 440.477 112.98H434.532Z" fill="#FFE74C"/>
<g style="mix-blend-mode:soft-light" opacity="0.5">
<path fill-rule="evenodd" clip-rule="evenodd" d="M409.212 80.4584V75.0054C412.755 74.9 416.3 74.9958 419.831 75.2924L419.421 81.1308C419.421 81.1308 413.163 80.6962 409.212 80.4584Z" fill="#FBF9FA"/>
</g>
<g style="mix-blend-mode:soft-light" opacity="0.5">
<path fill-rule="evenodd" clip-rule="evenodd" d="M464.877 87.5022L466.692 82.4182C466.692 82.4182 470.379 83.4924 471.127 83.804L468.72 88.5026L464.877 87.5022Z" fill="#FBF9FA"/>
</g>
<g style="mix-blend-mode:soft-light" opacity="0.5">
<path fill-rule="evenodd" clip-rule="evenodd" d="M397.945 167.362L396.861 162.754L402.56 164.394V168.92C400.993 168.491 399.452 167.971 397.945 167.362Z" fill="#FBF9FA"/>
</g>
<g style="mix-blend-mode:soft-light" opacity="0.5">
<path fill-rule="evenodd" clip-rule="evenodd" d="M451.441 175.48L452.566 171.265C454.853 171.482 457.159 171.422 459.432 171.085L456.968 175.045C456.968 175.045 453.478 175.48 451.441 175.48Z" fill="#FBF9FA"/>
</g>
<path style="mix-blend-mode:screen" fill-rule="evenodd" clip-rule="evenodd" d="M399.71 162.294C399.71 162.294 401.057 148.24 409.91 138.637C418.763 129.035 431.263 126.272 431.263 126.272L433.801 126.985C433.801 126.985 423.313 142.163 419.872 166.46C419.872 166.46 402.831 163.68 399.71 162.294Z" fill="url(#paint110_linear)"/>
<path style="mix-blend-mode:screen" fill-rule="evenodd" clip-rule="evenodd" d="M431.789 124.214C431.789 124.214 418.846 116.645 414.542 103.09C410.239 89.5358 412.498 81.1308 412.498 81.1308L422.123 82.5904C422.123 82.5904 418.205 102.18 431.789 124.214Z" fill="url(#paint111_linear)"/>
<path style="mix-blend-mode:screen" fill-rule="evenodd" clip-rule="evenodd" d="M466.692 88.7076C466.692 88.7076 465.764 116.243 433.456 125.46C433.456 125.46 461.477 116.916 462.093 87.8138L466.692 88.7076Z" fill="url(#paint112_linear)"/>
<path style="mix-blend-mode:screen" fill-rule="evenodd" clip-rule="evenodd" d="M449.051 168.92C449.051 168.92 452.657 156.472 452.887 150.298C455.133 156.233 455.82 162.644 454.882 168.92H449.051Z" fill="url(#paint113_linear)"/>
<path fill-rule="evenodd" clip-rule="evenodd" d="M412.358 137.383C412.358 137.383 418.353 135.595 419.979 131.356C419.979 131.356 415.791 131.774 412.358 137.383Z" fill="white"/>
<path fill-rule="evenodd" clip-rule="evenodd" d="M412.358 90.61C412.358 90.61 410.173 94.956 414.526 98.5148C414.526 98.5148 416.168 92.2746 412.358 90.61Z" fill="white"/>
<path fill-rule="evenodd" clip-rule="evenodd" d="M455.326 110.298C455.326 110.298 457.453 106.37 459.777 105.304C459.777 105.304 458.2 109.134 455.326 110.298Z" fill="white"/>
<path fill-rule="evenodd" clip-rule="evenodd" d="M522.422 201.392L462.758 177.94L458.044 178.891L460.508 180.605C461.428 181.064 461.477 181.589 460.598 181.794C459.497 181.964 458.37 181.802 457.362 181.327C457.066 181.216 456.82 181 456.673 180.72C456.655 180.677 456.647 180.632 456.647 180.586C456.648 180.54 456.658 180.495 456.676 180.453C456.695 180.411 456.721 180.373 456.754 180.341C456.788 180.31 456.827 180.285 456.87 180.269L454.866 179.58L447.877 181.171L450.94 182.876C451.852 183.368 451.86 183.942 450.94 184.172C449.823 184.388 448.665 184.22 447.655 183.696C447.363 183.573 447.13 183.341 447.006 183.049C446.978 182.963 446.98 182.87 447.011 182.785C447.043 182.7 447.102 182.628 447.179 182.581L445.364 181.761L437.932 183.655L439.352 184.902L439.779 184.967C440.252 185.057 440.707 185.224 441.126 185.459C442.005 185.976 441.997 186.607 441.085 186.862C439.984 187.097 438.834 186.925 437.85 186.378C437.557 186.235 437.33 185.986 437.217 185.681C437.199 185.598 437.202 185.512 437.228 185.431C437.254 185.35 437.302 185.278 437.365 185.222L435.509 184.303L427.871 186.443L429.514 187.731L429.949 187.805C430.415 187.899 430.862 188.07 431.271 188.313C432.093 188.871 432.093 189.543 431.173 189.83C430.074 190.095 428.915 189.918 427.945 189.338C427.8 189.262 427.671 189.158 427.566 189.031C427.462 188.904 427.384 188.757 427.337 188.6C427.325 188.535 427.325 188.468 427.337 188.403L424.742 187.37L417.918 189.469L419.273 190.88C419.466 190.897 419.658 190.927 419.848 190.97C420.313 191.066 420.757 191.249 421.154 191.511C421.975 192.093 421.925 192.815 420.981 193.151C420.44 193.297 419.874 193.329 419.319 193.244C418.765 193.159 418.235 192.96 417.762 192.659C417.613 192.571 417.485 192.452 417.386 192.311C417.287 192.17 417.219 192.009 417.187 191.839C417.171 191.736 417.186 191.631 417.228 191.536C416.538 191.216 415.635 190.806 414.871 190.437L407.299 192.897L408.383 194.299C408.775 194.275 409.167 194.308 409.549 194.397C410.018 194.496 410.462 194.689 410.855 194.963C411.676 195.578 411.57 196.349 410.609 196.693C410.068 196.853 409.499 196.891 408.943 196.804C408.386 196.718 407.856 196.509 407.389 196.193C407.25 196.1 407.13 195.979 407.039 195.838C406.947 195.697 406.885 195.539 406.856 195.373C406.844 195.246 406.867 195.118 406.922 195.003C406.977 194.887 407.062 194.789 407.168 194.717L405.188 193.643L397.731 195.537L455.383 230.42C458.611 231.97 464.039 231.732 467.702 229.936L515.006 208.542L522.512 205.525C525.805 204.18 525.764 202.417 522.422 201.392Z" fill="url(#paint114_linear)"/>
<path d="M417.975 205.533L417.663 205.312L478.378 185.213L478.739 185.369L417.975 205.533Z" fill="#E54D98"/>
<path d="M422.779 209.633L422.459 209.412L483.995 187.977L484.348 188.124L422.779 209.633Z" fill="#C9A4AC"/>
<path d="M428.996 213.069L428.676 212.856L490.886 190.306L491.247 190.445L428.996 213.069Z" fill="#C9A4AC"/>
<path d="M434.605 216.677L434.277 216.472L497.234 192.684L497.603 192.815L434.605 216.677Z" fill="#C9A4AC"/>
<path d="M440.272 220.17L439.943 219.973L503.648 194.955L504.017 195.086L440.272 220.17Z" fill="#C9A4AC"/>
<path d="M446.013 223.565L445.684 223.368L510.251 197.628L510.62 197.751L446.013 223.565Z" fill="#C9A4AC"/>
<path d="M451.819 226.845L451.482 226.656L515.416 199.268L515.794 199.383L451.819 226.845Z" fill="#C9A4AC"/>
<path d="M459.555 229.092L459.218 228.919L522.274 201.318L522.66 201.425L459.555 229.092Z" fill="#C9A4AC"/>
<path d="M515.663 207.722L451.219 179.719L451.556 179.646L516.04 207.575L515.663 207.722Z" fill="#E54D98"/>
<g style="mix-blend-mode:multiply" opacity="0.5">
<path fill-rule="evenodd" clip-rule="evenodd" d="M445.774 208.92L481.745 223.565L490.935 219.407L458.619 209.633L447.097 208.223L445.774 208.92Z" fill="#9A2463"/>
</g>
<path fill-rule="evenodd" clip-rule="evenodd" d="M453.347 199.818L515.129 150.831L520.122 157.555L456.722 204.385L453.347 199.818Z" fill="url(#paint115_linear)"/>
<path fill-rule="evenodd" clip-rule="evenodd" d="M453.346 199.818L445.774 208.92L446.67 209.166L456.722 204.385L457.6 203.18L456.073 203.237L456.64 201.261L454.192 200.957L454.956 199.367L453.346 199.818Z" fill="#FFAA68"/>
<path fill-rule="evenodd" clip-rule="evenodd" d="M447.663 206.648L448.419 208.337L446.67 209.166L445.774 208.92L447.663 206.648Z" fill="url(#paint116_linear)"/>
<path fill-rule="evenodd" clip-rule="evenodd" d="M513.355 152.241L514.316 154.447L516.763 157.76L518.282 158.908L520.122 157.555L515.129 150.831L513.355 152.241Z" fill="url(#paint117_radial)"/>
<path fill-rule="evenodd" clip-rule="evenodd" d="M515.129 150.831L515.819 152.84L518.381 156.317L520.114 157.555L522.931 154.644C522.931 154.644 522.676 152.184 518.759 148.994L515.129 150.831Z" fill="#FF3E79"/>
<g style="mix-blend-mode:multiply" opacity="0.5">
<path fill-rule="evenodd" clip-rule="evenodd" d="M518.381 156.317L456.073 203.237L457.6 203.18L456.722 204.385L520.122 157.555L518.381 156.317Z" fill="#9C4C7A"/>
</g>
<path style="mix-blend-mode:screen" fill-rule="evenodd" clip-rule="evenodd" d="M453.346 199.818L445.774 208.92L446.275 209.059L454.578 200.679L515.819 152.84L515.129 150.831L453.346 199.818Z" fill="url(#paint118_linear)"/>
<path style="mix-blend-mode:screen" fill-rule="evenodd" clip-rule="evenodd" d="M518.759 148.994C518.759 148.994 519.711 153.225 522.931 154.644C522.698 153.452 522.202 152.328 521.481 151.351C520.759 150.374 519.83 149.569 518.759 148.994Z" fill="url(#paint119_linear)"/>
<path fill-rule="evenodd" clip-rule="evenodd" d="M552.241 232.814L546.952 259.3C543.012 259.917 539.024 260.178 535.036 260.079C522.487 259.94 502.605 256.66 488.118 240.309L496.076 221.671L497.924 217.349L552.241 232.814Z" fill="url(#paint120_radial)"/>
<g style="mix-blend-mode:multiply" opacity="0.5">
<path fill-rule="evenodd" clip-rule="evenodd" d="M552.241 232.814L546.953 259.3C543.012 259.917 539.024 260.178 535.036 260.079C524.311 240.891 496.076 221.671 496.076 221.671L497.924 217.349L552.241 232.814Z" fill="#6A1760"/>
</g>
<path fill-rule="evenodd" clip-rule="evenodd" d="M477.122 197.8L476.81 199.408L512.14 232.675L584.287 243.319L585.379 240.867L477.122 197.8Z" fill="url(#paint121_radial)"/>
<path fill-rule="evenodd" clip-rule="evenodd" d="M477.122 197.8L542.247 209.567L585.379 240.867L514.193 229.862L477.122 197.8Z" fill="url(#paint122_linear)"/>
<g style="mix-blend-mode:multiply" opacity="0.3">
<path fill-rule="evenodd" clip-rule="evenodd" d="M512.14 232.675L514.193 229.862L585.379 240.867L584.286 243.319L512.14 232.675Z" fill="#6A1760"/>
</g>
<path fill-rule="evenodd" clip-rule="evenodd" d="M599.093 273.454C598.059 277.25 596.005 277.964 596.005 277.964C589.78 274.995 583.95 270.051 580.451 266.762L580.336 266.656L580.164 266.492L579.704 266.057L580.426 266.771C580.591 266.943 580.763 267.107 580.944 267.279L581.116 267.451C590.092 276.225 594.675 279.194 594.675 279.194L593.033 280.219C585.313 274.29 576.608 264.171 576.025 263.45L576.123 263.581C578.205 266.441 580.45 269.179 582.849 271.781L583.243 272.215L584.516 273.585L584.787 273.872L585.132 274.216C588.852 278.103 591.776 280.67 591.776 280.67C583.358 286.615 577.133 285.721 577.133 285.721C571.384 275.61 572.477 263.343 572.477 263.343C569.611 261.703 568.469 260.006 568.165 258.497C568.046 257.698 568.102 256.883 568.33 256.108C568.559 255.334 568.953 254.618 569.487 254.011C572.321 254.938 572.534 252.872 572.534 252.872C575.877 254.421 577.084 256.34 577.462 257.956C577.464 257.983 577.464 258.01 577.462 258.038C577.462 258.087 577.462 258.169 577.462 258.259C577.614 259.239 577.489 260.241 577.1 261.154V261.195L577.642 261.678C586.43 269.468 599.093 273.454 599.093 273.454Z" fill="url(#paint123_linear)"/>
<g style="mix-blend-mode:multiply" opacity="0.5">
<path fill-rule="evenodd" clip-rule="evenodd" d="M526.889 217.357L563.73 238.317V240.301L567.599 240.867L568.099 237.718L526.889 217.357Z" fill="#6A1760"/>
</g>
<path fill-rule="evenodd" clip-rule="evenodd" d="M526.889 217.357L529.279 216.398L570.103 237.308C570.103 237.308 569.775 249.657 572.567 252.945C572.567 252.945 573.487 255.807 569.512 254.077C569.512 254.077 569.955 253.864 566.818 238.841L526.889 217.357Z" fill="url(#paint124_linear)"/>
<g style="mix-blend-mode:multiply" opacity="0.5">
<path fill-rule="evenodd" clip-rule="evenodd" d="M580.164 266.5L579.934 266.254L580.336 266.664L580.451 266.771L580.944 267.287C580.763 267.115 580.591 266.951 580.426 266.779L580.164 266.5Z" fill="#9A2463"/>
</g>
<g style="mix-blend-mode:multiply" opacity="0.3">
<path fill-rule="evenodd" clip-rule="evenodd" d="M574.193 264.114C573.869 271.457 574.874 278.799 577.158 285.786C571.409 275.676 572.501 263.409 572.501 263.409C569.635 261.769 568.494 260.071 568.19 258.562C568.19 258.562 569.627 262.146 573.372 261.703C574.376 261.653 575.332 261.26 576.079 260.59C576.827 259.919 577.321 259.012 577.478 258.021C577.48 258.049 577.48 258.076 577.478 258.103C577.639 259.153 577.523 260.227 577.142 261.219V261.26L577.684 261.744H576.862C577.569 263.409 578.596 264.918 579.885 266.188L576.148 262.4L575.376 262.769L575.992 263.441L576.09 263.573C576.756 264.45 579.802 268.419 582.816 271.773L583.211 272.207C583.572 272.617 583.933 273.011 584.295 273.388L574.776 263.622L574.193 264.114Z" fill="#9A2463"/>
</g>
<g style="mix-blend-mode:multiply" opacity="0.5">
<path fill-rule="evenodd" clip-rule="evenodd" d="M488.118 240.309C488.118 240.309 508.354 262.851 546.953 259.3C546.953 259.3 511.91 266.197 488.118 240.309Z" fill="#6A1760"/>
</g>
<g style="mix-blend-mode:multiply" opacity="0.5">
<path fill-rule="evenodd" clip-rule="evenodd" d="M598.905 283.671L598.519 283.277L598.634 283.384L598.905 283.671Z" fill="#9A2463"/>
</g>
<defs>
<linearGradient id="paint0_linear" x1="215.735" y1="177.206" x2="193.194" y2="76.6453" gradientUnits="userSpaceOnUse">
<stop offset="0.02" stop-color="#FFDAC7"/>
<stop offset="1" stop-color="#FFF3C2"/>
</linearGradient>
<linearGradient id="paint1_linear" x1="173.12" y1="286.418" x2="487.313" y2="286.418" gradientUnits="userSpaceOnUse">
<stop stop-color="#C72A16"/>
<stop offset="1" stop-color="#BA2244"/>
</linearGradient>
<linearGradient id="paint2_linear" x1="148.679" y1="266.131" x2="508.682" y2="266.131" gradientUnits="userSpaceOnUse">
<stop stop-color="#FF8647"/>
<stop offset="1" stop-color="#FFB934"/>
</linearGradient>
<linearGradient id="paint3_linear" x1="365.029" y1="264.491" x2="359.379" y2="230.163" gradientUnits="userSpaceOnUse">
<stop stop-color="#603082"/>
<stop offset="0.99" stop-color="#2A0E51"/>
</linearGradient>
<radialGradient id="paint4_radial" cx="0" cy="0" r="1" gradientUnits="userSpaceOnUse" gradientTransform="translate(330.529 109.044) scale(108.865 108.699)">
<stop stop-color="#471371"/>
<stop offset="0.99" stop-color="#20003B"/>
</radialGradient>
<radialGradient id="paint5_radial" cx="0" cy="0" r="1" gradientUnits="userSpaceOnUse" gradientTransform="translate(313.348 193.123) scale(123.212 88.5777)">
<stop stop-color="#00FFFF"/>
<stop offset="0.99" stop-color="#26A9FF"/>
</radialGradient>
<radialGradient id="paint6_radial" cx="0" cy="0" r="1" gradientUnits="userSpaceOnUse" gradientTransform="translate(349.064 214.953) scale(57.6189 76.5166)">
<stop stop-color="#AEA8C2"/>
<stop offset="0.98" stop-color="#8C74B1"/>
</radialGradient>
<radialGradient id="paint7_radial" cx="0" cy="0" r="1" gradientUnits="userSpaceOnUse" gradientTransform="translate(8968.33 5140.62) scale(293.678 210.519)">
<stop stop-color="#471371"/>
<stop offset="0.99" stop-color="#20003B"/>
</radialGradient>
<radialGradient id="paint8_radial" cx="0" cy="0" r="1" gradientUnits="userSpaceOnUse" gradientTransform="translate(13933.2 3769.24) scale(554.694 185.701)">
<stop stop-color="#471371"/>
<stop offset="0.99" stop-color="#20003B"/>
</radialGradient>
<radialGradient id="paint9_radial" cx="0" cy="0" r="1" gradientUnits="userSpaceOnUse" gradientTransform="translate(42858.4 -21052.7) scale(3744.88 442.081)">
<stop stop-color="#AEA8C2"/>
<stop offset="0.98" stop-color="#8C74B1"/>
</radialGradient>
<radialGradient id="paint10_radial" cx="0" cy="0" r="1" gradientUnits="userSpaceOnUse" gradientTransform="translate(337.254 242.229) scale(29.6718 39.4034)">
<stop stop-color="#EBD7E3"/>
<stop offset="0.98" stop-color="#BDAFD2"/>
</radialGradient>
<linearGradient id="paint11_linear" x1="320.575" y1="245.598" x2="320.575" y2="239.719" gradientUnits="userSpaceOnUse">
<stop stop-color="#EBD7E3"/>
<stop offset="0.98" stop-color="#7036A1"/>
</linearGradient>
<linearGradient id="paint12_linear" x1="148.679" y1="274.2" x2="508.682" y2="274.2" gradientUnits="userSpaceOnUse">
<stop stop-color="#FF7527"/>
<stop offset="1" stop-color="#E03347"/>
</linearGradient>
<radialGradient id="paint13_radial" cx="0" cy="0" r="1" gradientUnits="userSpaceOnUse" gradientTransform="translate(24175.3 5575.41) scale(878.858 349.866)">
<stop stop-color="#471371"/>
<stop offset="0.99" stop-color="#20003B"/>
</radialGradient>
<radialGradient id="paint14_radial" cx="0" cy="0" r="1" gradientUnits="userSpaceOnUse" gradientTransform="translate(8258.77 2977.19) scale(108.909 64.5164)">
<stop stop-color="#00FFFF"/>
<stop offset="0.99" stop-color="#26A9FF"/>
</radialGradient>
<linearGradient id="paint15_linear" x1="58995.2" y1="2985.15" x2="115175" y2="-390.777" gradientUnits="userSpaceOnUse">
<stop stop-color="#603082"/>
<stop offset="0.99" stop-color="#2A0E51"/>
</linearGradient>
<radialGradient id="paint16_radial" cx="0" cy="0" r="1" gradientUnits="userSpaceOnUse" gradientTransform="translate(271.399 250.567) rotate(-3.42842) scale(97.3116 97.1646)">
<stop stop-color="#6D47D3"/>
<stop offset="0.99" stop-color="#713592"/>
</radialGradient>
<linearGradient id="paint17_linear" x1="56514.9" y1="3634.42" x2="103974" y2="782.518" gradientUnits="userSpaceOnUse">
<stop stop-color="#603082"/>
<stop offset="0.99" stop-color="#2A0E51"/>
</linearGradient>
<radialGradient id="paint18_radial" cx="0" cy="0" r="1" gradientUnits="userSpaceOnUse" gradientTransform="translate(78941.3 6003.23) scale(16388.9 1382)">
<stop stop-color="#6D47D3"/>
<stop offset="0.99" stop-color="#713592"/>
</radialGradient>
<linearGradient id="paint19_linear" x1="254.437" y1="255.221" x2="416.595" y2="245.683" gradientUnits="userSpaceOnUse">
<stop offset="0.02" stop-color="#FF4C06"/>
<stop offset="0.17" stop-color="#FF0E59"/>
<stop offset="0.54" stop-color="#FF12C3"/>
<stop offset="1" stop-color="#00B3FF"/>
</linearGradient>
<linearGradient id="paint20_linear" x1="51611.4" y1="3374.34" x2="83653.1" y2="4129.49" gradientUnits="userSpaceOnUse">
<stop offset="0.02" stop-color="#FF4C06"/>
<stop offset="0.17" stop-color="#FF0E59"/>
<stop offset="0.54" stop-color="#FF12C3"/>
<stop offset="1" stop-color="#00B3FF"/>
</linearGradient>
<linearGradient id="paint21_linear" x1="48529.8" y1="3177.08" x2="78339.4" y2="3882.85" gradientUnits="userSpaceOnUse">
<stop offset="0.02" stop-color="#FF4C06"/>
<stop offset="0.17" stop-color="#FF0E59"/>
<stop offset="0.54" stop-color="#FF12C3"/>
<stop offset="1" stop-color="#00B3FF"/>
</linearGradient>
<linearGradient id="paint22_linear" x1="45288.9" y1="3075.81" x2="72763.8" y2="3705.57" gradientUnits="userSpaceOnUse">
<stop offset="0.02" stop-color="#FF4C06"/>
<stop offset="0.17" stop-color="#FF0E59"/>
<stop offset="0.54" stop-color="#FF12C3"/>
<stop offset="1" stop-color="#00B3FF"/>
</linearGradient>
<linearGradient id="paint23_linear" x1="42979.7" y1="2793.57" x2="68823.7" y2="3418.32" gradientUnits="userSpaceOnUse">
<stop offset="0.02" stop-color="#FF4C06"/>
<stop offset="0.17" stop-color="#FF0E59"/>
<stop offset="0.54" stop-color="#FF12C3"/>
<stop offset="1" stop-color="#00B3FF"/>
</linearGradient>
<linearGradient id="paint24_linear" x1="1737.37" y1="829.855" x2="2737.93" y2="833.484" gradientUnits="userSpaceOnUse">
<stop offset="0.02" stop-color="#FF4C06"/>
<stop offset="0.17" stop-color="#FF0E59"/>
<stop offset="0.54" stop-color="#FF12C3"/>
<stop offset="1" stop-color="#00B3FF"/>
</linearGradient>
<linearGradient id="paint25_linear" x1="1488.15" y1="734.457" x2="2287.55" y2="737.25" gradientUnits="userSpaceOnUse">
<stop offset="0.02" stop-color="#FF4C06"/>
<stop offset="0.17" stop-color="#FF0E59"/>
<stop offset="0.54" stop-color="#FF12C3"/>
<stop offset="1" stop-color="#00B3FF"/>
</linearGradient>
<linearGradient id="paint26_linear" x1="2606.9" y1="1059.41" x2="4278.61" y2="1066.43" gradientUnits="userSpaceOnUse">
<stop offset="0.02" stop-color="#FF4C06"/>
<stop offset="0.17" stop-color="#FF0E59"/>
<stop offset="0.54" stop-color="#FF12C3"/>
<stop offset="1" stop-color="#00B3FF"/>
</linearGradient>
<linearGradient id="paint27_linear" x1="666.409" y1="443.773" x2="907.108" y2="444.426" gradientUnits="userSpaceOnUse">
<stop offset="0.02" stop-color="#FF4C06"/>
<stop offset="0.17" stop-color="#FF0E59"/>
<stop offset="0.54" stop-color="#FF12C3"/>
<stop offset="1" stop-color="#00B3FF"/>
</linearGradient>
<linearGradient id="paint28_linear" x1="2065.92" y1="1046.7" x2="3318.45" y2="1050.85" gradientUnits="userSpaceOnUse">
<stop offset="0.02" stop-color="#FF4C06"/>
<stop offset="0.17" stop-color="#FF0E59"/>
<stop offset="0.54" stop-color="#FF12C3"/>
<stop offset="1" stop-color="#00B3FF"/>
</linearGradient>
<linearGradient id="paint29_linear" x1="1620.87" y1="851.214" x2="2522.06" y2="854.005" gradientUnits="userSpaceOnUse">
<stop offset="0.02" stop-color="#FF4C06"/>
<stop offset="0.17" stop-color="#FF0E59"/>
<stop offset="0.54" stop-color="#FF12C3"/>
<stop offset="1" stop-color="#00B3FF"/>
</linearGradient>
<linearGradient id="paint30_linear" x1="1505.25" y1="678.656" x2="2415.1" y2="682.286" gradientUnits="userSpaceOnUse">
<stop offset="0.02" stop-color="#FF4C06"/>
<stop offset="0.17" stop-color="#FF0E59"/>
<stop offset="0.54" stop-color="#FF12C3"/>
<stop offset="1" stop-color="#00B3FF"/>
</linearGradient>
<linearGradient id="paint31_linear" x1="1070.04" y1="518.947" x2="1580.93" y2="520.843" gradientUnits="userSpaceOnUse">
<stop offset="0.02" stop-color="#FF4C06"/>
<stop offset="0.17" stop-color="#FF0E59"/>
<stop offset="0.54" stop-color="#FF12C3"/>
<stop offset="1" stop-color="#00B3FF"/>
</linearGradient>
<linearGradient id="paint32_linear" x1="2219.02" y1="893.188" x2="3857.1" y2="900.914" gradientUnits="userSpaceOnUse">
<stop offset="0.02" stop-color="#FF4C06"/>
<stop offset="0.17" stop-color="#FF0E59"/>
<stop offset="0.54" stop-color="#FF12C3"/>
<stop offset="1" stop-color="#00B3FF"/>
</linearGradient>
<linearGradient id="paint33_linear" x1="1529.24" y1="766.901" x2="2469.26" y2="770.186" gradientUnits="userSpaceOnUse">
<stop offset="0.02" stop-color="#FF4C06"/>
<stop offset="0.17" stop-color="#FF0E59"/>
<stop offset="0.54" stop-color="#FF12C3"/>
<stop offset="1" stop-color="#00B3FF"/>
</linearGradient>
<linearGradient id="paint34_linear" x1="1753.84" y1="867.282" x2="2944.35" y2="871.602" gradientUnits="userSpaceOnUse">
<stop offset="0.02" stop-color="#FF4C06"/>
<stop offset="0.17" stop-color="#FF0E59"/>
<stop offset="0.54" stop-color="#FF12C3"/>
<stop offset="1" stop-color="#00B3FF"/>
</linearGradient>
<linearGradient id="paint35_linear" x1="804.306" y1="447.16" x2="1106.23" y2="448.06" gradientUnits="userSpaceOnUse">
<stop offset="0.02" stop-color="#FF4C06"/>
<stop offset="0.17" stop-color="#FF0E59"/>
<stop offset="0.54" stop-color="#FF12C3"/>
<stop offset="1" stop-color="#00B3FF"/>
</linearGradient>
<linearGradient id="paint36_linear" x1="1090.4" y1="702.222" x2="1720.69" y2="703.803" gradientUnits="userSpaceOnUse">
<stop offset="0.02" stop-color="#FF4C06"/>
<stop offset="0.17" stop-color="#FF0E59"/>
<stop offset="0.54" stop-color="#FF12C3"/>
<stop offset="1" stop-color="#00B3FF"/>
</linearGradient>
<linearGradient id="paint37_linear" x1="849.546" y1="533.727" x2="1229.78" y2="534.662" gradientUnits="userSpaceOnUse">
<stop offset="0.02" stop-color="#FF4C06"/>
<stop offset="0.17" stop-color="#FF0E59"/>
<stop offset="0.54" stop-color="#FF12C3"/>
<stop offset="1" stop-color="#00B3FF"/>
</linearGradient>
<linearGradient id="paint38_linear" x1="1466.2" y1="896.552" x2="2527.54" y2="899.513" gradientUnits="userSpaceOnUse">
<stop offset="0.02" stop-color="#FF4C06"/>
<stop offset="0.17" stop-color="#FF0E59"/>
<stop offset="0.54" stop-color="#FF12C3"/>
<stop offset="1" stop-color="#00B3FF"/>
</linearGradient>
<linearGradient id="paint39_linear" x1="656.188" y1="436.324" x2="874.273" y2="436.805" gradientUnits="userSpaceOnUse">
<stop offset="0.02" stop-color="#FF4C06"/>
<stop offset="0.17" stop-color="#FF0E59"/>
<stop offset="0.54" stop-color="#FF12C3"/>
<stop offset="1" stop-color="#00B3FF"/>
</linearGradient>
<linearGradient id="paint40_linear" x1="1137.99" y1="879.32" x2="1907.82" y2="880.931" gradientUnits="userSpaceOnUse">
<stop offset="0.02" stop-color="#FF4C06"/>
<stop offset="0.17" stop-color="#FF0E59"/>
<stop offset="0.54" stop-color="#FF12C3"/>
<stop offset="1" stop-color="#00B3FF"/>
</linearGradient>
<linearGradient id="paint41_linear" x1="1020.36" y1="793.152" x2="1632.8" y2="794.33" gradientUnits="userSpaceOnUse">
<stop offset="0.02" stop-color="#FF4C06"/>
<stop offset="0.17" stop-color="#FF0E59"/>
<stop offset="0.54" stop-color="#FF12C3"/>
<stop offset="1" stop-color="#00B3FF"/>
</linearGradient>
<linearGradient id="paint42_linear" x1="865.158" y1="691.247" x2="1330.6" y2="692.112" gradientUnits="userSpaceOnUse">
<stop offset="0.02" stop-color="#FF4C06"/>
<stop offset="0.17" stop-color="#FF0E59"/>
<stop offset="0.54" stop-color="#FF12C3"/>
<stop offset="1" stop-color="#00B3FF"/>
</linearGradient>
<linearGradient id="paint43_linear" x1="722.31" y1="534.295" x2="1022.17" y2="534.856" gradientUnits="userSpaceOnUse">
<stop offset="0.02" stop-color="#FF4C06"/>
<stop offset="0.17" stop-color="#FF0E59"/>
<stop offset="0.54" stop-color="#FF12C3"/>
<stop offset="1" stop-color="#00B3FF"/>
</linearGradient>
<linearGradient id="paint44_linear" x1="1138.11" y1="905.742" x2="1913.93" y2="907.304" gradientUnits="userSpaceOnUse">
<stop offset="0.02" stop-color="#FF4C06"/>
<stop offset="0.17" stop-color="#FF0E59"/>
<stop offset="0.54" stop-color="#FF12C3"/>
<stop offset="1" stop-color="#00B3FF"/>
</linearGradient>
<linearGradient id="paint45_linear" x1="811.132" y1="767.933" x2="1253.62" y2="768.553" gradientUnits="userSpaceOnUse">
<stop offset="0.02" stop-color="#FF4C06"/>
<stop offset="0.17" stop-color="#FF0E59"/>
<stop offset="0.54" stop-color="#FF12C3"/>
<stop offset="1" stop-color="#00B3FF"/>
</linearGradient>
<linearGradient id="paint46_linear" x1="520.737" y1="323.781" x2="623.764" y2="324.064" gradientUnits="userSpaceOnUse">
<stop offset="0.02" stop-color="#FF4C06"/>
<stop offset="0.17" stop-color="#FF0E59"/>
<stop offset="0.54" stop-color="#FF12C3"/>
<stop offset="1" stop-color="#00B3FF"/>
</linearGradient>
<linearGradient id="paint47_linear" x1="886.872" y1="882.697" x2="1441.37" y2="883.485" gradientUnits="userSpaceOnUse">
<stop offset="0.02" stop-color="#FF4C06"/>
<stop offset="0.17" stop-color="#FF0E59"/>
<stop offset="0.54" stop-color="#FF12C3"/>
<stop offset="1" stop-color="#00B3FF"/>
</linearGradient>
<linearGradient id="paint48_linear" x1="584.034" y1="537.756" x2="796.254" y2="538.014" gradientUnits="userSpaceOnUse">
<stop offset="0.02" stop-color="#FF4C06"/>
<stop offset="0.17" stop-color="#FF0E59"/>
<stop offset="0.54" stop-color="#FF12C3"/>
<stop offset="1" stop-color="#00B3FF"/>
</linearGradient>
<linearGradient id="paint49_linear" x1="706.258" y1="917.804" x2="1157.72" y2="918.239" gradientUnits="userSpaceOnUse">
<stop offset="0.02" stop-color="#FF4C06"/>
<stop offset="0.17" stop-color="#FF0E59"/>
<stop offset="0.54" stop-color="#FF12C3"/>
<stop offset="1" stop-color="#00B3FF"/>
</linearGradient>
<linearGradient id="paint50_linear" x1="633.313" y1="683.208" x2="933.004" y2="683.536" gradientUnits="userSpaceOnUse">
<stop offset="0.02" stop-color="#FF4C06"/>
<stop offset="0.17" stop-color="#FF0E59"/>
<stop offset="0.54" stop-color="#FF12C3"/>
<stop offset="1" stop-color="#00B3FF"/>
</linearGradient>
<linearGradient id="paint51_linear" x1="1413.46" y1="823.917" x2="2153.57" y2="825.946" gradientUnits="userSpaceOnUse">
<stop offset="0.02" stop-color="#FF4C06"/>
<stop offset="0.17" stop-color="#FF0E59"/>
<stop offset="0.54" stop-color="#FF12C3"/>
<stop offset="1" stop-color="#00B3FF"/>
</linearGradient>
<linearGradient id="paint52_linear" x1="1886.24" y1="1056.2" x2="3034.67" y2="1059.56" gradientUnits="userSpaceOnUse">
<stop offset="0.02" stop-color="#FF4C06"/>
<stop offset="0.17" stop-color="#FF0E59"/>
<stop offset="0.54" stop-color="#FF12C3"/>
<stop offset="1" stop-color="#00B3FF"/>
</linearGradient>
<linearGradient id="paint53_linear" x1="1346.23" y1="792.043" x2="2068.66" y2="794.085" gradientUnits="userSpaceOnUse">
<stop offset="0.02" stop-color="#FF4C06"/>
<stop offset="0.17" stop-color="#FF0E59"/>
<stop offset="0.54" stop-color="#FF12C3"/>
<stop offset="1" stop-color="#00B3FF"/>
</linearGradient>
<linearGradient id="paint54_linear" x1="1277.66" y1="824.873" x2="1931.06" y2="826.442" gradientUnits="userSpaceOnUse">
<stop offset="0.02" stop-color="#FF4C06"/>
<stop offset="0.17" stop-color="#FF0E59"/>
<stop offset="0.54" stop-color="#FF12C3"/>
<stop offset="1" stop-color="#00B3FF"/>
</linearGradient>
<linearGradient id="paint55_linear" x1="413.631" y1="332.894" x2="479.177" y2="333.012" gradientUnits="userSpaceOnUse">
<stop offset="0.02" stop-color="#FF4C06"/>
<stop offset="0.17" stop-color="#FF0E59"/>
<stop offset="0.54" stop-color="#FF12C3"/>
<stop offset="1" stop-color="#00B3FF"/>
</linearGradient>
<linearGradient id="paint56_linear" x1="1574.37" y1="994.445" x2="2464.71" y2="996.658" gradientUnits="userSpaceOnUse">
<stop offset="0.02" stop-color="#FF4C06"/>
<stop offset="0.17" stop-color="#FF0E59"/>
<stop offset="0.54" stop-color="#FF12C3"/>
<stop offset="1" stop-color="#00B3FF"/>
</linearGradient>
<linearGradient id="paint57_linear" x1="921.099" y1="636.726" x2="1315.97" y2="637.592" gradientUnits="userSpaceOnUse">
<stop offset="0.02" stop-color="#FF4C06"/>
<stop offset="0.17" stop-color="#FF0E59"/>
<stop offset="0.54" stop-color="#FF12C3"/>
<stop offset="1" stop-color="#00B3FF"/>
</linearGradient>
<linearGradient id="paint58_linear" x1="1354.78" y1="1006.58" x2="2108.63" y2="1008.15" gradientUnits="userSpaceOnUse">
<stop offset="0.02" stop-color="#FF4C06"/>
<stop offset="0.17" stop-color="#FF0E59"/>
<stop offset="0.54" stop-color="#FF12C3"/>
<stop offset="1" stop-color="#00B3FF"/>
</linearGradient>
<linearGradient id="paint59_linear" x1="1133.35" y1="771.407" x2="1687.9" y2="772.664" gradientUnits="userSpaceOnUse">
<stop offset="0.02" stop-color="#FF4C06"/>
<stop offset="0.17" stop-color="#FF0E59"/>
<stop offset="0.54" stop-color="#FF12C3"/>
<stop offset="1" stop-color="#00B3FF"/>
</linearGradient>
<linearGradient id="paint60_linear" x1="1058.7" y1="810.102" x2="1544.61" y2="810.999" gradientUnits="userSpaceOnUse">
<stop offset="0.02" stop-color="#FF4C06"/>
<stop offset="0.17" stop-color="#FF0E59"/>
<stop offset="0.54" stop-color="#FF12C3"/>
<stop offset="1" stop-color="#00B3FF"/>
</linearGradient>
<linearGradient id="paint61_linear" x1="1323.9" y1="1017.28" x2="2013.99" y2="1018.58" gradientUnits="userSpaceOnUse">
<stop offset="0.02" stop-color="#FF4C06"/>
<stop offset="0.17" stop-color="#FF0E59"/>
<stop offset="0.54" stop-color="#FF12C3"/>
<stop offset="1" stop-color="#00B3FF"/>
</linearGradient>
<linearGradient id="paint62_linear" x1="853.32" y1="736.53" x2="1199.85" y2="737.065" gradientUnits="userSpaceOnUse">
<stop offset="0.02" stop-color="#FF4C06"/>
<stop offset="0.17" stop-color="#FF0E59"/>
<stop offset="0.54" stop-color="#FF12C3"/>
<stop offset="1" stop-color="#00B3FF"/>
</linearGradient>
<linearGradient id="paint63_linear" x1="440.635" y1="261.272" x2="521.713" y2="262.558" gradientUnits="userSpaceOnUse">
<stop offset="0.02" stop-color="#FF4C06"/>
<stop offset="0.17" stop-color="#FF0E59"/>
<stop offset="0.54" stop-color="#FF12C3"/>
<stop offset="1" stop-color="#00B3FF"/>
</linearGradient>
<linearGradient id="paint64_linear" x1="741.944" y1="613.412" x2="1005.06" y2="613.843" gradientUnits="userSpaceOnUse">
<stop offset="0.02" stop-color="#FF4C06"/>
<stop offset="0.17" stop-color="#FF0E59"/>
<stop offset="0.54" stop-color="#FF12C3"/>
<stop offset="1" stop-color="#00B3FF"/>
</linearGradient>
<linearGradient id="paint65_linear" x1="444.64" y1="280.523" x2="516.9" y2="280.858" gradientUnits="userSpaceOnUse">
<stop offset="0.02" stop-color="#FF4C06"/>
<stop offset="0.17" stop-color="#FF0E59"/>
<stop offset="0.54" stop-color="#FF12C3"/>
<stop offset="1" stop-color="#00B3FF"/>
</linearGradient>
<linearGradient id="paint66_linear" x1="862.815" y1="898.476" x2="1202.57" y2="898.881" gradientUnits="userSpaceOnUse">
<stop offset="0.02" stop-color="#FF4C06"/>
<stop offset="0.17" stop-color="#FF0E59"/>
<stop offset="0.54" stop-color="#FF12C3"/>
<stop offset="1" stop-color="#00B3FF"/>
</linearGradient>
<linearGradient id="paint67_linear" x1="779.143" y1="783.888" x2="1053.73" y2="784.212" gradientUnits="userSpaceOnUse">
<stop offset="0.02" stop-color="#FF4C06"/>
<stop offset="0.17" stop-color="#FF0E59"/>
<stop offset="0.54" stop-color="#FF12C3"/>
<stop offset="1" stop-color="#00B3FF"/>
</linearGradient>
<linearGradient id="paint68_linear" x1="624.597" y1="704.46" x2="791.44" y2="704.608" gradientUnits="userSpaceOnUse">
<stop offset="0.02" stop-color="#FF4C06"/>
<stop offset="0.17" stop-color="#FF0E59"/>
<stop offset="0.54" stop-color="#FF12C3"/>
<stop offset="1" stop-color="#00B3FF"/>
</linearGradient>
<linearGradient id="paint69_linear" x1="574.402" y1="587.21" x2="709.065" y2="587.342" gradientUnits="userSpaceOnUse">
<stop offset="0.02" stop-color="#FF4C06"/>
<stop offset="0.17" stop-color="#FF0E59"/>
<stop offset="0.54" stop-color="#FF12C3"/>
<stop offset="1" stop-color="#00B3FF"/>
</linearGradient>
<linearGradient id="paint70_linear" x1="548.318" y1="757.727" x2="648.407" y2="757.781" gradientUnits="userSpaceOnUse">
<stop offset="0.02" stop-color="#FF4C06"/>
<stop offset="0.17" stop-color="#FF0E59"/>
<stop offset="0.54" stop-color="#FF12C3"/>
<stop offset="1" stop-color="#00B3FF"/>
</linearGradient>
<linearGradient id="paint71_linear" x1="468.314" y1="265.662" x2="546.232" y2="266.279" gradientUnits="userSpaceOnUse">
<stop offset="0.02" stop-color="#FF4C06"/>
<stop offset="0.17" stop-color="#FF0E59"/>
<stop offset="0.54" stop-color="#FF12C3"/>
<stop offset="1" stop-color="#00B3FF"/>
</linearGradient>
<linearGradient id="paint72_linear" x1="571.867" y1="892.427" x2="684.798" y2="892.481" gradientUnits="userSpaceOnUse">
<stop offset="0.02" stop-color="#FF4C06"/>
<stop offset="0.17" stop-color="#FF0E59"/>
<stop offset="0.54" stop-color="#FF12C3"/>
<stop offset="1" stop-color="#00B3FF"/>
</linearGradient>
<linearGradient id="paint73_linear" x1="510.595" y1="560.988" x2="666.402" y2="561.118" gradientUnits="userSpaceOnUse">
<stop offset="0.02" stop-color="#FF4C06"/>
<stop offset="0.17" stop-color="#FF0E59"/>
<stop offset="0.54" stop-color="#FF12C3"/>
<stop offset="1" stop-color="#00B3FF"/>
</linearGradient>
<linearGradient id="paint74_linear" x1="523.063" y1="683.731" x2="719.573" y2="683.865" gradientUnits="userSpaceOnUse">
<stop offset="0.02" stop-color="#FF4C06"/>
<stop offset="0.17" stop-color="#FF0E59"/>
<stop offset="0.54" stop-color="#FF12C3"/>
<stop offset="1" stop-color="#00B3FF"/>
</linearGradient>
<linearGradient id="paint75_linear" x1="482.941" y1="279.109" x2="564.808" y2="279.52" gradientUnits="userSpaceOnUse">
<stop offset="0.02" stop-color="#FF4C06"/>
<stop offset="0.17" stop-color="#FF0E59"/>
<stop offset="0.54" stop-color="#FF12C3"/>
<stop offset="1" stop-color="#00B3FF"/>
</linearGradient>
<linearGradient id="paint76_linear" x1="609.53" y1="857.055" x2="945.033" y2="857.318" gradientUnits="userSpaceOnUse">
<stop offset="0.02" stop-color="#FF4C06"/>
<stop offset="0.17" stop-color="#FF0E59"/>
<stop offset="0.54" stop-color="#FF12C3"/>
<stop offset="1" stop-color="#00B3FF"/>
</linearGradient>
<linearGradient id="paint77_linear" x1="593.612" y1="756.997" x2="877.36" y2="757.234" gradientUnits="userSpaceOnUse">
<stop offset="0.02" stop-color="#FF4C06"/>
<stop offset="0.17" stop-color="#FF0E59"/>
<stop offset="0.54" stop-color="#FF12C3"/>
<stop offset="1" stop-color="#00B3FF"/>
</linearGradient>
<linearGradient id="paint78_linear" x1="55348.6" y1="4187.28" x2="100735" y2="4187.28" gradientUnits="userSpaceOnUse">
<stop offset="0.02" stop-color="#FF4C06"/>
<stop offset="0.17" stop-color="#FF0E59"/>
<stop offset="0.54" stop-color="#FF12C3"/>
<stop offset="1" stop-color="#00B3FF"/>
</linearGradient>
<linearGradient id="paint79_linear" x1="217.91" y1="167.133" x2="194.952" y2="168.286" gradientUnits="userSpaceOnUse">
<stop stop-color="#FFD328"/>
<stop offset="1" stop-color="#FFA700"/>
</linearGradient>
<linearGradient id="paint80_linear" x1="216.713" y1="143.301" x2="191.705" y2="144.557" gradientUnits="userSpaceOnUse">
<stop stop-color="#FF6E27"/>
<stop offset="1" stop-color="#E03347"/>
</linearGradient>
<linearGradient id="paint81_linear" x1="1859.41" y1="2388" x2="1859.41" y2="1913.31" gradientUnits="userSpaceOnUse">
<stop stop-color="#FF6E27"/>
<stop offset="1" stop-color="#E03347"/>
</linearGradient>
<linearGradient id="paint82_linear" x1="3632.96" y1="6869.62" x2="3632.96" y2="5635.8" gradientUnits="userSpaceOnUse">
<stop stop-color="#FFD328"/>
<stop offset="1" stop-color="#FFA700"/>
</linearGradient>
<linearGradient id="paint83_linear" x1="322.743" y1="211.101" x2="322.743" y2="90.0442" gradientUnits="userSpaceOnUse">
<stop offset="0.02" stop-color="#C2B5D6"/>
<stop offset="0.18" stop-color="#D3C6DE"/>
<stop offset="0.44" stop-color="#E5D8E7"/>
<stop offset="0.7" stop-color="#EFE2EC"/>
<stop offset="1" stop-color="#F3E6EE"/>
</linearGradient>
<linearGradient id="paint84_linear" x1="5410.66" y1="3296.37" x2="5595.69" y2="3296.37" gradientUnits="userSpaceOnUse">
<stop stop-color="#603082"/>
<stop offset="0.99" stop-color="#2A0E51"/>
</linearGradient>
<linearGradient id="paint85_linear" x1="19585.4" y1="8434.83" x2="32691.7" y2="8434.83" gradientUnits="userSpaceOnUse">
<stop stop-color="#FF6E27"/>
<stop offset="1" stop-color="#E03347"/>
</linearGradient>
<linearGradient id="paint86_linear" x1="155.988" y1="252.904" x2="254.357" y2="252.904" gradientUnits="userSpaceOnUse">
<stop stop-color="#F3E6EE"/>
<stop offset="0.3" stop-color="#EFE2EC"/>
<stop offset="0.56" stop-color="#E5D8E7"/>
<stop offset="0.82" stop-color="#D3C6DE"/>
<stop offset="0.98" stop-color="#C2B5D6"/>
</linearGradient>
<linearGradient id="paint87_linear" x1="780.73" y1="5200.49" x2="793.895" y2="5200.49" gradientUnits="userSpaceOnUse">
<stop stop-color="#C72A16"/>
<stop offset="1" stop-color="#BA2244"/>
</linearGradient>
<linearGradient id="paint88_linear" x1="4893.1" y1="4255.43" x2="4893.1" y2="4079.68" gradientUnits="userSpaceOnUse">
<stop stop-color="#00FFFF"/>
<stop offset="0.99" stop-color="#26A9FF"/>
</linearGradient>
<linearGradient id="paint89_linear" x1="15023.6" y1="12625.3" x2="14826.4" y2="10899.6" gradientUnits="userSpaceOnUse">
<stop stop-color="#FFD328"/>
<stop offset="1" stop-color="#FFA700"/>
</linearGradient>
<linearGradient id="paint90_linear" x1="69.8206" y1="214.633" x2="163.844" y2="203.854" gradientUnits="userSpaceOnUse">
<stop stop-color="#F3E6EE"/>
<stop offset="0.41" stop-color="#EFE3ED"/>
<stop offset="0.78" stop-color="#E5DBEA"/>
<stop offset="0.98" stop-color="#DBD3E7"/>
</linearGradient>
<linearGradient id="paint91_linear" x1="7360.2" y1="7031.41" x2="17149.8" y2="7031.41" gradientUnits="userSpaceOnUse">
<stop stop-color="#F3E6EE"/>
<stop offset="0.41" stop-color="#EFE3ED"/>
<stop offset="0.78" stop-color="#E5DBEA"/>
<stop offset="0.98" stop-color="#DBD3E7"/>
</linearGradient>
<linearGradient id="paint92_linear" x1="193.954" y1="243.327" x2="193.954" y2="215.16" gradientUnits="userSpaceOnUse">
<stop offset="0.01" stop-color="#7179FF"/>
<stop offset="1" stop-color="#7E85FE"/>
</linearGradient>
<linearGradient id="paint93_linear" x1="11248.7" y1="6483.53" x2="16062.7" y2="6483.53" gradientUnits="userSpaceOnUse">
<stop stop-color="#F3E6EE"/>
<stop offset="0.41" stop-color="#EFE3ED"/>
<stop offset="0.78" stop-color="#E5DBEA"/>
<stop offset="0.98" stop-color="#DBD3E7"/>
</linearGradient>
<linearGradient id="paint94_linear" x1="3337.89" y1="1315.67" x2="3337.89" y2="1297.09" gradientUnits="userSpaceOnUse">
<stop stop-color="#FF6E27"/>
<stop offset="1" stop-color="#E03347"/>
</linearGradient>
<linearGradient id="paint95_linear" x1="2503.79" y1="683.098" x2="2503.79" y2="680.059" gradientUnits="userSpaceOnUse">
<stop stop-color="#FFD328"/>
<stop offset="1" stop-color="#FFA700"/>
</linearGradient>
<linearGradient id="paint96_linear" x1="394.753" y1="165.272" x2="459.394" y2="174.255" gradientUnits="userSpaceOnUse">
<stop offset="0.01" stop-color="#2A0E45"/>
<stop offset="1" stop-color="#561F7D"/>
</linearGradient>
<linearGradient id="paint97_linear" x1="31227.5" y1="1370.39" x2="36865.8" y2="1370.39" gradientUnits="userSpaceOnUse">
<stop offset="0.01" stop-color="#2A0E45"/>
<stop offset="1" stop-color="#561F7D"/>
</linearGradient>
<radialGradient id="paint98_radial" cx="0" cy="0" r="1" gradientUnits="userSpaceOnUse" gradientTransform="translate(439.363 81.0588) rotate(7.88813) scale(24.3083 24.2727)">
<stop stop-color="#86478A"/>
<stop offset="0.99" stop-color="#5A2B82"/>
</radialGradient>
<radialGradient id="paint99_radial" cx="0" cy="0" r="1" gradientUnits="userSpaceOnUse" gradientTransform="translate(34062.6 -108.341) scale(1997.31 393.196)">
<stop stop-color="#86478A"/>
<stop offset="0.99" stop-color="#5A2B82"/>
</radialGradient>
<linearGradient id="paint100_linear" x1="393.753" y1="160.886" x2="461.478" y2="170.298" gradientUnits="userSpaceOnUse">
<stop stop-color="#985997"/>
<stop offset="0.99" stop-color="#5A2B82"/>
</linearGradient>
<linearGradient id="paint101_linear" x1="29929.7" y1="-24.5385" x2="35055" y2="-24.5385" gradientUnits="userSpaceOnUse">
<stop offset="0.01" stop-color="#2A0E45"/>
<stop offset="1" stop-color="#561F7D"/>
</linearGradient>
<linearGradient id="paint102_linear" x1="432.321" y1="125.292" x2="438.09" y2="83.6475" gradientUnits="userSpaceOnUse">
<stop offset="0.02" stop-color="#CEC4DE"/>
<stop offset="1" stop-color="#F0E1EA"/>
</linearGradient>
<linearGradient id="paint103_linear" x1="67767.6" y1="-14276.6" x2="68086.1" y2="-16575.5" gradientUnits="userSpaceOnUse">
<stop offset="0.02" stop-color="#CEC4DE"/>
<stop offset="1" stop-color="#F0E1EA"/>
</linearGradient>
<linearGradient id="paint104_linear" x1="19088.2" y1="1870.56" x2="19088.2" y2="1703.33" gradientUnits="userSpaceOnUse">
<stop stop-color="#FF8647"/>
<stop offset="1" stop-color="#FFB934"/>
</linearGradient>
<linearGradient id="paint105_linear" x1="418.936" y1="112.766" x2="454.061" y2="112.766" gradientUnits="userSpaceOnUse">
<stop stop-color="#FFC200"/>
<stop offset="1" stop-color="#FFD328"/>
</linearGradient>
<linearGradient id="paint106_linear" x1="28042.8" y1="4994.16" x2="28042.8" y2="4306.91" gradientUnits="userSpaceOnUse">
<stop stop-color="#FF8647"/>
<stop offset="1" stop-color="#FFB934"/>
</linearGradient>
<linearGradient id="paint107_linear" x1="22415.2" y1="2192.39" x2="24834" y2="2192.39" gradientUnits="userSpaceOnUse">
<stop stop-color="#FFC200"/>
<stop offset="1" stop-color="#FFD328"/>
</linearGradient>
<linearGradient id="paint108_linear" x1="431.238" y1="151.052" x2="431.238" y2="139.81" gradientUnits="userSpaceOnUse">
<stop stop-color="#FFB934"/>
<stop offset="1" stop-color="#FF9F47"/>
</linearGradient>
<linearGradient id="paint109_linear" x1="1625.61" y1="3134.82" x2="1625.61" y2="2756.13" gradientUnits="userSpaceOnUse">
<stop stop-color="#FFB934"/>
<stop offset="1" stop-color="#FF9F47"/>
</linearGradient>
<linearGradient id="paint110_linear" x1="416.743" y1="166.435" x2="416.743" y2="126.272" gradientUnits="userSpaceOnUse">
<stop/>
<stop offset="1" stop-color="#CDC8CA"/>
</linearGradient>
<linearGradient id="paint111_linear" x1="10625.1" y1="6607.31" x2="10625.1" y2="4343.74" gradientUnits="userSpaceOnUse">
<stop/>
<stop offset="1" stop-color="#CDC8CA"/>
</linearGradient>
<linearGradient id="paint112_linear" x1="433.456" y1="106.608" x2="466.692" y2="106.608" gradientUnits="userSpaceOnUse">
<stop stop-color="#CDC8CA"/>
<stop offset="1"/>
</linearGradient>
<linearGradient id="paint113_linear" x1="452.188" y1="168.904" x2="452.188" y2="150.281" gradientUnits="userSpaceOnUse">
<stop stop-color="#AB6F55"/>
<stop offset="1"/>
</linearGradient>
<linearGradient id="paint114_linear" x1="67412" y1="22189.9" x2="67899.4" y2="18738" gradientUnits="userSpaceOnUse">
<stop offset="0.02" stop-color="#FFDAC7"/>
<stop offset="1" stop-color="#FFF3C2"/>
</linearGradient>
<linearGradient id="paint115_linear" x1="454.188" y1="200.969" x2="517.599" y2="154.164" gradientUnits="userSpaceOnUse">
<stop stop-color="#C93347"/>
<stop offset="1" stop-color="#FF7527"/>
</linearGradient>
<linearGradient id="paint116_linear" x1="445.668" y1="208.736" x2="448.084" y2="207.474" gradientUnits="userSpaceOnUse">
<stop offset="0.01" stop-color="#2A0E51"/>
<stop offset="1" stop-color="#50306C"/>
</linearGradient>
<radialGradient id="paint117_radial" cx="0" cy="0" r="1" gradientUnits="userSpaceOnUse" gradientTransform="translate(4571.04 -1303.39) rotate(53.5683) scale(25.7572 30.8037)">
<stop stop-color="#EBD7E3"/>
<stop offset="0.98" stop-color="#BDAFD2"/>
</radialGradient>
<linearGradient id="paint118_linear" x1="444.204" y1="206.808" x2="516.848" y2="153.188" gradientUnits="userSpaceOnUse">
<stop/>
<stop offset="1" stop-color="#CD6327"/>
</linearGradient>
<linearGradient id="paint119_linear" x1="518.759" y1="151.823" x2="522.931" y2="151.823" gradientUnits="userSpaceOnUse">
<stop stop-color="#DD7500"/>
<stop offset="1" stop-color="#CD6327"/>
</linearGradient>
<radialGradient id="paint120_radial" cx="0" cy="0" r="1" gradientUnits="userSpaceOnUse" gradientTransform="translate(500.47 230.797) scale(27.2573 27.2158)">
<stop offset="0.01" stop-color="#7179FF"/>
<stop offset="1" stop-color="#584EDE"/>
</radialGradient>
<radialGradient id="paint121_radial" cx="0" cy="0" r="1" gradientUnits="userSpaceOnUse" gradientTransform="translate(70687.4 12441.3) scale(5503.37 2307.32)">
<stop offset="0.01" stop-color="#7179FF"/>
<stop offset="1" stop-color="#584EDE"/>
</radialGradient>
<linearGradient id="paint122_linear" x1="70506.5" y1="12848.1" x2="70506.5" y2="10586.3" gradientUnits="userSpaceOnUse">
<stop offset="0.01" stop-color="#7179FF"/>
<stop offset="1" stop-color="#7E85FE"/>
</linearGradient>
<linearGradient id="paint123_linear" x1="22589.8" y1="11720.1" x2="22589.8" y2="10400.3" gradientUnits="userSpaceOnUse">
<stop stop-color="#FF8647"/>
<stop offset="1" stop-color="#FFB934"/>
</linearGradient>
<linearGradient id="paint124_linear" x1="31166.7" y1="12089.5" x2="31166.7" y2="10306.6" gradientUnits="userSpaceOnUse">
<stop stop-color="#FF8647"/>
<stop offset="1" stop-color="#FFB934"/>
</linearGradient>
</defs>
</svg>
