<svg width="494" height="494" viewBox="0 0 494 494" fill="none" xmlns="http://www.w3.org/2000/svg">
<path d="M154.346 37.0698H33.8691V236.488H154.346V37.0698Z" fill="#E0E0E0"/>
<path d="M150.334 37.0698H29.8574V236.488H150.334V37.0698Z" fill="#EBEBEB"/>
<path d="M145.207 41.1107H34.9951V232.437H145.207V41.1107Z" fill="#FAFAFA"/>
<path d="M123.738 65.9688H55.9707V207.569H123.738V65.9688Z" fill="#EBEBEB"/>
<path d="M55.9703 157.467C55.8122 144.238 67.7077 131.325 80.8086 129.477C87.0528 128.598 93.6526 129.833 99.5312 127.442C109.945 123.174 113.264 109.332 123.747 105.222L124.221 207.579H55.9703V157.467Z" fill="#E0E0E0"/>
<path d="M419.012 92.5591L409.122 92.6126L409.388 141.814L419.278 141.761L419.012 92.5591Z" fill="#E0E0E0"/>
<path d="M349.073 92.681L323.465 92.8195L323.612 119.979L349.22 119.841L349.073 92.681Z" fill="#EBEBEB"/>
<path d="M374.563 92.553L348.954 92.6915L349.101 119.851L374.71 119.713L374.563 92.553Z" fill="#F5F5F5"/>
<path d="M323.501 100.351C340.514 100.489 357.577 100.351 374.59 100.114C374.653 100.102 374.71 100.068 374.751 100.019C374.792 99.969 374.815 99.9067 374.815 99.8423C374.815 99.778 374.792 99.7157 374.751 99.6661C374.71 99.6165 374.653 99.5827 374.59 99.5706C357.57 99.4718 340.54 99.5739 323.501 99.8769C323.438 99.8769 323.378 99.9019 323.333 99.9464C323.289 99.9908 323.264 100.051 323.264 100.114C323.264 100.177 323.289 100.237 323.333 100.282C323.378 100.326 323.438 100.351 323.501 100.351Z" fill="#E0E0E0"/>
<path d="M354.029 119.399L307.505 119.651L307.625 141.782L354.149 141.53L354.029 119.399Z" fill="#EBEBEB"/>
<path d="M400.325 119.149L353.801 119.4L353.921 141.531L400.445 141.279L400.325 119.149Z" fill="#F5F5F5"/>
<path d="M307.525 125.822C338.43 126.177 369.443 125.822 400.348 125.367C400.411 125.355 400.468 125.321 400.509 125.272C400.55 125.222 400.572 125.16 400.572 125.096C400.572 125.031 400.55 124.969 400.509 124.919C400.468 124.87 400.411 124.836 400.348 124.824C369.443 124.656 338.43 124.676 307.525 125.357C307.472 125.369 307.424 125.398 307.389 125.44C307.355 125.482 307.336 125.535 307.336 125.59C307.336 125.644 307.355 125.697 307.389 125.739C307.424 125.782 307.472 125.811 307.525 125.822Z" fill="#E0E0E0"/>
<path d="M470.367 141.798H290.126V149.731H470.367V141.798Z" fill="#E0E0E0"/>
<path d="M326.959 145.611H319.638V172.673H326.959V145.611Z" fill="#E0E0E0"/>
<path d="M436.182 145.611H428.861V172.673H436.182V145.611Z" fill="#E0E0E0"/>
<path d="M428.664 74.2092L418.774 74.2627L419.141 141.93L429.03 141.876L428.664 74.2092Z" fill="#EBEBEB"/>
<path d="M444.115 86.8115L428.752 86.8946L429.049 141.728L444.412 141.645L444.115 86.8115Z" fill="#F5F5F5"/>
<path d="M443.997 97.397C438.882 97.7527 433.749 97.7527 428.634 97.397C433.749 97.0414 438.882 97.0414 443.997 97.397Z" fill="#E0E0E0"/>
<path d="M443.997 95.095C438.882 95.4507 433.749 95.4507 428.634 95.095C433.749 94.7393 438.882 94.7393 443.997 95.095Z" fill="#E0E0E0"/>
<path d="M443.997 133.38C438.882 133.736 433.749 133.736 428.634 133.38C433.749 133.024 438.882 133.024 443.997 133.38Z" fill="#E0E0E0"/>
<path d="M443.997 131.117C438.882 131.46 433.749 131.46 428.634 131.117C433.749 130.762 438.882 130.762 443.997 131.117Z" fill="#E0E0E0"/>
<path d="M436.568 126.089C436.419 126.089 436.301 120.556 436.301 113.729C436.301 106.902 436.419 101.379 436.568 101.379C436.716 101.379 436.834 106.902 436.834 113.729C436.834 120.556 436.696 126.089 436.568 126.089Z" fill="#E0E0E0"/>
<path d="M460.892 100.292H444.165V141.679H460.892V100.292Z" fill="#EBEBEB"/>
<path d="M426.411 85.7881C426.421 86.3528 426.262 86.9077 425.956 87.3821C425.649 87.8565 425.208 88.2289 424.689 88.4519C424.17 88.6748 423.597 88.7383 423.041 88.6341C422.486 88.53 421.975 88.2629 421.572 87.867C421.169 87.4711 420.893 86.9643 420.779 86.411C420.665 85.8577 420.719 85.2831 420.932 84.7603C421.146 84.2374 421.511 83.7901 421.98 83.4752C422.449 83.1603 423.001 82.9921 423.566 82.992C424.313 82.9893 425.031 83.2815 425.563 83.805C426.096 84.3286 426.401 85.0412 426.411 85.7881Z" fill="#E0E0E0"/>
<path d="M424.445 93.6031H422.687V133.854H424.445V93.6031Z" fill="#E0E0E0"/>
<path d="M171.705 407.649C171.705 407.649 162.645 414.565 171.319 423.664C171.394 423.742 171.483 423.804 171.581 423.846C171.679 423.888 171.785 423.911 171.893 423.911L251.041 423.447C251.041 423.447 257.799 415.869 252.187 407.135L171.705 407.649Z" fill="#EBEBEB"/>
<path d="M233.544 414.851C233.544 414.94 223.664 415.009 211.541 415.009C199.418 415.009 189.528 414.94 189.528 414.851C189.528 414.762 199.408 414.693 211.541 414.693C223.674 414.693 233.544 414.762 233.544 414.851Z" fill="#E0E0E0"/>
<path d="M221.233 417.717C221.233 417.805 216.609 417.875 210.888 417.875C205.168 417.875 200.544 417.805 200.544 417.717C200.544 417.628 205.178 417.549 210.888 417.549C216.599 417.549 221.233 417.628 221.233 417.717Z" fill="#E0E0E0"/>
<path d="M241.635 423.19C241.635 423.19 241.813 422.281 242.06 420.819C242.377 418.912 242.529 416.982 242.515 415.049C242.495 413.113 242.307 411.182 241.951 409.279C241.675 407.817 241.438 406.928 241.487 406.908C241.584 407.104 241.66 407.309 241.714 407.52C241.899 408.081 242.051 408.652 242.169 409.23C242.593 411.138 242.818 413.085 242.841 415.039C242.852 416.993 242.663 418.943 242.277 420.858C242.129 421.59 241.981 422.182 241.862 422.578C241.744 422.973 241.665 423.2 241.635 423.19Z" fill="#E0E0E0"/>
<path d="M247.543 407.056C247.689 407.229 247.808 407.422 247.899 407.629C248.03 407.86 248.148 408.097 248.255 408.34C248.404 408.662 248.536 408.992 248.65 409.328C248.974 410.179 249.228 411.055 249.411 411.947C249.618 413.045 249.733 414.159 249.757 415.276C249.754 416.396 249.655 417.513 249.46 418.616C249.295 419.513 249.057 420.395 248.749 421.254C248.63 421.629 248.482 421.945 248.364 422.242C248.264 422.486 248.148 422.724 248.018 422.953C247.93 423.16 247.818 423.356 247.682 423.536C247.623 423.536 248.067 422.657 248.541 421.194C249.152 419.278 249.452 417.277 249.431 415.266C249.417 414.166 249.311 413.069 249.114 411.986C248.951 411.102 248.727 410.231 248.443 409.378C247.988 407.906 247.494 407.056 247.543 407.056Z" fill="#E0E0E0"/>
<path d="M184.193 423.299C184.047 423.137 183.921 422.958 183.818 422.765C183.682 422.556 183.56 422.338 183.452 422.113C183.295 421.817 183.154 421.514 183.027 421.204C182.692 420.397 182.434 419.56 182.257 418.705C182.049 417.654 181.946 416.585 181.95 415.513C181.974 414.442 182.106 413.376 182.346 412.332C182.545 411.483 182.827 410.656 183.185 409.862C183.316 409.554 183.464 409.254 183.63 408.963C183.74 408.735 183.869 408.517 184.015 408.311C184.242 407.965 184.381 407.777 184.401 407.797C184.42 407.817 183.946 408.587 183.413 409.951C183.09 410.744 182.835 411.564 182.652 412.401C182.438 413.429 182.315 414.474 182.286 415.523C182.288 416.57 182.38 417.615 182.563 418.645C182.731 419.485 182.962 420.311 183.254 421.115C183.768 422.489 184.242 423.269 184.193 423.299Z" fill="#E0E0E0"/>
<path d="M175.647 425.225C175.483 425.049 175.346 424.849 175.242 424.633C175.1 424.382 174.977 424.121 174.876 423.852C174.697 423.532 174.535 423.202 174.392 422.864C174.01 421.96 173.71 421.025 173.493 420.068C172.94 417.721 172.886 415.284 173.335 412.915C173.509 411.948 173.77 410.999 174.115 410.079C174.244 409.684 174.412 409.348 174.54 409.042C174.654 408.781 174.783 408.527 174.925 408.281C175.03 408.062 175.156 407.853 175.301 407.659C175.36 407.659 174.856 408.597 174.313 410.158C174.007 411.074 173.772 412.012 173.611 412.964C173.426 414.131 173.34 415.311 173.354 416.491C173.406 418.644 173.824 420.772 174.589 422.785C175.153 424.316 175.696 425.196 175.647 425.225Z" fill="#E0E0E0"/>
<path d="M248.136 447.564V462.7H218.832V447.564H248.136Z" fill="#EBEBEB"/>
<path d="M153.486 455.261C153.486 455.399 153.486 455.527 153.486 455.666C153.627 457.876 154.608 459.948 156.228 461.458C157.848 462.968 159.985 463.802 162.2 463.787H249.48V462.69H228.732C226.724 462.69 224.799 461.893 223.38 460.474C221.961 459.054 221.164 457.129 221.164 455.122C221.164 453.115 221.961 451.19 223.38 449.771C224.799 448.351 226.724 447.554 228.732 447.554H249.48V445.944L162.18 446.24C161.011 446.243 159.855 446.481 158.781 446.94C157.706 447.399 156.734 448.068 155.923 448.91C155.112 449.751 154.479 450.747 154.06 451.838C153.641 452.929 153.446 454.093 153.486 455.261Z" fill="#E0E0E0"/>
<path d="M248.136 455.32C248.136 455.409 242.109 455.488 234.679 455.488C227.249 455.488 221.223 455.409 221.223 455.32C221.223 455.231 227.249 455.162 234.679 455.162C242.109 455.162 248.136 455.241 248.136 455.32Z" fill="#E0E0E0"/>
<path d="M247.712 458.738C247.712 458.827 242.011 458.896 234.977 458.896C227.942 458.896 222.241 458.827 222.241 458.738C222.241 458.649 227.942 458.58 234.977 458.58C242.011 458.58 247.712 458.649 247.712 458.738Z" fill="#E0E0E0"/>
<path d="M248.136 461.86C248.136 461.949 243.008 462.018 236.685 462.018C230.362 462.018 225.234 461.949 225.234 461.86C225.234 461.771 230.362 461.702 236.685 461.702C243.008 461.702 248.136 461.771 248.136 461.86Z" fill="#E0E0E0"/>
<path d="M248.136 452.257C248.136 452.346 242.208 452.415 234.956 452.415C227.704 452.415 221.776 452.346 221.776 452.257C221.776 452.168 227.704 452.099 234.956 452.099C242.208 452.099 248.136 452.168 248.136 452.257Z" fill="#E0E0E0"/>
<path d="M247.711 449.194C247.711 449.283 242.455 449.352 235.984 449.352C229.512 449.352 224.246 449.283 224.246 449.194C224.246 449.105 229.502 449.036 235.984 449.036C242.465 449.036 247.711 449.105 247.711 449.194Z" fill="#E0E0E0"/>
<path d="M164.067 446.487C163.389 447.17 162.768 447.907 162.21 448.69C160.885 450.602 160.187 452.879 160.214 455.205C160.241 457.531 160.99 459.791 162.358 461.673C162.939 462.44 163.577 463.163 164.265 463.836C164.04 463.706 163.832 463.55 163.642 463.372C163.101 462.905 162.611 462.381 162.18 461.811C160.727 459.913 159.927 457.596 159.9 455.206C159.873 452.816 160.621 450.482 162.032 448.552C162.447 447.972 162.924 447.438 163.455 446.961C163.637 446.777 163.843 446.618 164.067 446.487Z" fill="#F5F5F5"/>
<path d="M161.114 446.161C160.444 446.855 159.824 447.595 159.256 448.374C157.936 450.287 157.243 452.562 157.271 454.886C157.299 457.209 158.048 459.467 159.414 461.347C159.992 462.117 160.63 462.84 161.321 463.51C161.091 463.384 160.878 463.228 160.689 463.046C160.148 462.579 159.658 462.055 159.227 461.485C157.773 459.591 156.973 457.278 156.944 454.892C156.916 452.505 157.661 450.173 159.069 448.246C159.484 447.663 159.961 447.126 160.491 446.645C160.679 446.46 160.888 446.297 161.114 446.161Z" fill="#F5F5F5"/>
<path d="M220.413 446.487C219.743 447.175 219.126 447.911 218.565 448.69C217.24 450.602 216.543 452.879 216.569 455.205C216.596 457.531 217.345 459.791 218.713 461.673C219.294 462.44 219.932 463.163 220.62 463.836C220.391 463.708 220.179 463.552 219.988 463.372C219.45 462.904 218.963 462.381 218.535 461.811C217.076 459.918 216.269 457.603 216.235 455.213C216.202 452.823 216.943 450.486 218.348 448.552C218.76 447.969 219.237 447.436 219.77 446.961C219.966 446.779 220.181 446.62 220.413 446.487Z" fill="#F5F5F5"/>
<path d="M217.469 446.161C216.793 446.849 216.172 447.589 215.612 448.374C214.286 450.284 213.588 452.559 213.615 454.884C213.642 457.209 214.391 459.467 215.76 461.347C216.341 462.114 216.979 462.837 217.667 463.51C217.442 463.379 217.234 463.224 217.044 463.046C216.501 462.581 216.01 462.058 215.582 461.485C214.129 459.591 213.328 457.278 213.3 454.892C213.271 452.505 214.016 450.173 215.424 448.246C215.839 447.663 216.316 447.126 216.847 446.645C217.032 446.457 217.241 446.294 217.469 446.161Z" fill="#F5F5F5"/>
<path d="M173.997 457.444L173.908 451.279C173.939 450.744 173.869 450.207 173.701 449.698C173.611 449.443 173.454 449.217 173.248 449.044C173.041 448.87 172.791 448.755 172.525 448.71C171.754 448.364 170.549 449.006 170.015 449.896C169.543 450.83 169.334 451.875 169.413 452.919C169.393 454.543 169.472 456.166 169.65 457.78C169.683 458.556 169.878 459.317 170.223 460.013C170.376 460.373 170.64 460.675 170.976 460.877C171.312 461.078 171.702 461.168 172.092 461.135C172.483 461.101 172.852 460.944 173.148 460.688C173.444 460.431 173.651 460.088 173.74 459.707C173.969 458.976 174.056 458.208 173.997 457.444Z" fill="#F5F5F5"/>
<path d="M207.895 455.616C207.895 455.705 201.581 455.784 193.806 455.784C186.03 455.784 179.707 455.705 179.707 455.616C179.707 455.527 186.02 455.458 193.806 455.458C201.591 455.458 207.895 455.527 207.895 455.616Z" fill="#F5F5F5"/>
<path d="M168.147 445.884L167.989 431.529H175.804L176.071 445.884H168.147Z" fill="#F5F5F5"/>
<path d="M175.34 434.078C174.135 434.243 172.919 434.299 171.704 434.246C170.493 434.299 169.279 434.243 168.078 434.078C169.28 433.919 170.493 433.866 171.704 433.92C172.918 433.866 174.135 433.919 175.34 434.078Z" fill="#E0E0E0"/>
<path d="M175.34 436.301C174.135 436.459 172.918 436.512 171.704 436.459C170.493 436.512 169.28 436.459 168.078 436.301C169.28 436.142 170.493 436.089 171.704 436.143C172.918 436.089 174.135 436.142 175.34 436.301Z" fill="#E0E0E0"/>
<path d="M175.34 438.514C174.135 438.672 172.918 438.725 171.704 438.672C170.493 438.725 169.28 438.672 168.078 438.514C169.28 438.355 170.493 438.303 171.704 438.356C172.918 438.303 174.135 438.355 175.34 438.514Z" fill="#E0E0E0"/>
<path d="M175.34 440.727C174.135 440.885 172.918 440.938 171.704 440.885C170.493 440.938 169.28 440.886 168.078 440.727C169.28 440.569 170.493 440.516 171.704 440.569C172.918 440.516 174.135 440.569 175.34 440.727Z" fill="#E0E0E0"/>
<path d="M175.34 442.94C174.135 443.105 172.919 443.161 171.704 443.108C170.493 443.162 169.279 443.105 168.078 442.94C169.28 442.787 170.493 442.735 171.704 442.782C172.918 442.735 174.134 442.788 175.34 442.94Z" fill="#E0E0E0"/>
<path d="M167.575 431.143H254.183C255.178 436.269 255.178 441.539 254.183 446.665H167.961V445.588H173.236C173.563 445.588 173.886 445.524 174.188 445.398C174.489 445.273 174.763 445.089 174.993 444.858C175.224 444.627 175.406 444.352 175.53 444.05C175.654 443.748 175.718 443.425 175.716 443.098V434.513C175.718 434.186 175.654 433.862 175.53 433.56C175.406 433.258 175.224 432.984 174.993 432.753C174.763 432.521 174.489 432.338 174.188 432.212C173.886 432.087 173.563 432.023 173.236 432.023H167.595L167.575 431.143Z" fill="#EBEBEB"/>
<path d="M188.046 438.919H189.488C189.54 438.904 189.595 438.904 189.646 438.919C189.696 438.944 189.737 438.982 189.765 439.029C189.793 439.076 189.807 439.131 189.804 439.186C189.81 439.218 189.81 439.252 189.804 439.285C189.804 439.403 189.745 439.522 189.706 439.65C189.533 440.256 189.222 440.814 188.797 441.28C188.649 441.467 188.463 441.62 188.252 441.731C188.041 441.841 187.809 441.907 187.572 441.923H187.394C187.187 441.884 186.991 441.801 186.82 441.678C186.649 441.555 186.508 441.395 186.406 441.211C186.105 440.683 185.958 440.08 185.981 439.472C185.984 439.052 186.04 438.634 186.149 438.227C186.307 437.614 186.601 437.043 187.008 436.558C187.161 436.353 187.358 436.185 187.583 436.066C187.808 435.946 188.058 435.878 188.313 435.866C188.5 435.865 188.686 435.906 188.856 435.985C189.266 436.213 189.57 436.593 189.706 437.042C189.715 437.091 189.715 437.141 189.706 437.19C189.719 437.238 189.719 437.29 189.706 437.338C189.679 437.386 189.641 437.426 189.594 437.453C189.547 437.481 189.493 437.496 189.439 437.496C189.407 437.507 189.372 437.507 189.34 437.496C189.294 437.484 189.252 437.46 189.218 437.427C189.183 437.395 189.157 437.354 189.143 437.309C189.099 437.186 189.039 437.069 188.965 436.963C188.893 436.842 188.792 436.742 188.671 436.671C188.55 436.6 188.413 436.561 188.273 436.558C188.101 436.559 187.934 436.618 187.799 436.726C187.436 437.025 187.163 437.418 187.008 437.862C186.79 438.378 186.676 438.932 186.673 439.492C186.658 439.933 186.743 440.372 186.92 440.776C186.973 440.935 187.074 441.074 187.208 441.174C187.342 441.275 187.503 441.333 187.67 441.34C187.811 441.323 187.946 441.277 188.067 441.203C188.188 441.13 188.292 441.032 188.372 440.915C188.703 440.523 188.955 440.069 189.113 439.581C188.451 439.581 188.125 439.581 188.075 439.581C187.984 439.581 187.896 439.545 187.831 439.48C187.766 439.415 187.73 439.327 187.73 439.235V439.126C187.757 439.065 187.801 439.013 187.857 438.976C187.913 438.939 187.979 438.919 188.046 438.919Z" fill="#FAFAFA"/>
<path d="M192.967 436.093C192.967 436.093 192.967 436.162 192.967 436.202C193.026 436.406 193.355 438.194 193.955 441.567C193.959 441.593 193.959 441.62 193.955 441.646C193.968 441.698 193.968 441.752 193.955 441.804C193.932 441.852 193.895 441.893 193.85 441.921C193.804 441.949 193.751 441.963 193.698 441.962H193.648C193.592 441.952 193.54 441.927 193.498 441.888C193.456 441.85 193.426 441.8 193.411 441.745L193.065 439.956H191.287L190.428 441.755C190.434 441.774 190.434 441.795 190.428 441.814C190.398 441.858 190.358 441.894 190.312 441.92C190.266 441.946 190.214 441.96 190.161 441.962C190.101 441.961 190.043 441.944 189.993 441.913C189.95 441.883 189.915 441.843 189.891 441.796C189.867 441.75 189.854 441.698 189.854 441.646C189.845 441.617 189.845 441.586 189.854 441.557C189.904 441.429 189.993 441.241 190.121 440.974C191.366 438.247 192.097 436.647 192.354 436.153C192.378 436.092 192.419 436.04 192.471 436.001C192.523 435.963 192.586 435.94 192.651 435.935C192.712 435.932 192.774 435.944 192.83 435.972C192.885 436 192.932 436.042 192.967 436.093ZM192.581 437.299L191.593 439.324H192.957L192.581 437.299Z" fill="#FAFAFA"/>
<path d="M197.798 441.962H195.189C195.13 441.961 195.072 441.944 195.021 441.913C194.976 441.871 194.94 441.82 194.914 441.764C194.889 441.709 194.875 441.648 194.873 441.587C194.873 441.488 195.11 439.7 195.594 436.251C195.589 436.212 195.589 436.172 195.594 436.133C195.615 436.075 195.655 436.025 195.706 435.991C195.758 435.958 195.819 435.941 195.881 435.945C195.926 435.935 195.974 435.935 196.019 435.945C196.071 435.97 196.114 436.009 196.144 436.058C196.174 436.108 196.189 436.164 196.187 436.222L196.019 437.684C195.723 439.97 195.565 441.175 195.545 441.3H197.768C197.823 441.29 197.88 441.29 197.936 441.3C197.996 441.323 198.047 441.363 198.082 441.417C198.118 441.47 198.136 441.533 198.133 441.596C198.138 441.629 198.138 441.663 198.133 441.695C198.114 441.77 198.071 441.837 198.01 441.885C197.95 441.933 197.875 441.96 197.798 441.962Z" fill="#FAFAFA"/>
<path d="M201.365 436.093C201.365 436.093 201.365 436.162 201.365 436.202C201.424 436.409 201.77 438.178 202.353 441.567C202.357 441.593 202.357 441.62 202.353 441.646C202.35 441.702 202.333 441.756 202.303 441.804C202.28 441.852 202.244 441.893 202.198 441.921C202.153 441.949 202.1 441.963 202.046 441.962H201.997C201.942 441.95 201.89 441.924 201.849 441.886C201.807 441.848 201.776 441.799 201.76 441.745L201.552 439.956H199.774L198.915 441.755C198.919 441.774 198.919 441.794 198.915 441.814C198.882 441.857 198.84 441.893 198.792 441.918C198.745 441.944 198.692 441.959 198.638 441.962C198.579 441.959 198.521 441.942 198.47 441.913C198.427 441.883 198.392 441.843 198.368 441.796C198.344 441.75 198.332 441.698 198.332 441.646C198.327 441.616 198.327 441.586 198.332 441.557C198.381 441.429 198.47 441.241 198.598 440.974C199.843 438.247 200.574 436.647 200.831 436.153C200.855 436.092 200.896 436.04 200.948 436.001C201.001 435.963 201.063 435.94 201.128 435.935C201.176 435.944 201.222 435.962 201.263 435.989C201.304 436.017 201.338 436.052 201.365 436.093ZM200.979 437.299L199.991 439.324H201.355L200.979 437.299Z" fill="#FAFAFA"/>
<path d="M205.504 439.176L205.979 440.48C206.245 441.231 206.384 441.616 206.384 441.656C206.399 441.707 206.399 441.762 206.384 441.814C206.355 441.859 206.316 441.896 206.269 441.922C206.223 441.948 206.17 441.962 206.117 441.962C205.998 441.962 205.919 441.893 205.86 441.755C205.801 441.616 205.86 441.656 205.811 441.616C205.672 441.29 205.435 440.628 205.109 439.779L203.637 441.755C203.608 441.802 203.567 441.843 203.519 441.872C203.471 441.901 203.417 441.918 203.36 441.923C203.308 441.933 203.255 441.933 203.202 441.923C203.155 441.897 203.116 441.858 203.09 441.811C203.064 441.763 203.051 441.71 203.054 441.656V441.636C203.088 441.54 203.142 441.453 203.212 441.379C203.706 440.737 204.2 439.976 204.852 439.097C204.793 438.919 204.734 438.761 204.674 438.603C204.121 437.111 203.835 436.34 203.835 436.291C203.826 436.239 203.826 436.185 203.835 436.133C203.859 436.086 203.896 436.046 203.941 436.019C203.987 435.991 204.038 435.976 204.092 435.975C204.151 435.975 204.209 435.992 204.26 436.024C204.31 436.055 204.351 436.1 204.378 436.153L205.257 438.504L206.996 436.133C207.026 436.087 207.067 436.049 207.116 436.023C207.164 435.997 207.218 435.984 207.273 435.985C207.318 435.974 207.366 435.974 207.411 435.985C207.462 436.01 207.504 436.05 207.532 436.099C207.56 436.148 207.573 436.205 207.569 436.261C207.583 436.31 207.583 436.361 207.569 436.409L205.504 439.176Z" fill="#FAFAFA"/>
<path d="M211.985 435.955C212.031 435.945 212.078 435.945 212.123 435.955C212.174 435.978 212.217 436.016 212.247 436.063C212.277 436.111 212.292 436.166 212.291 436.222C211.866 439.601 211.629 441.419 211.59 441.695C211.516 442.207 211.323 442.694 211.027 443.118C210.745 443.514 210.331 443.795 209.86 443.912C209.388 444.028 208.891 443.97 208.458 443.75C208.07 443.591 207.746 443.305 207.539 442.94C207.53 442.891 207.53 442.841 207.539 442.792C207.525 442.74 207.525 442.686 207.539 442.634C207.564 442.585 207.602 442.544 207.649 442.516C207.696 442.488 207.751 442.474 207.806 442.476C207.852 442.479 207.897 442.492 207.938 442.514C207.979 442.537 208.015 442.567 208.043 442.604C208.188 442.829 208.385 443.015 208.617 443.147C208.849 443.279 209.11 443.354 209.377 443.365C209.57 443.356 209.758 443.304 209.929 443.214C210.1 443.123 210.249 442.996 210.365 442.841C210.72 442.367 210.92 441.794 210.938 441.201C210.839 441.361 210.708 441.499 210.552 441.606C210.285 441.808 209.959 441.916 209.624 441.913H209.446C209.238 441.876 209.042 441.793 208.871 441.67C208.7 441.547 208.559 441.386 208.458 441.201C208.149 440.675 207.998 440.072 208.023 439.462C208.023 439.146 208.023 438.82 208.023 438.474C208.069 437.941 208.188 437.19 208.379 436.222C208.37 436.193 208.37 436.162 208.379 436.133C208.394 436.071 208.43 436.016 208.48 435.977C208.53 435.937 208.592 435.916 208.655 435.915C208.708 435.918 208.76 435.935 208.804 435.965C208.851 435.986 208.892 436.021 208.92 436.065C208.948 436.109 208.962 436.16 208.962 436.212C208.934 436.609 208.884 437.005 208.814 437.397C208.712 438.002 208.646 438.613 208.616 439.225C208.597 439.707 208.674 440.187 208.843 440.638C209.021 441.063 209.278 441.27 209.614 441.27H209.723C210.051 441.167 210.329 440.945 210.503 440.648C210.815 440.217 211.034 439.726 211.145 439.206L211.54 436.242C211.535 436.199 211.535 436.156 211.54 436.113C211.552 436.068 211.575 436.027 211.607 435.993C211.638 435.959 211.677 435.933 211.721 435.917C211.765 435.902 211.812 435.897 211.858 435.904C211.904 435.91 211.947 435.928 211.985 435.955Z" fill="#FAFAFA"/>
<path d="M250.952 446.863C250.863 446.863 250.784 443.306 250.784 438.909C250.784 434.513 250.863 430.946 250.952 430.946C251.041 430.946 251.11 434.513 251.11 438.909C251.11 443.306 251.021 446.863 250.952 446.863Z" fill="#F5F5F5"/>
<path d="M180.054 446.863C179.965 446.863 179.896 443.306 179.896 438.909C179.896 434.513 179.965 430.946 180.054 430.946C180.143 430.946 180.212 434.513 180.212 438.909C180.212 443.306 180.143 446.863 180.054 446.863Z" fill="#E0E0E0"/>
<path d="M252.444 446.863C252.365 446.863 252.286 443.306 252.286 438.909C252.286 434.513 252.365 430.946 252.444 430.946C252.523 430.946 252.612 434.513 252.612 438.909C252.612 443.306 252.533 446.863 252.444 446.863Z" fill="#F5F5F5"/>
<path d="M178.641 446.863C178.552 446.863 178.473 443.306 178.473 438.909C178.473 434.513 178.552 430.946 178.641 430.946C178.73 430.946 178.799 434.513 178.799 438.909C178.799 443.306 178.72 446.863 178.641 446.863Z" fill="#E0E0E0"/>
<path d="M229.927 433.564L239.076 440.944L239.155 441.014H239.056L237.841 441.34L230.115 443.365L223.11 440.401L221.134 439.551L220.61 439.324L220.482 439.265H220.433H220.482L220.62 439.324L221.144 439.532L223.12 440.361L230.135 443.325L237.861 441.29L239.086 440.964V441.053L229.947 433.653" fill="#E0E0E0"/>
<path d="M238.236 439.779L238.74 440.243L239.412 440.105L239.115 440.717L239.461 441.31L238.78 441.231L238.325 441.735L238.197 441.063L237.574 440.786L238.167 440.46L238.236 439.779Z" fill="#E0E0E0"/>
<path d="M229.464 442.683L229.799 442.97L230.234 442.851L230.066 443.266L230.313 443.632L229.869 443.602L229.592 443.948L229.483 443.523L229.068 443.365L229.444 443.128L229.464 442.683Z" fill="#E0E0E0"/>
<path d="M219.761 438.712L220.304 438.741L220.64 438.316L220.778 438.84L221.292 439.028L220.828 439.314L220.808 439.867L220.383 439.522L219.869 439.67L220.067 439.156L219.761 438.712Z" fill="#E0E0E0"/>
<path d="M242.347 433.683L242.89 433.722L243.226 433.287L243.364 433.821L243.868 434.009L243.414 434.295L243.394 434.839L242.969 434.493L242.445 434.641L242.653 434.137L242.347 433.683Z" fill="#E0E0E0"/>
<path d="M229.482 433.327L229.828 433.347L230.046 433.08L230.135 433.416L230.461 433.534L230.164 433.722L230.154 434.068L229.888 433.841L229.552 433.939L229.68 433.613L229.482 433.327Z" fill="#E0E0E0"/>
<path d="M243.107 434.068C243.107 434.068 240.143 433.999 236.497 433.851C232.852 433.702 229.888 433.534 229.888 433.495C229.888 433.455 232.852 433.564 236.497 433.722C240.143 433.88 243.107 434.028 243.107 434.068Z" fill="#E0E0E0"/>
<path d="M246.437 431.015H158.594C157.448 428.407 157.161 425.927 158.594 423.704H246.437C246.982 424.845 247.265 426.094 247.265 427.359C247.265 428.624 246.982 429.873 246.437 431.015Z" fill="#E0E0E0"/>
<path d="M224.375 425.788H176.783V428.446H224.375V425.788Z" fill="#EBEBEB"/>
<path d="M161.962 431.055C161.672 430.81 161.437 430.507 161.271 430.165C160.823 429.368 160.55 428.484 160.47 427.572C160.39 426.661 160.505 425.743 160.806 424.88C160.904 424.513 161.087 424.175 161.34 423.892C161.254 424.253 161.148 424.609 161.024 424.959C160.794 425.804 160.714 426.684 160.787 427.557C160.873 428.429 161.103 429.28 161.468 430.076C161.662 430.387 161.827 430.714 161.962 431.055Z" fill="#E0E0E0"/>
<path d="M163.87 431.055C163.573 430.816 163.337 430.512 163.179 430.165C162.725 429.371 162.449 428.488 162.368 427.577C162.291 426.664 162.405 425.745 162.704 424.88C162.812 424.517 162.993 424.18 163.238 423.892C163.157 424.254 163.052 424.611 162.922 424.959C162.696 425.805 162.619 426.684 162.694 427.557C162.771 428.431 163.002 429.284 163.376 430.076C163.56 430.392 163.725 430.719 163.87 431.055Z" fill="#E0E0E0"/>
<path d="M242.88 430.877C243.231 429.717 243.44 428.52 243.502 427.31C243.451 426.096 243.255 424.892 242.919 423.724C243.565 424.805 243.877 426.052 243.818 427.31C243.869 428.566 243.542 429.808 242.88 430.877Z" fill="#F5F5F5"/>
<path d="M241.25 430.867C241.151 430.867 241.517 429.296 241.507 427.359C241.497 425.423 241.141 423.882 241.24 423.862C242.024 426.131 242.024 428.598 241.24 430.867H241.25Z" fill="#F5F5F5"/>
<path d="M296.647 396.939L173.216 396.86C169.687 396.859 166.193 396.162 162.933 394.81C159.673 393.459 156.711 391.478 154.217 388.982C151.722 386.485 149.744 383.522 148.394 380.261C147.045 377 146.351 373.505 146.353 369.976L146.412 60.5446C146.413 57.013 147.11 53.5161 148.463 50.2538C149.815 46.9914 151.797 44.0274 154.296 41.5311C156.794 39.0347 159.759 37.0548 163.023 35.7045C166.286 34.3542 169.783 33.6599 173.315 33.6612L296.736 33.7402C303.863 33.7454 310.697 36.5798 315.736 41.6206C320.775 46.6614 323.607 53.4963 323.61 60.6237L323.54 370.055C323.54 373.587 322.845 377.083 321.493 380.346C320.141 383.608 318.16 386.572 315.663 389.068C313.166 391.565 310.201 393.545 306.938 394.895C303.675 396.246 300.178 396.94 296.647 396.939Z" fill="#263238"/>
<path d="M296.331 44.7762H272.402C271.621 44.7915 270.851 44.9612 270.135 45.2752C269.42 45.5893 268.774 46.0417 268.234 46.6064C267.694 47.1711 267.271 47.8369 266.989 48.5655C266.708 49.2942 266.573 50.0714 266.593 50.8524V55.1897C266.611 55.9707 266.475 56.7476 266.192 57.4757C265.909 58.2039 265.485 58.869 264.944 59.4327C264.403 59.9964 263.756 60.4477 263.041 60.7606C262.325 61.0736 261.554 61.2419 260.773 61.256H214.13C213.349 61.2406 212.578 61.071 211.863 60.7569C211.148 60.4428 210.502 59.9904 209.962 59.4258C209.422 58.8611 208.999 58.1953 208.717 57.4666C208.435 56.738 208.301 55.9608 208.32 55.1798V50.8326C208.345 50.0508 208.215 49.2718 207.938 48.5404C207.66 47.8091 207.241 47.1399 206.704 46.5714C206.166 46.0029 205.522 45.5463 204.807 45.228C204.093 44.9098 203.322 44.736 202.54 44.7169H194.123H173.187C170.712 44.7117 168.261 45.1943 165.973 46.1371C163.685 47.0799 161.605 48.4644 159.853 50.2115C158.1 51.9585 156.709 54.0339 155.759 56.3189C154.809 58.6039 154.319 61.0538 154.316 63.5284L154.257 365.56C154.249 368.03 154.729 370.478 155.669 372.762C156.609 375.046 157.99 377.123 159.734 378.872C161.478 380.622 163.55 382.01 165.831 382.957C168.113 383.904 170.559 384.391 173.029 384.391L296.213 384.46C298.686 384.462 301.135 383.976 303.42 383.031C305.705 382.086 307.782 380.7 309.531 378.952C311.281 377.204 312.669 375.129 313.617 372.845C314.564 370.561 315.053 368.112 315.054 365.639L315.172 63.6074C315.172 61.1337 314.685 58.6841 313.738 56.3987C312.791 54.1134 311.403 52.037 309.653 50.2882C307.904 48.5395 305.827 47.1526 303.541 46.2068C301.255 45.261 298.805 44.7749 296.331 44.7762Z" fill="white"/>
<path d="M316.525 92.7633C316.525 92.9016 280.157 93.0202 235.312 93.0202C190.467 93.0202 154.128 92.872 154.128 92.7633C154.128 92.6546 190.486 92.5064 235.361 92.5064C280.236 92.5064 316.525 92.6151 316.525 92.7633Z" fill="#263238"/>
<path d="M171.072 81.5693C170.953 81.5705 170.837 81.5284 170.746 81.4507L166.053 77.3308C165.998 77.2858 165.954 77.2284 165.924 77.1631C165.895 77.0979 165.882 77.0267 165.885 76.9553C165.885 76.8833 165.9 76.8121 165.931 76.7471C165.962 76.682 166.007 76.6249 166.063 76.5799L170.756 72.6279C170.857 72.546 170.987 72.5073 171.116 72.5203C171.246 72.5332 171.365 72.5967 171.448 72.697C171.49 72.7466 171.521 72.804 171.54 72.8659C171.559 72.9278 171.566 72.993 171.56 73.0575C171.553 73.122 171.534 73.1845 171.503 73.2414C171.472 73.2983 171.429 73.3484 171.379 73.3886L167.14 76.9257L171.388 80.6603C171.438 80.702 171.478 80.7532 171.508 80.8108C171.537 80.8684 171.554 80.9312 171.559 80.9957C171.564 81.0602 171.555 81.1249 171.534 81.1861C171.514 81.2472 171.481 81.3036 171.438 81.3519C171.398 81.4141 171.344 81.4661 171.281 81.5039C171.217 81.5416 171.146 81.564 171.072 81.5693Z" fill="#263238"/>
<path d="M273.478 76.6886C273.478 76.8368 258.194 76.9454 239.333 76.9454C220.472 76.9454 205.188 76.8368 205.188 76.6886C205.188 76.5404 220.472 76.4317 239.333 76.4317C258.194 76.4317 273.478 76.5502 273.478 76.6886Z" fill="#263238"/>
<path d="M293.258 76.6589C293.258 77.0106 293.154 77.3545 292.958 77.6469C292.763 77.9394 292.485 78.1673 292.16 78.3019C291.835 78.4365 291.478 78.4718 291.133 78.4031C290.788 78.3345 290.471 78.1651 290.222 77.9164C289.973 77.6677 289.804 77.3508 289.735 77.0059C289.667 76.6609 289.702 76.3033 289.837 75.9784C289.971 75.6534 290.199 75.3756 290.492 75.1802C290.784 74.9848 291.128 74.8805 291.48 74.8805C291.951 74.8805 292.404 75.0679 292.737 75.4014C293.071 75.7349 293.258 76.1873 293.258 76.6589Z" fill="#263238"/>
<path d="M298.376 76.6589C298.376 77.0111 298.272 77.3553 298.076 77.648C297.88 77.9406 297.602 78.1686 297.276 78.3029C296.95 78.4372 296.592 78.4718 296.247 78.4024C295.902 78.333 295.585 78.1626 295.337 77.9129C295.088 77.6632 294.92 77.3454 294.852 76.9998C294.785 76.6541 294.821 76.2963 294.958 75.9715C295.094 75.6467 295.323 75.3696 295.617 75.1754C295.911 74.9812 296.255 74.8786 296.608 74.8805C296.841 74.8805 297.071 74.9266 297.287 75.0161C297.502 75.1056 297.697 75.2367 297.862 75.402C298.026 75.5673 298.156 75.7634 298.244 75.9791C298.333 76.1948 298.377 76.4258 298.376 76.6589Z" fill="#263238"/>
<path d="M303.504 76.6589C303.504 77.0106 303.4 77.3545 303.204 77.6469C303.009 77.9394 302.731 78.1673 302.406 78.3019C302.081 78.4365 301.724 78.4718 301.379 78.4031C301.034 78.3345 300.717 78.1651 300.468 77.9164C300.219 77.6677 300.05 77.3508 299.981 77.0059C299.913 76.6609 299.948 76.3033 300.083 75.9784C300.217 75.6534 300.445 75.3756 300.738 75.1802C301.03 74.9848 301.374 74.8805 301.726 74.8805C302.197 74.8805 302.65 75.0679 302.983 75.4014C303.317 75.7349 303.504 76.1873 303.504 76.6589Z" fill="#263238"/>
<path d="M219.899 159.117C219.899 160.263 219.425 160.955 218.634 160.955C218.448 160.973 218.261 160.924 218.107 160.818C217.954 160.711 217.843 160.553 217.795 160.372C217.662 160.564 217.483 160.718 217.273 160.821C217.064 160.923 216.832 160.969 216.599 160.955C216.175 160.923 215.778 160.731 215.489 160.419C215.199 160.106 215.039 159.696 215.039 159.271C215.039 158.845 215.199 158.435 215.489 158.122C215.778 157.81 216.175 157.619 216.599 157.586C216.807 157.575 217.016 157.612 217.207 157.694C217.399 157.777 217.57 157.902 217.706 158.06V157.626H218.437V159.878C218.437 160.214 218.595 160.333 218.783 160.333C219.138 160.333 219.336 159.908 219.336 159.127C219.341 158.8 219.278 158.476 219.15 158.175C219.022 157.874 218.832 157.604 218.592 157.381C218.353 157.158 218.069 156.988 217.76 156.882C217.451 156.776 217.122 156.737 216.797 156.766C216.454 156.735 216.108 156.776 215.782 156.886C215.456 156.997 215.156 157.174 214.902 157.406C214.648 157.638 214.445 157.921 214.306 158.236C214.167 158.551 214.096 158.892 214.096 159.236C214.096 159.58 214.167 159.921 214.306 160.236C214.445 160.551 214.648 160.834 214.902 161.066C215.156 161.298 215.456 161.475 215.782 161.585C216.108 161.696 216.454 161.737 216.797 161.706C217.242 161.708 217.682 161.606 218.081 161.41L218.259 161.943C217.801 162.153 217.301 162.258 216.797 162.249C216.386 162.273 215.974 162.212 215.588 162.071C215.201 161.93 214.847 161.712 214.548 161.429C214.249 161.146 214.01 160.806 213.848 160.428C213.685 160.05 213.601 159.643 213.601 159.231C213.601 158.819 213.685 158.412 213.848 158.034C214.01 157.656 214.249 157.316 214.548 157.033C214.847 156.75 215.201 156.532 215.588 156.391C215.974 156.25 216.386 156.189 216.797 156.213C217.195 156.183 217.595 156.235 217.972 156.368C218.349 156.501 218.694 156.71 218.986 156.983C219.278 157.257 219.509 157.587 219.667 157.955C219.824 158.322 219.903 158.718 219.899 159.117ZM217.715 159.266C217.704 159.073 217.636 158.888 217.521 158.734C217.406 158.579 217.248 158.462 217.066 158.396C216.885 158.33 216.689 158.319 216.501 158.364C216.313 158.408 216.143 158.507 216.011 158.647C215.878 158.787 215.79 158.963 215.756 159.153C215.723 159.343 215.745 159.538 215.822 159.715C215.898 159.893 216.024 160.043 216.185 160.15C216.346 160.256 216.535 160.313 216.727 160.313C216.862 160.313 216.996 160.286 217.12 160.232C217.244 160.179 217.355 160.101 217.448 160.003C217.54 159.905 217.612 159.789 217.658 159.662C217.704 159.535 217.724 159.4 217.715 159.266Z" fill="#263238"/>
<path d="M257.236 160.916C257.236 161.054 250.083 161.172 241.27 161.172C232.457 161.172 225.313 161.054 225.313 160.916C225.313 160.777 232.457 160.649 241.27 160.649C250.083 160.649 257.236 160.767 257.236 160.916Z" fill="#263238"/>
<path d="M194.113 206.067C192.657 206.41 191.142 206.41 189.687 206.067C191.142 205.725 192.657 205.725 194.113 206.067Z" fill="#263238"/>
<path d="M204.516 216.777C204.516 216.915 199.181 217.034 192.591 217.034C186.001 217.034 180.676 216.915 180.676 216.777C180.676 216.639 186.011 216.52 192.591 216.52C199.171 216.52 204.516 216.639 204.516 216.777Z" fill="#263238"/>
<path d="M242.06 206.067C239.811 206.327 237.545 206.413 235.283 206.324C233.02 206.413 230.754 206.327 228.505 206.067C230.755 205.813 233.02 205.727 235.283 205.81C237.545 205.727 239.811 205.813 242.06 206.067Z" fill="#263238"/>
<path d="M246.072 216.204C246.072 216.342 240.608 216.461 233.87 216.461C227.132 216.461 221.658 216.342 221.658 216.204C221.658 216.066 227.122 215.947 233.87 215.947C240.618 215.947 246.072 216.066 246.072 216.204Z" fill="#263238"/>
<path d="M286.323 206.215C283.284 206.47 280.233 206.556 277.184 206.472C274.135 206.556 271.084 206.47 268.045 206.215C271.084 205.955 274.135 205.869 277.184 205.959C280.233 205.869 283.284 205.955 286.323 206.215Z" fill="#263238"/>
<path d="M289.741 216.629C289.741 216.777 284.475 216.886 277.974 216.886C271.473 216.886 266.197 216.777 266.197 216.629C266.197 216.481 271.463 216.372 277.974 216.372C284.485 216.372 289.741 216.491 289.741 216.629Z" fill="#263238"/>
<path d="M255.605 226.766H188.639C187.247 226.766 186.119 227.894 186.119 229.285V244.945C186.119 246.336 187.247 247.464 188.639 247.464H255.605C256.997 247.464 258.125 246.336 258.125 244.945V229.285C258.125 227.894 256.997 226.766 255.605 226.766Z" fill="#FF725E"/>
<path d="M244.51 237.466C244.51 237.604 235.243 237.723 223.811 237.723C212.38 237.723 203.063 237.604 203.063 237.466C203.063 237.327 212.331 237.209 223.811 237.209C235.292 237.209 244.51 237.318 244.51 237.466Z" fill="white"/>
<path d="M282.312 226.38H266.425C265.131 226.38 264.083 227.429 264.083 228.722V245.251C264.083 246.544 265.131 247.593 266.425 247.593H282.312C283.605 247.593 284.653 246.544 284.653 245.251V228.722C284.653 227.429 283.605 226.38 282.312 226.38Z" fill="#EBEBEB"/>
<path d="M272.145 235.905H276.581L274.555 239.017L272.145 235.905Z" fill="#263238"/>
<path d="M258.125 262.857C258.125 263.006 246.674 263.114 232.556 263.114C218.437 263.114 206.986 263.006 206.986 262.857C206.986 262.709 218.437 262.601 232.556 262.601C246.674 262.601 258.125 262.719 258.125 262.857Z" fill="#E0E0E0"/>
<path d="M273.004 272.49C273.004 272.629 256.208 272.747 235.46 272.747C214.712 272.747 197.916 272.629 197.916 272.49C197.916 272.352 214.712 272.234 235.46 272.234C256.208 272.234 273.004 272.352 273.004 272.49Z" fill="#E0E0E0"/>
<path d="M316.16 289.188C316.16 289.336 280.148 289.454 235.717 289.454C191.287 289.454 155.274 289.336 155.274 289.188C155.274 289.039 191.287 288.931 235.717 288.931C280.148 288.931 316.16 289.049 316.16 289.188Z" fill="#263238"/>
<path d="M237.318 307.93C237.064 304.901 236.978 301.859 237.061 298.821C236.978 295.785 237.063 292.747 237.318 289.721C237.578 292.747 237.664 295.785 237.575 298.821C237.664 301.859 237.578 304.901 237.318 307.93Z" fill="#263238"/>
<path d="M227.329 174.402L222.705 185.013H220.729L216.096 174.402H218.23L221.757 182.582L225.324 174.402H227.329Z" fill="#FF725E"/>
<path d="M235.243 181.575H228.89C229.007 182.17 229.34 182.701 229.825 183.066C230.311 183.431 230.913 183.604 231.518 183.551C231.925 183.567 232.331 183.497 232.709 183.346C233.087 183.194 233.429 182.964 233.711 182.671L234.699 183.837C234.287 184.283 233.78 184.632 233.216 184.859C232.653 185.087 232.046 185.186 231.439 185.151C228.732 185.151 226.973 183.412 226.973 181.002C226.953 180.445 227.049 179.891 227.255 179.374C227.461 178.857 227.772 178.388 228.169 177.998C228.566 177.608 229.04 177.304 229.56 177.107C230.08 176.91 230.636 176.823 231.192 176.852C231.742 176.832 232.291 176.927 232.802 177.131C233.313 177.335 233.776 177.644 234.161 178.037C234.547 178.431 234.845 178.9 235.038 179.416C235.231 179.931 235.314 180.482 235.282 181.031C235.272 181.16 235.253 181.387 235.243 181.575ZM228.88 180.31H233.464C233.409 179.751 233.142 179.235 232.717 178.867C232.293 178.499 231.743 178.309 231.182 178.334C230.62 178.313 230.071 178.505 229.644 178.871C229.217 179.237 228.944 179.751 228.88 180.31Z" fill="#FF725E"/>
<path d="M241.774 176.852V178.65C241.63 178.621 241.485 178.604 241.339 178.601C241.011 178.575 240.681 178.624 240.374 178.743C240.067 178.862 239.791 179.048 239.565 179.288C239.339 179.528 239.17 179.815 239.071 180.129C238.971 180.442 238.942 180.774 238.987 181.1V185.052H237.12V176.961H238.928V178.136C239.253 177.697 239.685 177.347 240.183 177.123C240.681 176.898 241.229 176.804 241.774 176.852Z" fill="#FF725E"/>
<path d="M243.127 174.451C243.128 174.295 243.161 174.142 243.223 173.999C243.286 173.856 243.377 173.728 243.49 173.622C243.604 173.515 243.738 173.433 243.885 173.381C244.031 173.328 244.187 173.306 244.342 173.315C244.494 173.303 244.646 173.322 244.79 173.37C244.934 173.419 245.066 173.497 245.179 173.599C245.292 173.7 245.383 173.824 245.446 173.962C245.509 174.1 245.544 174.25 245.548 174.402C245.52 174.704 245.381 174.985 245.157 175.189C244.933 175.394 244.641 175.508 244.337 175.508C244.034 175.508 243.742 175.394 243.518 175.189C243.294 174.985 243.154 174.704 243.127 174.402V174.451ZM243.384 176.921H245.281V185.013H243.384V176.921Z" fill="#FF725E"/>
<path d="M250.952 173.661C251.557 173.634 252.155 173.789 252.671 174.105L252.138 175.528C251.83 175.313 251.465 175.196 251.09 175.192C250.3 175.192 249.895 175.627 249.895 176.496V176.98H252.128V178.492H249.964V185.013H247.988V178.492H246.664V176.98H247.988V176.467C247.956 176.076 248.013 175.684 248.153 175.318C248.293 174.952 248.513 174.623 248.798 174.353C249.082 174.084 249.423 173.882 249.796 173.762C250.169 173.642 250.564 173.608 250.952 173.661ZM254.351 174.451C254.352 174.295 254.385 174.142 254.447 173.999C254.509 173.856 254.6 173.728 254.714 173.622C254.828 173.515 254.962 173.433 255.108 173.381C255.255 173.328 255.411 173.306 255.566 173.315C255.717 173.303 255.87 173.322 256.014 173.37C256.158 173.419 256.29 173.497 256.403 173.599C256.516 173.7 256.607 173.824 256.67 173.962C256.733 174.1 256.768 174.25 256.771 174.402C256.744 174.704 256.605 174.985 256.381 175.189C256.157 175.394 255.864 175.508 255.561 175.508C255.258 175.508 254.965 175.394 254.741 175.189C254.517 174.985 254.378 174.704 254.351 174.402V174.451ZM254.608 176.921H256.505V185.013H254.608V176.921Z" fill="#FF725E"/>
<path d="M266.523 181.575H260.18C260.295 182.169 260.626 182.7 261.11 183.065C261.593 183.43 262.195 183.603 262.798 183.551C263.206 183.564 263.612 183.492 263.992 183.341C264.371 183.19 264.715 182.962 265.001 182.671L265.989 183.837C265.577 184.284 265.071 184.634 264.507 184.861C263.943 185.089 263.336 185.188 262.729 185.151C260.022 185.151 258.263 183.412 258.263 181.002C258.248 180.451 258.346 179.903 258.551 179.392C258.756 178.88 259.065 178.417 259.456 178.029C259.848 177.642 260.316 177.34 260.829 177.141C261.343 176.941 261.892 176.85 262.443 176.872C262.993 176.852 263.541 176.947 264.052 177.151C264.564 177.355 265.027 177.663 265.412 178.057C265.797 178.45 266.096 178.92 266.289 179.436C266.482 179.951 266.565 180.501 266.533 181.051C266.553 181.16 266.543 181.387 266.523 181.575ZM260.16 180.31H264.784C264.727 179.75 264.457 179.234 264.031 178.866C263.605 178.499 263.054 178.308 262.492 178.334C261.925 178.308 261.37 178.497 260.937 178.863C260.505 179.23 260.227 179.747 260.16 180.31Z" fill="#FF725E"/>
<path d="M276.304 173.769V185.013H274.486V183.966C274.155 184.346 273.742 184.646 273.279 184.845C272.815 185.043 272.312 185.135 271.809 185.112C270.711 185.112 269.658 184.676 268.881 183.899C268.105 183.123 267.669 182.07 267.669 180.972C267.669 179.874 268.105 178.821 268.881 178.045C269.658 177.268 270.711 176.832 271.809 176.832C272.295 176.81 272.78 176.897 273.23 177.084C273.679 177.272 274.081 177.557 274.407 177.919V173.769H276.304ZM274.437 180.962C274.414 180.491 274.253 180.037 273.974 179.657C273.695 179.276 273.311 178.986 272.869 178.821C272.427 178.657 271.947 178.626 271.487 178.732C271.028 178.838 270.609 179.076 270.284 179.417C269.958 179.759 269.74 180.188 269.657 180.652C269.573 181.116 269.627 181.595 269.812 182.028C269.998 182.462 270.306 182.832 270.7 183.092C271.093 183.352 271.554 183.491 272.026 183.491C272.354 183.498 272.681 183.435 272.984 183.309C273.287 183.182 273.561 182.994 273.787 182.757C274.014 182.519 274.189 182.236 274.301 181.928C274.412 181.619 274.459 181.29 274.437 180.962Z" fill="#FF725E"/>
<path d="M201.167 187.671C205.755 187.671 209.476 183.95 209.476 179.362C209.476 174.773 205.755 171.052 201.167 171.052C196.578 171.052 192.857 174.773 192.857 179.362C192.857 183.95 196.578 187.671 201.167 187.671Z" fill="#FF725E"/>
<path d="M197.412 179.52L198.479 178.453L200.544 180.28L204.585 176.388L205.573 177.455L200.386 182.335L197.412 179.52Z" fill="white"/>
<path d="M236.883 384.421H171.675C167.011 384.405 162.543 382.539 159.253 379.233C155.963 375.926 154.12 371.449 154.128 366.785V307.93H236.932L236.883 384.421Z" fill="#EBEBEB"/>
<path d="M297.022 384.579L236.132 384.421V307.93H315.35V366.291C315.248 371.116 313.284 375.715 309.867 379.124C306.451 382.533 301.848 384.488 297.022 384.579Z" fill="#455A64"/>
<path d="M316.16 307.93C316.16 308.068 280.148 308.187 235.727 308.187C191.307 308.187 155.284 308.068 155.284 307.93C155.284 307.792 191.287 307.673 235.727 307.673C280.167 307.673 316.16 307.792 316.16 307.93Z" fill="#263238"/>
<path d="M234.522 352.716C234.522 352.716 234.433 352.716 234.295 352.578L233.672 352.123L231.321 350.365L222.725 343.804C220.917 342.431 218.922 340.84 216.797 339.289C216.23 338.96 215.582 338.798 214.926 338.82C214.271 338.843 213.635 339.05 213.092 339.418C212.545 339.872 212.03 340.363 211.551 340.89L209.98 342.48L196.148 356.451L195.298 357.31L195.14 357.468L194.963 357.34L186.98 351.412L183.186 348.576C182.668 348.085 182.015 347.76 181.311 347.642C180.607 347.524 179.883 347.619 179.234 347.914C178.624 348.267 178.071 348.71 177.594 349.228L176.032 350.681L173.068 353.447L167.733 358.387L159.997 365.52L157.873 367.437L157.32 367.931C157.195 368.043 157.125 368.093 157.112 368.079C157.16 368.01 157.216 367.947 157.28 367.892L157.804 367.368L159.859 365.392L167.486 358.14L172.782 353.141L175.746 350.365L177.297 348.902L178.088 348.161C178.383 347.894 178.716 347.671 179.076 347.499C179.796 347.151 180.607 347.033 181.397 347.163C181.797 347.225 182.184 347.352 182.543 347.539C182.894 347.726 183.225 347.948 183.531 348.201L187.335 351.017L195.328 356.945H194.992L195.842 356.075L209.674 342.135L211.255 340.554C211.753 340.007 212.291 339.498 212.865 339.032C213.481 338.624 214.199 338.396 214.938 338.375C215.677 338.354 216.406 338.541 217.044 338.914C219.238 340.544 221.154 342.105 222.972 343.508L231.469 350.197L233.771 352.034L234.354 352.528C234.418 352.583 234.474 352.647 234.522 352.716Z" fill="#263238"/>
<path d="M202.205 327.028C202.145 327.028 202.205 326.396 201.878 325.299C201.453 323.765 200.528 322.416 199.25 321.466C198.377 320.813 197.361 320.376 196.286 320.191C195.065 319.974 193.807 320.083 192.641 320.507C191.349 320.979 190.228 321.825 189.42 322.938C188.547 324.125 188.077 325.56 188.077 327.033C188.077 328.506 188.547 329.941 189.42 331.128C190.195 332.18 191.249 332.995 192.462 333.48C193.675 333.965 195 334.102 196.286 333.875C197.363 333.689 198.379 333.249 199.25 332.59C200.528 331.64 201.453 330.291 201.878 328.757C202.175 327.67 202.145 327.028 202.205 327.028C202.22 327.182 202.22 327.338 202.205 327.492C202.206 327.935 202.156 328.375 202.056 328.806C201.689 330.424 200.77 331.863 199.458 332.877C198.553 333.586 197.494 334.07 196.365 334.29C194.995 334.555 193.577 334.427 192.276 333.92C190.975 333.413 189.844 332.548 189.015 331.425C188.072 330.154 187.563 328.615 187.563 327.033C187.563 325.451 188.072 323.912 189.015 322.641C189.884 321.456 191.089 320.558 192.473 320.063C193.721 319.62 195.065 319.518 196.365 319.766C197.492 319.99 198.551 320.474 199.458 321.179C200.768 322.195 201.687 323.633 202.056 325.25C202.156 325.684 202.206 326.128 202.205 326.574C202.219 326.725 202.219 326.877 202.205 327.028Z" fill="#263238"/>
<path d="M312.9 350.266C312.9 350.266 312.821 350.266 312.683 350.127L312.09 349.683L309.817 347.914L301.528 341.344C299.789 339.971 297.873 338.38 295.827 336.829C295.28 336.5 294.648 336.342 294.01 336.376C293.373 336.409 292.76 336.632 292.251 337.017C291.731 337.477 291.239 337.969 290.779 338.489L289.277 340.079L276.048 354L275.218 354.86L275.06 355.028L274.872 354.89L267.175 348.962L263.52 346.126C263.028 345.632 262.391 345.306 261.703 345.196C261.014 345.086 260.308 345.197 259.686 345.513C259.107 345.884 258.579 346.329 258.115 346.837L256.624 348.29L253.768 351.046L248.641 355.986L241.221 363.1L239.185 365.017L238.642 365.501C238.523 365.609 238.454 365.669 238.444 365.659C238.492 365.589 238.549 365.526 238.612 365.471C238.741 365.323 238.909 365.155 239.106 364.947L241.082 362.971L248.394 355.739L253.472 350.75C254.391 349.861 255.329 348.932 256.307 347.974L257.789 346.521L258.55 345.78C258.821 345.515 259.126 345.289 259.459 345.108C260.156 344.74 260.952 344.605 261.732 344.723C262.125 344.78 262.506 344.904 262.858 345.089C263.207 345.278 263.538 345.5 263.846 345.751L267.501 348.576L275.208 354.504H274.862L275.692 353.635L288.951 339.744L290.463 338.163C290.944 337.624 291.459 337.116 292.004 336.641C292.588 336.211 293.286 335.963 294.011 335.93C294.735 335.896 295.453 336.079 296.074 336.454C298.199 338.084 300.026 339.645 301.785 341.048L309.966 347.746L312.169 349.594L312.732 350.078L312.9 350.266Z" fill="#263238"/>
<path d="M279.308 324.825C279.259 324.825 279.308 324.192 278.992 323.106C278.571 321.569 277.646 320.219 276.364 319.272C275.625 318.72 274.784 318.32 273.89 318.095C272.996 317.87 272.066 317.824 271.154 317.96C270.242 318.095 269.366 318.411 268.576 318.887C267.786 319.363 267.099 319.991 266.553 320.734C265.681 321.922 265.21 323.356 265.21 324.83C265.21 326.303 265.681 327.738 266.553 328.925C267.36 330.036 268.482 330.879 269.774 331.346C270.867 331.749 272.044 331.87 273.196 331.698C274.348 331.525 275.438 331.064 276.364 330.358C277.644 329.409 278.569 328.06 278.992 326.524C279.127 325.954 279.233 325.377 279.308 324.795C279.334 324.949 279.334 325.106 279.308 325.259C279.309 325.702 279.259 326.143 279.16 326.574C278.82 328.193 277.93 329.646 276.641 330.684C275.733 331.386 274.674 331.866 273.548 332.087C272.248 332.344 270.902 332.242 269.655 331.79C268.272 331.298 267.068 330.404 266.197 329.221C265.255 327.951 264.746 326.411 264.746 324.83C264.746 323.248 265.255 321.708 266.197 320.438C267.027 319.315 268.157 318.45 269.458 317.942C270.759 317.435 272.177 317.307 273.548 317.573C274.674 317.793 275.733 318.274 276.641 318.976C277.954 319.993 278.872 321.436 279.239 323.056C279.338 323.487 279.388 323.928 279.387 324.37C279.388 324.525 279.361 324.679 279.308 324.825Z" fill="#263238"/>
<path d="M237.347 152.636C249.984 152.636 260.229 142.391 260.229 129.754C260.229 117.117 249.984 106.872 237.347 106.872C224.709 106.872 214.465 117.117 214.465 129.754C214.465 142.391 224.709 152.636 237.347 152.636Z" fill="#F5F5F5"/>
<path d="M252.138 147.113C251.748 143.484 250.007 140.133 247.262 137.727C244.517 135.32 240.968 134.033 237.318 134.121C229.197 134.121 223.634 140.266 222.498 147.163C222.498 147.163 227.517 152.715 237.318 152.636C247.119 152.557 252.138 147.113 252.138 147.113Z" fill="#E0E0E0"/>
<path d="M246.658 127.518C247.451 122.613 244.117 117.994 239.212 117.201C234.307 116.408 229.688 119.742 228.895 124.647C228.103 129.552 231.436 134.171 236.341 134.964C241.246 135.757 245.865 132.423 246.658 127.518Z" fill="#E0E0E0"/>
<path d="M252.029 146.333C251.749 144.869 251.28 143.448 250.636 142.104C249.804 140.601 248.706 139.262 247.395 138.152C245.674 136.699 243.692 135.586 241.556 134.872L241.082 134.724L241.516 134.496C243.025 133.677 244.263 132.438 245.083 130.93C245.797 129.601 246.153 128.109 246.118 126.601C246.083 125.093 245.658 123.62 244.883 122.325C244.109 121.031 243.012 119.959 241.7 119.215C240.388 118.471 238.905 118.08 237.396 118.08C235.888 118.08 234.405 118.471 233.093 119.215C231.781 119.959 230.684 121.031 229.91 122.325C229.135 123.62 228.71 125.093 228.675 126.601C228.64 128.109 228.996 129.601 229.71 130.93C230.125 131.7 230.651 132.406 231.271 133.024C231.872 133.603 232.534 134.113 233.247 134.546L233.642 134.793L233.188 134.921C231 135.497 228.991 136.607 227.339 138.152C226.085 139.34 225.048 140.737 224.276 142.282C223.778 143.272 223.374 144.308 223.07 145.374C222.962 145.74 222.893 146.026 222.843 146.214C222.83 146.313 222.804 146.409 222.764 146.501C222.747 146.403 222.747 146.302 222.764 146.204C222.764 146.007 222.843 145.71 222.932 145.345C223.191 144.254 223.565 143.194 224.049 142.183C224.798 140.586 225.829 139.137 227.092 137.905C228.756 136.301 230.793 135.136 233.02 134.516L232.96 134.892C232.214 134.451 231.519 133.931 230.886 133.34C230.228 132.694 229.669 131.955 229.226 131.147C228.248 129.324 227.912 127.226 228.27 125.188C228.629 123.151 229.661 121.294 231.202 119.914C232.889 118.393 235.08 117.552 237.352 117.552C239.624 117.552 241.815 118.393 243.502 119.914C244.604 120.904 245.451 122.146 245.969 123.534C246.487 124.922 246.662 126.415 246.479 127.885C246.295 129.356 245.759 130.76 244.915 131.978C244.072 133.196 242.947 134.193 241.635 134.882V134.496C243.815 135.242 245.829 136.407 247.563 137.925C248.89 139.082 249.986 140.48 250.794 142.045C251.076 142.624 251.311 143.225 251.495 143.843C251.649 144.29 251.764 144.75 251.841 145.216C251.89 145.562 251.93 145.849 251.96 146.086C251.989 146.323 252.048 146.333 252.029 146.333Z" fill="#263238"/>
<path d="M260.23 129.754C260.199 129.631 260.182 129.505 260.181 129.379C260.181 129.112 260.181 128.756 260.101 128.302L260.052 127.501C260.052 127.205 259.953 126.889 259.894 126.513C259.791 125.715 259.63 124.926 259.41 124.152C258.873 122.02 258.017 119.981 256.871 118.106C254.157 113.576 249.951 110.134 244.975 108.369C239.999 106.603 234.563 106.626 229.602 108.433C228.585 108.799 227.595 109.235 226.638 109.737C225.671 110.267 224.743 110.864 223.862 111.525C222.958 112.196 222.1 112.925 221.293 113.709C220.495 114.535 219.752 115.413 219.07 116.337C217.666 118.229 216.575 120.334 215.839 122.571C214.285 127.21 214.285 132.229 215.839 136.868C216.575 139.108 217.666 141.217 219.07 143.112C219.754 144.034 220.497 144.912 221.293 145.74C222.1 146.524 222.958 147.253 223.862 147.923C224.746 148.581 225.673 149.179 226.638 149.712C231.184 152.108 236.399 152.918 241.458 152.014C244.634 151.429 247.651 150.179 250.309 148.345C252.967 146.511 255.207 144.135 256.881 141.373C258.029 139.494 258.885 137.452 259.42 135.316C259.639 134.546 259.801 133.76 259.904 132.965C259.963 132.619 260.022 132.303 260.062 131.977L260.111 131.177C260.111 130.722 260.171 130.367 260.19 130.09C260.193 129.967 260.209 129.844 260.24 129.724C260.253 129.849 260.253 129.975 260.24 130.1C260.24 130.367 260.24 130.732 260.24 131.187C260.24 131.434 260.24 131.7 260.24 131.987C260.24 132.273 260.151 132.609 260.111 132.975C260.023 133.779 259.874 134.575 259.667 135.356C259.154 137.522 258.314 139.598 257.177 141.511C255.512 144.33 253.267 146.762 250.591 148.648C247.916 150.533 244.87 151.829 241.656 152.448C237.589 153.209 233.393 152.868 229.503 151.46C228.467 151.087 227.457 150.645 226.48 150.136C225.49 149.597 224.54 148.99 223.634 148.319C222.709 147.635 221.831 146.889 221.006 146.086C220.189 145.246 219.43 144.351 218.734 143.408C217.291 141.473 216.17 139.318 215.414 137.026C214.657 134.665 214.254 132.204 214.219 129.724C214.251 127.241 214.657 124.776 215.424 122.413C216.174 120.124 217.292 117.971 218.734 116.041C219.43 115.094 220.189 114.196 221.006 113.353C221.835 112.558 222.713 111.816 223.634 111.13C224.54 110.459 225.49 109.851 226.48 109.312C227.457 108.804 228.467 108.362 229.503 107.988C233.39 106.581 237.583 106.24 241.646 107C244.862 107.618 247.91 108.913 250.588 110.799C253.265 112.684 255.511 115.118 257.177 117.938C258.314 119.848 259.154 121.92 259.667 124.083C259.875 124.868 260.023 125.667 260.111 126.474C260.111 126.82 260.21 127.146 260.24 127.462C260.269 127.778 260.24 128.025 260.24 128.272C260.24 128.727 260.24 129.092 260.24 129.359C260.251 129.491 260.248 129.623 260.23 129.754Z" fill="#263238"/>
<path d="M142.707 233.692C130.693 239.916 121.475 250.636 114.856 262.433C108.236 274.229 103.988 287.182 99.7294 300.036L96.0244 366.331C110.005 342.549 121.228 314.589 124.261 287.162L114.954 286.332C121.199 285.344 126.435 280.859 129.775 275.464C133.114 270.07 134.823 263.915 136.493 257.838L125.141 259.518C134.096 253.485 140.386 244.237 142.707 233.692Z" fill="#455A64"/>
<path d="M142.707 233.692C130.693 239.916 121.475 250.636 114.856 262.433C108.236 274.229 103.988 287.182 99.7294 300.036L96.0244 366.331C110.005 342.549 121.228 314.589 124.261 287.162L114.954 286.332C121.199 285.344 126.435 280.859 129.775 275.464C133.114 270.07 134.823 263.915 136.493 257.838L125.141 259.518C134.096 253.485 140.386 244.237 142.707 233.692Z" fill="#455A64"/>
<path d="M93.949 381.872C93.949 381.872 63.6075 345.543 63.9533 310.864H76.2144C76.2144 310.864 62.8962 302.111 63.9533 297.21C65.0105 292.31 65.3563 273.735 65.3563 273.735L76.5701 276.541C76.5701 276.541 68.1622 272.342 67.105 265.673C66.0479 259.004 69.5553 228.228 69.5553 228.228C69.5553 228.228 83.2193 242.584 87.4282 257.295C91.6371 272.006 102.663 289.168 99.4225 334.003C96.1819 378.839 93.949 381.872 93.949 381.872Z" fill="#455A64"/>
<path d="M109.342 385.32C109.342 385.32 142.223 363.416 149.524 335.456L139.644 332.778C139.644 332.778 152.271 328.648 152.488 324.479C152.705 320.31 156.44 305.302 156.44 305.302L146.817 305.104C146.817 305.104 154.494 303.563 156.796 298.445C159.098 293.327 163.109 267.748 163.109 267.748C163.109 267.748 148.981 276.314 142.361 287.221C135.741 298.129 123.135 309.511 115.932 346.264C108.729 383.018 109.342 385.32 109.342 385.32Z" fill="#455A64"/>
<path d="M77.8545 259.844C77.8545 259.844 77.8545 259.972 77.9533 260.219C78.0521 260.466 78.1114 260.872 78.22 261.336C78.4473 262.324 78.7634 263.806 79.208 265.653C79.6526 267.501 80.117 269.823 80.6407 272.49C81.1643 275.158 81.8065 278.201 82.419 281.57C83.7232 288.308 85.0867 296.39 86.4995 305.282C87.9123 314.174 89.2362 324.123 90.4515 334.517C91.6667 344.911 92.5658 354.85 93.2772 363.89C93.9885 372.93 94.4529 381.091 94.7196 387.938C94.8975 391.367 94.9765 394.469 95.0654 397.196C95.1544 399.923 95.2038 402.264 95.2235 404.181C95.2433 406.098 95.2235 407.56 95.2729 408.597V409.743C95.2729 410 95.2729 410.139 95.2729 410.139C95.2564 410.007 95.2564 409.875 95.2729 409.743V408.597C95.2729 407.56 95.184 406.078 95.1247 404.181C95.0654 402.284 94.9963 399.923 94.8777 397.206C94.7592 394.489 94.6505 391.386 94.4628 387.958C94.1367 381.111 93.5933 372.97 92.9017 363.93C92.2101 354.89 91.2221 344.97 90.0365 334.576C88.8509 324.183 87.4677 314.312 86.0845 305.351C84.7013 296.39 83.3675 288.338 82.1325 281.639C81.5397 278.26 80.9371 275.227 80.4332 272.55C79.9293 269.872 79.4452 267.61 79.0796 265.693C78.714 263.776 78.4176 262.383 78.22 261.366C78.1311 260.881 78.0521 260.516 78.0027 260.229C77.9413 260.106 77.8917 259.977 77.8545 259.844Z" fill="#263238"/>
<path d="M89.7404 404.092C89.7404 404.092 61.9678 372.604 53.3524 353.556L59.8633 350.74C55.1407 351.521 50.3094 349.495 46.6439 346.413C42.9784 343.33 40.3009 339.279 37.663 335.288L46.2388 333.835C38.3463 331.595 31.6222 326.396 27.4668 319.322C37.5839 320.991 46.7427 326.544 54.2811 333.499C60.3968 339.121 65.5641 345.652 70.5337 352.331C72.9648 355.579 75.0789 359.053 76.847 362.705C81.5499 372.377 89.7602 392.542 89.7404 404.092Z" fill="#455A64"/>
<path d="M149.959 286.095C149.931 286.206 149.887 286.312 149.831 286.411L149.406 287.33C149.001 288.16 148.418 289.306 147.706 290.818C146.995 292.329 146.056 294.187 145.029 296.351C144.001 298.514 142.806 300.965 141.551 303.701C138.982 309.165 136.038 315.706 132.867 323.017C129.695 330.328 126.385 338.449 123.056 347.025C119.726 355.601 116.772 363.821 114.164 371.379C111.555 378.938 109.362 385.755 107.584 391.515C106.675 394.39 105.914 397.008 105.212 399.3C104.511 401.592 103.938 403.568 103.474 405.228C103.009 406.888 102.644 408.074 102.377 408.953L102.08 409.941C102.052 410.053 102.013 410.163 101.962 410.267C101.975 410.15 101.998 410.034 102.031 409.921C102.09 409.674 102.179 409.358 102.278 408.933L103.266 405.179C103.701 403.558 104.254 401.563 104.916 399.251C105.578 396.939 106.329 394.311 107.218 391.446C108.947 385.666 111.17 378.829 113.689 371.271C116.209 363.712 119.242 355.463 122.581 346.877C125.921 338.291 129.27 330.19 132.461 322.869C135.653 315.547 138.646 309.037 141.245 303.593C142.529 300.856 143.744 298.415 144.802 296.262C145.859 294.108 146.778 292.31 147.558 290.768L149.337 287.32L149.811 286.431C149.849 286.314 149.898 286.202 149.959 286.095Z" fill="#263238"/>
<path d="M92.1017 417.618C92.0369 417.429 91.9938 417.233 91.9733 417.035L91.7065 415.365C91.5978 414.634 91.4694 413.745 91.2718 412.717C91.0742 411.69 90.9161 410.514 90.6296 409.23C90.1356 406.651 89.4242 403.608 88.5153 400.249C87.6063 396.889 86.4306 393.273 85.0177 389.519C83.6049 385.765 82.0537 382.277 80.552 379.145C79.0502 376.013 77.588 373.276 76.2048 371.014C75.5626 369.858 74.9204 368.86 74.377 367.971C73.8336 367.082 73.389 366.311 72.9543 365.698L72.0453 364.266C71.9346 364.103 71.8387 363.931 71.7588 363.752C71.904 363.886 72.0303 364.039 72.1342 364.206L73.1222 365.59C73.5471 366.182 74.0608 366.933 74.624 367.813C75.1871 368.692 75.8491 369.68 76.5111 370.826C77.8943 373.069 79.4059 375.825 80.9768 378.938C82.5477 382.05 84.0693 385.577 85.5019 389.331C86.9345 393.086 88.0608 396.761 88.9697 400.13C89.8787 403.499 90.5407 406.572 90.9457 409.16C91.2026 410.455 91.3508 411.64 91.5089 412.678C91.667 413.715 91.7855 414.604 91.8547 415.335C91.9239 416.067 91.9831 416.58 92.0227 417.025C92.0754 417.218 92.1019 417.417 92.1017 417.618Z" fill="#263238"/>
<path d="M128.747 410.208H67.9648V422.607H128.747V410.208Z" fill="#FF725E"/>
<path d="M73.7549 422.607L80.335 464.311H117.059L123.185 422.607H73.7549Z" fill="#FF725E"/>
<path d="M125.022 422.607C125.022 422.745 113.521 422.864 99.3335 422.864C85.1458 422.864 73.6455 422.745 73.6455 422.607C73.6455 422.469 85.1458 422.34 99.3335 422.34C113.521 422.34 125.022 422.459 125.022 422.607Z" fill="#263238"/>
<g opacity="0.3">
<path opacity="0.3" d="M142.707 233.692C130.693 239.916 121.475 250.636 114.856 262.433C108.236 274.229 103.988 287.182 99.7294 300.036L96.0244 366.331C110.005 342.549 121.228 314.589 124.261 287.162L114.954 286.332C121.199 285.344 126.435 280.859 129.775 275.464C133.114 270.07 134.823 263.915 136.493 257.838L125.141 259.518C134.096 253.485 140.386 244.237 142.707 233.692Z" fill="black"/>
</g>
<path d="M425.7 287.202C425.7 287.202 435.777 303.929 437.279 319.855C438.781 335.782 428.14 464.479 428.14 464.479H302.763C302.763 464.479 336.355 305.559 347.341 295.363L348.092 284.791L425.7 287.202Z" fill="#263238"/>
<path d="M431.054 299.957C431.082 300.705 431.065 301.454 431.005 302.2C430.86 304.344 430.459 306.464 429.809 308.513C428.794 311.773 427.208 314.827 425.126 317.533C423.829 319.227 422.337 320.763 420.68 322.108C418.811 323.578 416.829 324.9 414.752 326.06C412.589 327.324 410.277 328.55 407.965 330.012C405.542 331.443 403.337 333.213 401.414 335.268C399.451 337.549 397.935 340.18 396.949 343.024C395.962 346.071 395.277 349.208 394.903 352.39C394.459 355.65 394.172 359.019 393.728 362.458C393.328 365.981 392.532 369.447 391.356 372.792C390.081 376.27 387.999 379.396 385.28 381.911C382.435 384.417 379.215 386.46 375.736 387.968C368.82 391.139 361.548 393.165 355.413 396.86C352.404 398.641 349.77 400.99 347.657 403.776C345.726 406.525 344.242 409.563 343.261 412.777C341.285 419.04 340.395 425.294 338.755 430.956C338.538 431.657 338.321 432.359 338.113 433.05C337.906 433.742 337.629 434.404 337.392 435.076C336.885 436.379 336.311 437.655 335.673 438.899C335.09 440.134 334.349 441.261 333.697 442.387C333.331 442.93 332.956 443.464 332.59 443.987L332.047 444.768L331.454 445.509C328.669 449.063 325.334 452.148 321.574 454.648C318.742 456.54 315.689 458.08 312.484 459.232C310.459 459.943 308.381 460.494 306.27 460.882L304.62 461.129L304.047 461.198L304.61 461.08L306.25 460.783C308.345 460.357 310.406 459.775 312.415 459.045C319.829 456.288 326.328 451.523 331.187 445.282L331.77 444.551L332.314 443.77L333.4 442.179C334.052 441.063 334.784 439.947 335.376 438.712C336.007 437.481 336.57 436.218 337.066 434.927C337.303 434.266 337.53 433.594 337.767 432.951C338.004 432.309 338.192 431.568 338.4 430.867C340.02 425.245 340.85 419.011 342.865 412.658C343.86 409.396 345.364 406.312 347.321 403.519C349.468 400.664 352.153 398.257 355.225 396.435C361.44 392.671 368.692 390.645 375.588 387.484C379.019 386.015 382.196 384.014 385.004 381.556C387.653 379.1 389.684 376.054 390.932 372.664C392.081 369.326 392.85 365.869 393.224 362.359C393.668 358.94 393.965 355.571 394.419 352.301C394.805 349.09 395.5 345.923 396.494 342.846C397.513 339.949 399.064 337.268 401.068 334.942C403.029 332.867 405.275 331.08 407.737 329.636C410.069 328.214 412.391 326.988 414.545 325.753C416.619 324.59 418.601 323.268 420.473 321.801C422.113 320.481 423.595 318.976 424.889 317.316C426.964 314.648 428.558 311.639 429.602 308.424C430.275 306.393 430.71 304.291 430.896 302.16C430.975 301.429 430.975 300.876 431.005 300.49C431.035 300.105 431.054 299.957 431.054 299.957Z" fill="#455A64"/>
<path d="M434.572 311.655C434.644 311.819 434.707 311.987 434.76 312.159C434.938 312.648 435.08 313.15 435.185 313.66C435.568 315.645 435.53 317.688 435.076 319.658C434.367 322.777 432.966 325.698 430.976 328.204C428.285 331.443 425.232 334.363 421.876 336.908C418.29 339.872 414.209 343.043 411.077 347.529C409.455 349.831 408.319 352.44 407.738 355.196C407.192 358.132 406.862 361.104 406.75 364.088C406.633 367.26 406.193 370.411 405.436 373.494C404.607 376.706 403.396 379.807 401.83 382.731C398.532 388.906 393.752 394.165 387.919 398.036C381.882 401.988 375.075 403.885 369.097 406.858C366.135 408.251 363.408 410.098 361.015 412.332C358.794 414.544 356.999 417.147 355.72 420.009C353.181 425.601 352.133 431.42 350.72 436.716C350.065 439.29 349.26 441.823 348.31 444.304C347.404 446.585 346.248 448.759 344.862 450.785C343.577 452.605 342.078 454.264 340.396 455.725C339.625 456.446 338.785 457.039 338.005 457.651C337.224 458.264 336.394 458.768 335.565 459.203C332.804 460.822 329.802 461.989 326.673 462.661C324.706 463.07 322.704 463.279 320.695 463.283L319.134 463.204H318.601H319.134H320.695C322.689 463.151 324.674 462.909 326.623 462.483C329.706 461.778 332.66 460.594 335.377 458.975C336.187 458.541 336.948 457.987 337.768 457.424C338.588 456.861 339.368 456.219 340.129 455.498C341.783 454.032 343.256 452.373 344.516 450.558C345.874 448.547 347.007 446.393 347.895 444.136C348.826 441.667 349.614 439.147 350.256 436.587C351.659 431.311 352.677 425.462 355.196 419.791C356.492 416.872 358.314 414.216 360.571 411.956C363 409.685 365.77 407.808 368.781 406.394C374.808 403.381 381.625 401.454 387.553 397.591C396.111 391.916 402.28 383.289 404.883 373.355C405.632 370.302 406.072 367.18 406.197 364.038C406.296 361.024 406.626 358.021 407.185 355.058C407.781 352.247 408.945 349.588 410.603 347.242C413.804 342.708 417.934 339.526 421.53 336.592C424.926 334.094 428.026 331.217 430.768 328.016C432.753 325.554 434.167 322.683 434.908 319.608C435.366 317.665 435.433 315.65 435.106 313.68C434.819 312.336 434.533 311.665 434.572 311.655Z" fill="#455A64"/>
<path d="M307.317 222.162C307.317 222.162 315.449 278.241 327.957 283.684C334.26 286.441 339.329 284.07 342.777 277.756C346.225 271.443 355.028 225.57 355.028 225.57L330.693 224.997L329.785 234.116L320.399 216.659L307.317 222.162Z" fill="#936760"/>
<path d="M343.191 258.777C343.143 258.62 343.073 258.47 342.984 258.332L342.322 257.107L339.871 252.612C337.777 248.818 334.931 243.562 331.76 237.742C328.588 231.923 325.832 226.677 323.787 222.794L321.376 218.259L320.714 217.034C320.556 216.757 320.467 216.609 320.447 216.619C320.492 216.776 320.551 216.928 320.625 217.073L321.218 218.338C321.742 219.435 322.512 221.006 323.49 222.952C325.466 226.825 328.203 232.14 331.394 237.96C334.586 243.779 337.461 249.016 339.624 252.78C340.711 254.657 341.6 256.159 342.243 257.196L342.984 258.382C343.04 258.52 343.109 258.652 343.191 258.777Z" fill="#6F4C47"/>
<path d="M427.991 235.272L421.046 266.345L424.336 287.202H348.003L352.992 189.854L372.021 188.234L418.517 196.088L427.991 235.272Z" fill="#FF725E"/>
<path d="M408.577 195.525C408.577 195.525 428.456 193.697 437.931 207.223C443.73 215.503 451.861 234.522 451.861 234.522L425.393 239.096L408.577 195.525Z" fill="#FF725E"/>
<g opacity="0.3">
<path opacity="0.3" d="M420.631 235.638C419.287 232.89 417.189 230.58 414.583 228.977C411.977 227.375 408.969 226.546 405.91 226.588C404.586 226.588 403.094 226.944 402.392 228.06C401.691 229.176 402.076 230.777 402.59 232.071C403.252 233.761 404.131 235.549 405.752 236.359C406.937 236.952 408.33 236.922 409.605 237.347C411.126 237.931 412.516 238.811 413.695 239.936C414.753 240.724 415.666 241.69 416.392 242.791C416.881 243.724 417.233 244.722 417.44 245.755C418.734 250.833 419.761 261.316 421.046 266.394L422.469 262.018C422.508 257.842 422.544 253.666 422.577 249.49C422.617 244.747 422.617 239.886 420.631 235.638Z" fill="black"/>
</g>
<path d="M396.899 261.543C396.899 261.464 397.887 261.642 399.607 261.771C401.776 261.942 403.958 261.889 406.117 261.613C408.277 261.323 410.402 260.817 412.46 260.101C414.041 259.548 414.99 259.113 415.019 259.182C414.831 259.339 414.621 259.469 414.397 259.567C413.807 259.881 413.2 260.161 412.579 260.407C408.454 262.047 403.985 262.631 399.577 262.107C398.912 262.03 398.252 261.914 397.601 261.761C397.356 261.729 397.119 261.656 396.899 261.543Z" fill="#263238"/>
<path d="M363.584 262.907C363.584 262.788 374.452 265.871 387.701 269.823C400.95 273.775 411.739 277.015 411.7 277.144C411.66 277.272 400.832 274.18 387.573 270.228C374.314 266.276 363.584 263.035 363.584 262.907Z" fill="#263238"/>
<g opacity="0.3">
<path opacity="0.3" d="M397.442 261.672C398.416 263.115 399.765 264.265 401.344 264.998C402.923 265.731 404.673 266.019 406.404 265.831C408.056 265.646 409.62 264.988 410.908 263.937C412.196 262.886 413.153 261.485 413.665 259.903C408.504 261.896 402.912 262.505 397.442 261.672Z" fill="black"/>
</g>
<g opacity="0.3">
<path opacity="0.3" d="M408.804 276.156L408.528 276.265C401.71 277.48 395.318 276.265 388.768 273.933C382.217 271.601 376.151 268.262 370.114 264.873L408.804 276.156Z" fill="black"/>
</g>
<path d="M352.992 189.854C352.992 189.854 340.405 191.395 335.524 202.145C332.17 209.811 329.332 217.693 327.027 225.738L352.715 231.518C352.715 231.518 356.756 209.782 357.063 202.145C357.408 193.757 357.744 189.607 352.992 189.854Z" fill="#FF725E"/>
<path d="M350.572 234.956C350.344 232.563 350.271 230.157 350.355 227.754C350.283 225.353 350.366 222.951 350.602 220.561C350.83 222.951 350.902 225.354 350.819 227.754C350.89 230.157 350.807 232.563 350.572 234.956Z" fill="#263238"/>
<path d="M364.513 120.981C371.3 112.681 380.429 107.899 391.189 107.722C397.235 107.623 399.745 108.878 404.102 110.053C408.457 111.107 412.303 113.656 414.97 117.256C418.062 121.643 420.661 126.553 421.244 131.878C421.836 137.362 422.439 142.875 422.024 148.368C421.609 153.861 420.127 159.384 416.887 163.85L402.906 166.28C395.18 166.537 387.355 166.794 379.837 165.036C372.318 163.277 365.017 159.226 360.986 152.636C355.393 143.477 357.715 129.29 364.513 120.981Z" fill="#263238"/>
<path d="M412.647 171.714C412.647 171.714 412.875 172.06 413.487 172.445C414.359 172.987 415.342 173.325 416.362 173.433C417.902 173.604 419.456 173.29 420.808 172.534C422.45 171.54 423.646 169.952 424.146 168.099C424.647 166.246 424.414 164.271 423.496 162.585C422.71 161.254 421.529 160.201 420.117 159.572C419.186 159.151 418.174 158.942 417.153 158.959C416.779 158.933 416.404 159.005 416.066 159.167C417.388 159.22 418.689 159.521 419.899 160.056C421.144 160.704 422.174 161.699 422.863 162.921C423.624 164.441 423.799 166.187 423.354 167.827C422.91 169.467 421.877 170.886 420.453 171.813C419.259 172.518 417.886 172.861 416.501 172.801C415.158 172.693 413.849 172.323 412.647 171.714Z" fill="#E0E0E0"/>
<path d="M350.957 161.558C351.09 159.967 351.586 158.427 352.407 157.057C353.227 155.687 354.35 154.523 355.69 153.654C357.051 152.829 358.639 152.458 360.225 152.595C361.811 152.732 363.312 153.369 364.512 154.415L366.716 157.033C368.418 157.823 369.832 159.124 370.761 160.755C371.691 162.385 372.09 164.265 371.903 166.132C371.647 167.993 370.867 169.743 369.652 171.176C368.438 172.609 366.84 173.667 365.046 174.224C363.24 174.732 361.333 174.766 359.51 174.325C357.686 173.884 356.007 172.982 354.632 171.705C353.288 170.404 352.258 168.814 351.621 167.056C350.985 165.298 350.757 163.417 350.957 161.558Z" fill="#263238"/>
<path d="M353.704 170.983C353.166 170.157 352.904 169.182 352.953 168.197C353.071 166.409 354.366 164.067 356.144 161.923C357.707 160.081 359.609 158.555 361.746 157.428C363.386 156.549 364.512 156.232 364.473 156.114C363.435 156.2 362.426 156.5 361.509 156.993C359.221 158.025 357.195 159.558 355.581 161.479C354.685 162.525 353.925 163.68 353.318 164.917C352.772 165.924 352.464 167.043 352.419 168.187C352.399 168.971 352.616 169.742 353.042 170.4C353.437 170.855 353.704 171.013 353.704 170.983Z" fill="#455A64"/>
<path d="M360.491 175.113C360.718 175.113 359.77 170.875 361.113 165.875C362.457 160.876 365.283 157.655 365.065 157.527C364.326 158.098 363.699 158.801 363.218 159.602C361.936 161.458 360.989 163.524 360.422 165.707C359.853 167.888 359.665 170.151 359.868 172.396C359.909 173.332 360.12 174.253 360.491 175.113Z" fill="#455A64"/>
<path d="M402.907 188.955C402.818 184.015 402.699 180.063 402.699 180.063C402.699 180.063 414.101 178.808 417.243 164.206C418.813 156.944 419.1 144.9 419.021 135.05C418.952 126.158 411.394 114.104 400.447 114.065L395.576 113.492L376.942 120.902C375.641 120.963 374.411 121.511 373.496 122.437C372.581 123.363 372.048 124.6 372.002 125.901L371.488 188.283L389.5 232.012L402.423 214.495L402.907 188.955Z" fill="#936760"/>
<path d="M395.339 160.777C395.447 160.029 395.827 159.347 396.406 158.861C396.936 158.405 397.601 158.136 398.299 158.095C398.997 158.054 399.689 158.243 400.269 158.633C400.87 159.096 401.336 159.711 401.619 160.414C401.903 161.118 401.992 161.885 401.879 162.635C401.56 163.084 401.148 163.46 400.67 163.736C400.193 164.012 399.662 164.183 399.113 164.235C398.938 164.245 398.764 164.245 398.589 164.235C397.72 164.231 396.884 163.899 396.248 163.307C395.915 162.981 395.66 162.584 395.503 162.146C395.345 161.708 395.289 161.24 395.339 160.777Z" fill="#6F4C47"/>
<path d="M411.778 145.127C411.758 145.621 411.544 146.087 411.184 146.425C410.824 146.763 410.345 146.946 409.852 146.935C409.61 146.942 409.37 146.9 409.144 146.812C408.919 146.724 408.714 146.592 408.541 146.424C408.368 146.255 408.23 146.053 408.136 145.831C408.042 145.608 407.994 145.369 407.994 145.127C408.017 144.635 408.231 144.17 408.591 143.833C408.951 143.495 409.428 143.311 409.921 143.319C410.162 143.313 410.403 143.355 410.628 143.442C410.853 143.53 411.058 143.662 411.231 143.831C411.404 144 411.542 144.201 411.636 144.424C411.73 144.646 411.778 144.886 411.778 145.127Z" fill="#263238"/>
<path d="M415.394 140.513C415.147 140.741 413.774 139.604 411.739 139.525C409.703 139.446 408.162 140.355 407.955 140.098C407.747 139.842 408.113 139.545 408.784 139.11C409.701 138.552 410.766 138.287 411.837 138.35C412.896 138.407 413.909 138.798 414.732 139.466C415.325 139.95 415.513 140.405 415.394 140.513Z" fill="#263238"/>
<path d="M402.62 155.916C403.707 155.636 404.826 155.496 405.949 155.501C406.473 155.501 406.937 155.403 407.076 155.047C407.154 154.516 407.064 153.973 406.819 153.496C406.394 152.211 405.959 150.858 405.495 149.455C403.677 143.705 402.383 138.992 402.62 138.923C402.857 138.854 404.517 143.448 406.335 149.198C406.769 150.611 407.194 151.964 407.589 153.259C407.884 153.9 407.94 154.625 407.748 155.304C407.664 155.485 407.539 155.644 407.383 155.767C407.227 155.891 407.044 155.976 406.848 156.015C406.557 156.083 406.258 156.109 405.959 156.094C404.843 156.18 403.721 156.12 402.62 155.916Z" fill="#263238"/>
<path d="M402.699 180.053C395.755 179.779 389.024 177.583 383.255 173.71C383.255 173.71 387.948 184.213 402.778 183.64L402.699 180.053Z" fill="#6F4C47"/>
<path d="M396.554 156.993C396.89 156.993 396.771 159.196 398.53 160.866C400.289 162.536 402.699 162.427 402.699 162.733C402.699 162.872 402.156 163.139 401.158 163.109C399.864 163.054 398.629 162.547 397.67 161.676C396.756 160.836 396.2 159.675 396.119 158.436C396.129 157.507 396.406 156.973 396.554 156.993Z" fill="#263238"/>
<path d="M414.96 132.846C414.594 133.321 413.053 132.906 411.225 132.955C409.398 133.005 407.866 133.4 407.491 132.955C407.323 132.728 407.55 132.254 408.202 131.789C409.099 131.207 410.147 130.901 411.216 130.91C412.278 130.874 413.328 131.156 414.229 131.72C414.96 132.145 415.148 132.609 414.96 132.846Z" fill="#263238"/>
<path d="M388.115 144.594C388.091 145.093 388.266 145.581 388.601 145.951C388.936 146.322 389.405 146.544 389.904 146.57C390.143 146.591 390.385 146.565 390.615 146.493C390.844 146.42 391.057 146.303 391.241 146.148C391.424 145.993 391.576 145.802 391.685 145.588C391.795 145.374 391.861 145.14 391.88 144.9C391.904 144.401 391.729 143.913 391.394 143.542C391.059 143.172 390.59 142.95 390.091 142.924C389.852 142.901 389.609 142.926 389.379 142.998C389.149 143.07 388.936 143.187 388.752 143.343C388.568 143.498 388.417 143.689 388.307 143.904C388.198 144.119 388.133 144.353 388.115 144.594Z" fill="#263238"/>
<path d="M387.533 139.782C387.76 140.029 389.212 138.992 391.248 139.031C393.283 139.071 394.755 140.118 394.982 139.871C395.21 139.624 394.864 139.318 394.222 138.883C393.358 138.258 392.323 137.913 391.258 137.895C390.199 137.869 389.16 138.185 388.294 138.794C387.632 139.229 387.414 139.664 387.533 139.782Z" fill="#263238"/>
<path d="M386.357 135.405C386.752 135.88 388.333 135.405 390.22 135.405C392.107 135.405 393.708 135.781 394.083 135.297C394.241 135.069 394.004 134.605 393.312 134.151C392.364 133.595 391.279 133.315 390.18 133.34C389.088 133.332 388.016 133.634 387.088 134.21C386.416 134.704 386.189 135.178 386.357 135.405Z" fill="#263238"/>
<path d="M374.551 150.66C374.61 149.554 373.483 146.906 372.407 146.708C369.541 146.105 364.305 146.046 363.86 153.397C363.238 163.435 373.444 161.983 373.483 161.696C373.523 161.41 374.353 154.444 374.551 150.66Z" fill="#936760"/>
<path d="M370.944 157.823C370.895 157.823 370.757 157.932 370.45 158.05C370.025 158.201 369.559 158.183 369.146 158.001C368.109 157.546 367.318 155.798 367.378 153.99C367.405 153.126 367.625 152.279 368.02 151.51C368.131 151.2 368.317 150.924 368.562 150.705C368.807 150.486 369.103 150.331 369.423 150.255C369.625 150.215 369.835 150.248 370.015 150.348C370.196 150.447 370.336 150.606 370.411 150.798C370.529 151.085 370.46 151.283 370.51 151.302C370.559 151.322 370.737 151.144 370.678 150.729C370.639 150.477 370.513 150.246 370.322 150.077C370.189 149.958 370.032 149.869 369.861 149.814C369.691 149.76 369.512 149.742 369.334 149.761C368.916 149.815 368.519 149.977 368.181 150.229C367.844 150.482 367.577 150.818 367.407 151.204C366.929 152.046 366.662 152.992 366.627 153.96C366.567 155.995 367.486 157.912 368.919 158.455C369.183 158.55 369.464 158.584 369.743 158.555C370.022 158.526 370.291 158.435 370.529 158.287C370.905 158.08 370.974 157.843 370.944 157.823Z" fill="#6F4C47"/>
<path d="M371.992 146.698L374.551 149.346C385.567 138.804 407.105 112.395 405.9 113.966C400.879 112.091 395.468 111.503 390.161 112.257C381.961 113.65 366.449 117.75 366.666 127.422C366.884 137.095 371.992 146.698 371.992 146.698Z" fill="#263238"/>
<path d="M372.229 171.714C372.229 171.714 372.002 172.06 371.399 172.446C370.524 172.988 369.538 173.326 368.514 173.434C366.978 173.604 365.427 173.289 364.078 172.534C362.436 171.54 361.24 169.952 360.738 168.1C360.236 166.247 360.466 164.273 361.381 162.585C362.17 161.253 363.354 160.2 364.769 159.572C365.699 159.149 366.712 158.94 367.733 158.959C368.111 158.937 368.487 159.008 368.83 159.167C367.512 159.235 366.218 159.55 365.016 160.096C363.772 160.744 362.743 161.739 362.052 162.961C361.292 164.48 361.117 166.227 361.562 167.867C362.006 169.507 363.039 170.926 364.463 171.853C365.675 172.566 367.07 172.91 368.474 172.841C369.787 172.71 371.061 172.328 372.229 171.714Z" fill="#E0E0E0"/>
<path d="M357.398 144.485C357.433 144.286 357.486 144.091 357.557 143.902C357.739 143.357 357.967 142.828 358.238 142.321C359.277 140.46 360.71 138.848 362.437 137.599C365 135.77 367.857 134.393 370.885 133.528C374.244 132.441 378.038 131.552 381.753 129.991C385.249 128.528 388.565 126.665 391.633 124.439C394.148 122.612 396.492 120.562 398.638 118.313C400.077 116.79 401.43 115.187 402.688 113.511L403.676 112.118C403.799 111.947 403.938 111.788 404.091 111.644C404.021 111.831 403.925 112.008 403.805 112.168C403.587 112.504 403.291 112.998 402.817 113.61C401.619 115.349 400.298 117 398.865 118.55C396.742 120.853 394.403 122.947 391.88 124.804C388.781 127.081 385.421 128.978 381.871 130.456C378.313 131.819 374.685 132.993 371.003 133.973C368.014 134.801 365.182 136.119 362.625 137.875C360.916 139.08 359.473 140.624 358.386 142.41C357.655 143.705 357.458 144.505 357.398 144.485Z" fill="#455A64"/>
<path d="M360.323 146.066C360.298 145.315 360.433 144.567 360.719 143.873C361.473 141.952 362.788 140.303 364.493 139.14C366.587 137.579 369.581 136.611 372.871 135.86C376.454 135.145 379.946 134.035 383.284 132.55C386.604 131.03 389.724 129.105 392.572 126.82C394.892 124.948 397.023 122.853 398.934 120.566C400.218 119.015 401.402 117.385 402.481 115.685L403.331 114.282C403.423 114.113 403.532 113.954 403.657 113.808C403.606 113.994 403.526 114.17 403.42 114.331C403.222 114.717 402.965 115.201 402.649 115.794C401.629 117.543 400.48 119.214 399.211 120.793C394.995 126.034 389.617 130.222 383.502 133.024C380.133 134.53 376.602 135.644 372.98 136.344C369.69 137.075 366.765 137.984 364.7 139.466C363.028 140.571 361.711 142.135 360.906 143.971C360.647 144.65 360.452 145.351 360.323 146.066Z" fill="#455A64"/>
<path d="M308.335 227.635C307.772 227.428 307.031 219.435 307.031 219.435C307.031 219.435 299.038 213.042 297.951 210.444C296.865 207.846 297.023 201.651 297.023 201.651L310.114 192.759C310.114 192.759 317.85 199.675 319.875 202.402C321.011 203.923 321.851 208.122 322.444 211.521C322.918 214.41 323.028 217.348 322.77 220.265L322.582 222.517C322.582 222.517 317.316 230.975 308.335 227.635Z" fill="#936760"/>
<path d="M298.554 212.015C297.613 211.179 296.719 210.292 295.876 209.357C294.177 207.52 292.29 205.8 293.9 203.854C294.142 203.532 294.449 203.266 294.802 203.071C295.154 202.877 295.544 202.76 295.945 202.728C295.945 202.728 294.957 201.018 295.817 199.942C296.059 199.624 296.374 199.368 296.735 199.196C297.095 199.024 297.492 198.941 297.892 198.954C297.892 198.954 296.617 196.503 297.793 194.853C298.241 194.251 298.848 193.786 299.547 193.51C300.245 193.234 301.006 193.159 301.745 193.292C301.745 193.292 296.439 182.484 296.123 181.93C294.938 179.885 295.046 177.652 297.417 177.405C298.287 177.316 299.038 177.998 301.29 181.357C303.543 184.716 307.317 190.397 307.317 190.397C307.317 190.397 311.437 193.885 313.502 195.841C315.567 197.798 319.885 202.382 320.606 203.745C322.453 207.292 322.058 213.003 322.058 213.003L307.041 219.435C307.041 219.435 299.522 212.874 298.554 212.015Z" fill="#936760"/>
<path d="M296.4 203.103C297.023 203.47 297.617 203.883 298.178 204.338L300.065 205.741C300.447 206.016 300.804 206.323 301.133 206.66C301.517 207.033 301.767 207.523 301.844 208.053C301.893 208.327 301.868 208.609 301.77 208.87C301.673 209.131 301.507 209.36 301.291 209.535C300.87 209.826 300.353 209.943 299.848 209.861C299.426 209.817 299.009 209.731 298.603 209.604C298.218 209.496 297.872 209.387 297.546 209.278C296.914 209.071 296.4 208.883 296.054 208.735C295.708 208.587 295.531 208.498 295.54 208.468C295.55 208.438 296.341 208.695 297.615 209.051C298.355 209.278 299.111 209.447 299.878 209.555C300.299 209.605 300.726 209.508 301.083 209.278C301.251 209.134 301.378 208.949 301.452 208.742C301.527 208.534 301.546 208.31 301.508 208.093C301.433 207.635 301.215 207.213 300.886 206.887C300.582 206.56 300.252 206.259 299.898 205.988L298.05 204.516C297.46 204.094 296.908 203.621 296.4 203.103Z" fill="#6F4C47"/>
<path d="M309.471 199.902C309.045 199.146 308.805 198.299 308.77 197.432C308.62 196.579 308.671 195.703 308.918 194.873C309.027 194.873 308.918 196.019 309.106 197.402C309.294 198.786 309.57 199.872 309.471 199.902Z" fill="#6F4C47"/>
<path d="M316.743 200.999C314.832 200.144 312.715 199.859 310.647 200.179C308.586 200.497 306.587 201.13 304.719 202.056C303.217 202.767 301.577 203.815 301.369 205.464C301.162 207.114 302.713 208.695 304.393 209.021C306.102 209.211 307.828 208.866 309.333 208.033C310.825 207.181 312.418 206.517 314.075 206.057" fill="#936760"/>
<path d="M314.094 206.107C314.094 206.107 313.65 206.215 312.869 206.512C311.787 206.954 310.729 207.452 309.698 208.004C308.972 208.378 308.215 208.689 307.435 208.932C306.529 209.23 305.568 209.328 304.62 209.219C303.545 209.079 302.567 208.526 301.893 207.678C301.526 207.233 301.287 206.697 301.201 206.126C301.138 205.53 301.255 204.927 301.537 204.397C302.15 203.43 303.032 202.664 304.076 202.194C305 201.731 305.95 201.322 306.922 200.969C308.57 200.352 310.31 200.018 312.069 199.981C313.253 199.952 314.433 200.13 315.557 200.505C315.864 200.607 316.164 200.729 316.456 200.87C316.557 200.916 316.653 200.972 316.742 201.038C316.742 201.038 316.317 200.86 315.517 200.633C314.396 200.32 313.233 200.183 312.069 200.228C310.342 200.308 308.639 200.672 307.03 201.305C306.074 201.656 305.141 202.065 304.234 202.53C303.252 202.974 302.421 203.695 301.843 204.605C301.587 205.065 301.483 205.594 301.547 206.117C301.618 206.627 301.827 207.108 302.15 207.51C302.774 208.291 303.67 208.806 304.659 208.952C305.566 209.057 306.484 208.973 307.356 208.705C308.127 208.474 308.877 208.18 309.599 207.826C310.646 207.293 311.725 206.824 312.83 206.423C313.134 206.323 313.444 206.244 313.759 206.186C313.866 206.144 313.979 206.117 314.094 206.107Z" fill="#6F4C47"/>
<path d="M296.588 203.241C299.088 205.109 301.528 207.292 303.781 209.397C304.397 210.072 305.181 210.573 306.053 210.849C306.754 210.997 307.97 209.861 308.533 209.367L300.461 200.89" fill="#936760"/>
<path d="M300.461 200.89C300.707 201.065 300.932 201.267 301.133 201.493L302.872 203.251C304.344 204.753 306.379 206.858 308.661 209.249L308.78 209.377L308.642 209.496C308.211 209.882 307.759 210.245 307.288 210.582C307.085 210.717 306.87 210.833 306.646 210.928C306.526 210.977 306.399 211.007 306.27 211.017C306.14 211.044 306.005 211.044 305.875 211.017C305.428 210.885 305.009 210.671 304.64 210.385C303.919 209.831 303.346 209.229 302.743 208.695C301.558 207.608 300.49 206.64 299.582 205.84C298.673 205.04 297.912 204.407 297.388 203.973C297.107 203.759 296.84 203.528 296.588 203.281C296.901 203.446 297.196 203.645 297.467 203.874C298.02 204.269 298.801 204.862 299.73 205.652C300.658 206.443 301.765 207.381 302.951 208.468C303.553 208.992 304.156 209.604 304.838 210.118C305.174 210.378 305.556 210.573 305.964 210.691C306.166 210.715 306.371 210.695 306.565 210.634C306.759 210.572 306.938 210.471 307.09 210.335C307.554 210.007 307.999 209.654 308.424 209.278V209.456C306.142 207.055 304.146 204.921 302.714 203.38L301.044 201.552C300.836 201.343 300.642 201.122 300.461 200.89Z" fill="#6F4C47"/>
<path d="M298.188 198.321L306.33 207.49C306.868 208.175 307.52 208.763 308.256 209.229C308.626 209.459 309.047 209.594 309.481 209.622C309.916 209.65 310.35 209.569 310.746 209.387C311.238 209.046 311.602 208.552 311.781 207.981C311.96 207.41 311.944 206.795 311.734 206.235C311.295 205.117 310.621 204.107 309.758 203.271C307.301 200.485 305.065 197.512 303.069 194.379" fill="#936760"/>
<path d="M303.088 194.349C303.088 194.349 303.177 194.438 303.316 194.636L303.908 195.496C304.432 196.237 305.183 197.304 306.151 198.598C307.119 199.892 308.335 201.384 309.738 202.994C310.531 203.801 311.198 204.724 311.714 205.731C311.972 206.3 312.071 206.928 312 207.549C311.949 208.206 311.653 208.82 311.17 209.268C310.918 209.482 310.622 209.638 310.302 209.725C309.983 209.812 309.649 209.828 309.323 209.772C308.705 209.681 308.123 209.428 307.633 209.041C306.787 208.293 306.004 207.477 305.292 206.601L301.547 202.323C300.51 201.127 299.67 200.139 299.047 199.418L298.376 198.588C298.292 198.498 298.219 198.399 298.158 198.292C298.158 198.292 298.257 198.371 298.425 198.539L299.146 199.299L301.725 202.135L305.529 206.364C306.235 207.217 307.008 208.013 307.841 208.745C308.284 209.096 308.812 209.324 309.372 209.407C309.651 209.453 309.936 209.439 310.208 209.366C310.481 209.292 310.735 209.161 310.953 208.982C311.369 208.588 311.623 208.052 311.664 207.48C311.729 206.92 311.64 206.353 311.407 205.84C310.887 204.856 310.221 203.956 309.431 203.172C308.028 201.552 306.843 200.021 305.894 198.707C304.946 197.393 304.215 196.306 303.731 195.535C303.493 195.15 303.306 194.853 303.187 194.646C303.144 194.551 303.111 194.452 303.088 194.349Z" fill="#6F4C47"/>
<path d="M315.508 215.384C315.204 215.544 314.862 215.616 314.52 215.591C313.718 215.635 312.917 215.493 312.178 215.177C311.425 214.873 310.749 214.404 310.202 213.803C309.964 213.569 309.784 213.281 309.679 212.963C310.388 213.79 311.281 214.44 312.286 214.86C313.292 215.281 314.381 215.46 315.468 215.384H315.508Z" fill="#6F4C47"/>
<path d="M419.04 189.538L416.195 225.442C416.147 226.056 415.858 226.627 415.392 227.03C414.926 227.433 414.32 227.637 413.705 227.596L393.698 226.252C393.385 226.233 393.079 226.152 392.799 226.013C392.518 225.874 392.269 225.679 392.065 225.441C391.861 225.203 391.707 224.927 391.613 224.628C391.518 224.329 391.485 224.015 391.514 223.703L394.785 187.829C394.838 187.22 395.127 186.655 395.59 186.257C396.054 185.858 396.654 185.656 397.265 185.695L416.857 186.969C417.17 186.99 417.476 187.074 417.757 187.215C418.038 187.357 418.287 187.553 418.491 187.792C418.694 188.032 418.848 188.31 418.942 188.61C419.037 188.909 419.07 189.225 419.04 189.538Z" fill="#455A64"/>
<path d="M447.682 235.243C447.682 235.243 453.66 275.632 453.423 281.056C453.186 286.48 447.05 298.524 438.79 299.7C430.531 300.876 422.745 293.327 422.508 283.418C422.271 273.508 421.046 242.169 421.046 242.169L427.211 238.77L447.682 235.243Z" fill="#936760"/>
<path d="M413.646 201.868C413.646 201.868 419.831 205.672 421.658 206.67C423.486 207.668 423.249 215.038 423.249 215.038L433.663 239.244L421.115 243.74C421.115 243.74 416.639 235.272 415.355 234.205C414.476 233.514 413.468 233.004 412.391 232.704C412.391 232.704 411.749 235.055 409.822 233.988C408.294 232.979 406.922 231.751 405.752 230.342C405.752 230.342 404.032 231.419 403.39 230.135C402.748 228.85 401.681 226.064 401.681 226.064C401.681 226.064 405.317 221.352 406.819 221.352C408.32 221.352 416.027 221.776 416.027 221.776C416.027 221.776 415.602 221.134 413.458 220.284C411.314 219.435 398.569 215.671 397.966 215.443C397.067 215.097 396.059 212.756 398.845 212.539C401.632 212.321 417.311 215.127 417.311 215.127C417.311 215.127 418.171 211.076 417.529 210.187C416.886 209.298 411.284 205.721 413.646 201.868Z" fill="#936760"/>
<path d="M405.703 230.204C405.594 229.621 405.611 229.021 405.752 228.445C405.886 227.775 406.233 227.165 406.74 226.706C407.407 226.223 408.219 225.979 409.042 226.015C410.45 225.924 411.863 225.974 413.261 226.163C413.845 226.201 414.419 226.334 414.96 226.558C414.96 226.706 412.312 226.262 409.032 226.479C408.306 226.443 407.587 226.637 406.977 227.033C406.535 227.429 406.222 227.948 406.078 228.524C405.983 229.09 405.857 229.651 405.703 230.204Z" fill="#6F4C47"/>
<path d="M408.192 230.925C409.012 231.261 409.814 231.64 410.593 232.061C411.437 232.338 412.262 232.668 413.063 233.049C412.141 233.111 411.22 232.912 410.406 232.476C409.531 232.188 408.762 231.649 408.192 230.925Z" fill="#6F4C47"/>
<path d="M416.57 215.038C417.404 215.164 418.177 215.547 418.783 216.133C419.388 216.719 419.796 217.48 419.949 218.308C419.821 218.308 419.396 217.32 418.457 216.471C417.519 215.621 416.521 215.167 416.57 215.038Z" fill="#6F4C47"/>
<path d="M309.659 431.183C309.521 431.183 314.915 408.459 321.712 380.518C328.51 352.578 334.122 329.992 334.26 329.992C334.398 329.992 329.004 352.716 322.206 380.667C315.409 408.617 309.797 431.213 309.659 431.183Z" fill="#455A64"/>
<path d="M457.513 464.162C457.513 464.301 363.258 464.419 247.009 464.419C130.761 464.419 36.4766 464.301 36.4766 464.162C36.4766 464.024 130.722 463.906 247.009 463.906C363.297 463.906 457.513 464.014 457.513 464.162Z" fill="#263238"/>
<path d="M408.439 107.87L411.344 97.3871C407.498 91.1568 406.123 83.7133 407.488 76.5202C408.852 69.327 412.858 62.9045 418.718 58.5154C424.578 54.1263 431.868 52.0881 439.155 52.8016C446.442 53.515 453.198 56.9284 458.095 62.3708C462.993 67.8131 465.677 74.8906 465.62 82.2119C465.564 89.5331 462.771 96.5684 457.79 101.935C452.809 107.301 446.001 110.61 438.705 111.211C431.408 111.812 424.15 109.661 418.359 105.182L408.439 107.87Z" fill="white"/>
<path d="M408.439 107.87L409.101 107.672L411.008 107.139L418.339 105.084L418.27 105.271C418.25 105.25 418.239 105.222 418.239 105.192C418.239 105.163 418.25 105.135 418.27 105.113C418.292 105.099 418.317 105.092 418.344 105.092C418.37 105.092 418.396 105.099 418.418 105.113C422.312 108.102 426.901 110.054 431.756 110.784C434.863 111.262 438.028 111.222 441.122 110.666C446.885 109.665 452.212 106.952 456.41 102.879C460.608 98.8061 463.482 93.563 464.656 87.8332C465.512 83.4571 465.364 78.9438 464.221 74.6335C463.051 70.1319 460.804 65.9818 457.676 62.5399C454.547 59.098 450.629 56.4672 446.26 54.8735C441.771 53.2258 436.946 52.711 432.211 53.3747C427.477 54.0385 422.979 55.8603 419.117 58.6787C415.255 61.497 412.148 65.2248 410.071 69.5315C407.995 73.8381 407.014 78.5906 407.214 83.3674C407.421 88.2912 408.876 93.0816 411.443 97.2884C411.452 97.3205 411.452 97.355 411.443 97.3872C410.455 100.756 409.733 103.315 409.22 105.123C408.973 106.003 408.775 106.664 408.637 107.099C408.498 107.534 408.429 107.801 408.429 107.801C408.429 107.801 408.478 107.583 408.587 107.139C408.696 106.694 408.884 106.012 409.121 105.163C409.595 103.355 410.306 100.717 411.215 97.2587V97.3575C408.107 92.3596 406.578 86.5399 406.831 80.6594C407.083 74.779 409.103 69.1115 412.628 64.3978C417.148 58.3621 423.806 54.2835 431.236 52.9977C438.666 51.7118 446.307 53.3161 452.593 57.4818C454.551 58.8099 456.348 60.3616 457.948 62.1057C459.559 63.8716 460.962 65.8177 462.127 67.9052C465.385 74.0175 466.432 81.0675 465.091 87.8628C463.899 93.6801 460.976 99.0009 456.705 103.127C452.435 107.253 447.016 109.991 441.162 110.982C438.023 111.536 434.814 111.563 431.667 111.061C426.764 110.277 422.141 108.261 418.23 105.202L418.398 105.044C418.409 105.054 418.417 105.067 418.423 105.08C418.429 105.094 418.432 105.108 418.432 105.123C418.432 105.138 418.429 105.153 418.423 105.166C418.417 105.18 418.409 105.192 418.398 105.202L410.939 107.178L409.032 107.692L408.439 107.87Z" fill="#263238"/>
<path d="M423.17 82.7845L426.588 79.3562L433.188 85.2249L446.141 72.7563L449.322 76.1847L432.704 91.8247L423.17 82.7845Z" fill="#FF725E"/>
</svg>
