<svg width="30" height="30" viewBox="0 0 30 30" fill="none" xmlns="http://www.w3.org/2000/svg">
<path d="M15.6075 6.76758C15.4217 6.66426 15.2126 6.61003 15 6.61003C14.7874 6.61003 14.5783 6.66426 14.3925 6.76758L6.32503 11.2501L14.3938 15.7326C14.5796 15.8359 14.7887 15.8901 15.0013 15.8901C15.2139 15.8901 15.423 15.8359 15.6088 15.7326L23.675 11.2501L15.6063 6.76758H15.6075ZM13.1788 4.58133C13.7359 4.27181 14.3627 4.10938 15 4.10938C15.6374 4.10938 16.2642 4.27181 16.8213 4.58133L26.8575 10.1563C27.0529 10.2644 27.2158 10.4229 27.3292 10.6152C27.4426 10.8076 27.5024 11.0268 27.5024 11.2501C27.5024 11.4734 27.4426 11.6926 27.3292 11.8849C27.2158 12.0773 27.0529 12.2357 26.8575 12.3438L16.82 17.9188C16.2631 18.2281 15.6365 18.3904 14.9994 18.3904C14.3623 18.3904 13.7357 18.2281 13.1788 17.9188L3.14253 12.3438C2.94715 12.2357 2.7843 12.0773 2.67089 11.8849C2.55749 11.6926 2.49768 11.4734 2.49768 11.2501C2.49768 11.0268 2.55749 10.8076 2.67089 10.6152C2.7843 10.4229 2.94715 10.2644 3.14253 10.1563L13.18 4.58133H13.1788Z" fill="black"/>
<path d="M26.25 10C26.5815 10 26.8995 10.1317 27.1339 10.3661C27.3683 10.6005 27.5 10.9185 27.5 11.25V20C27.5 20.3315 27.3683 20.6495 27.1339 20.8839C26.8995 21.1183 26.5815 21.25 26.25 21.25C25.9185 21.25 25.6005 21.1183 25.3661 20.8839C25.1317 20.6495 25 20.3315 25 20V11.25C25 10.9185 25.1317 10.6005 25.3661 10.3661C25.6005 10.1317 25.9185 10 26.25 10ZM7.5 12.5C7.83152 12.5 8.14946 12.6317 8.38388 12.8661C8.6183 13.1005 8.75 13.4185 8.75 13.75V20.4775L14.4413 23.3225C14.6147 23.4092 14.806 23.4543 15 23.4543C15.194 23.4543 15.3853 23.4092 15.5587 23.3225L21.25 20.4775V13.75C21.25 13.4185 21.3817 13.1005 21.6161 12.8661C21.8505 12.6317 22.1685 12.5 22.5 12.5C22.8315 12.5 23.1495 12.6317 23.3839 12.8661C23.6183 13.1005 23.75 13.4185 23.75 13.75V21.25C23.7499 21.4821 23.6851 21.7095 23.5631 21.9069C23.441 22.1043 23.2664 22.2638 23.0588 22.3675L16.6775 25.5587C16.1567 25.8192 15.5823 25.9549 15 25.9549C14.4177 25.9549 13.8433 25.8192 13.3225 25.5587L6.94125 22.3675C6.73365 22.2638 6.55903 22.1043 6.43694 21.9069C6.31485 21.7095 6.25012 21.4821 6.25 21.25V13.75C6.25 13.4185 6.3817 13.1005 6.61612 12.8661C6.85054 12.6317 7.16848 12.5 7.5 12.5Z" fill="black"/>
</svg>
