<svg width="30" height="30" viewBox="0 0 30 30" fill="none" xmlns="http://www.w3.org/2000/svg">
<path d="M22.5 27.5H7.5C6.11929 27.5 5 26.3807 5 25V5C5 3.61929 6.11929 2.5 7.5 2.5H16.25C16.2636 2.50059 16.2771 2.50312 16.29 2.5075C16.3022 2.51127 16.3148 2.51378 16.3275 2.515C16.4377 2.52207 16.5466 2.5435 16.6512 2.57875L16.6862 2.59C16.7146 2.5996 16.7422 2.6113 16.7688 2.625C16.9049 2.68553 17.029 2.77023 17.135 2.875L24.635 10.375C24.7398 10.481 24.8245 10.6051 24.885 10.7413C24.8975 10.7688 24.9062 10.7975 24.9163 10.8263L24.9275 10.8587C24.9624 10.963 24.983 11.0715 24.9888 11.1813C24.9907 11.1927 24.9936 11.204 24.9975 11.215C24.9997 11.2265 25.0006 11.2383 25.0002 11.25V25C25.0002 26.3807 23.8807 27.5 22.5 27.5ZM7.5 5V25H22.5V12.5H16.25C15.5596 12.5 15 11.9404 15 11.25V5H7.5ZM17.5 6.7675V10H20.7325L17.5 6.7675Z" fill="black"/>
</svg>
