<svg width="30" height="30" viewBox="0 0 30 30" fill="none" xmlns="http://www.w3.org/2000/svg">
<path d="M16.25 26.25H6.25C4.86929 26.25 3.75 25.1307 3.75 23.75V6.25C3.75 4.86929 4.86929 3.75 6.25 3.75H23.75C25.1307 3.75 26.25 4.86929 26.25 6.25V16.25C26.2494 16.2644 26.2469 16.2787 26.2425 16.2925C26.2389 16.3039 26.2364 16.3156 26.235 16.3275C26.2279 16.4377 26.2065 16.5466 26.1712 16.6512L26.16 16.685C26.1516 16.7132 26.1412 16.7408 26.1287 16.7675C26.0682 16.9037 25.9835 17.0278 25.8788 17.1337L17.1287 25.8838C16.8956 26.117 16.5798 26.2486 16.25 26.25ZM6.25 6.25V23.75H15V16.25C15 15.5596 15.5596 15 16.25 15H23.75V6.25H6.25ZM17.5 17.5V21.9837L21.9825 17.5H17.5Z" fill="black"/>
</svg>
