<svg width="24" height="24" viewBox="0 0 24 24" fill="none" xmlns="http://www.w3.org/2000/svg">
<g clip-path="url(#clip0)">
<mask id="path-1-inside-1" fill="white">
<path d="M4 23C4 20.8783 4.84285 18.8434 6.34315 17.3431C7.84344 15.8429 9.87827 15 12 15C14.1217 15 16.1566 15.8429 17.6569 17.3431C19.1571 18.8434 20 20.8783 20 23L17.9418 23C17.9418 21.4241 17.3158 19.9128 16.2015 18.7985C15.0872 17.6842 13.5759 17.0582 12 17.0582C10.4241 17.0582 8.91283 17.6842 7.79853 18.7985C6.68423 19.9128 6.05822 21.4241 6.05822 23L4 23Z"/>
</mask>
<path d="M4 23C4 20.8783 4.84285 18.8434 6.34315 17.3431C7.84344 15.8429 9.87827 15 12 15C14.1217 15 16.1566 15.8429 17.6569 17.3431C19.1571 18.8434 20 20.8783 20 23L17.9418 23C17.9418 21.4241 17.3158 19.9128 16.2015 18.7985C15.0872 17.6842 13.5759 17.0582 12 17.0582C10.4241 17.0582 8.91283 17.6842 7.79853 18.7985C6.68423 19.9128 6.05822 21.4241 6.05822 23L4 23Z" stroke="black" stroke-width="2" stroke-linejoin="round" mask="url(#path-1-inside-1)"/>
<circle cx="12" cy="7.66667" r="5.66667" stroke="black" stroke-width="2"/>
</g>
<defs>
<clipPath id="clip0">
<rect width="24" height="24" fill="white"/>
</clipPath>
</defs>
</svg>
